<svg xmlns="http://www.w3.org/2000/svg" viewBox="0 0 599.28 451.91"><title>background-2</title><g id="Layer_2" data-name="Layer 2"><g id="Layer_1-2" data-name="Layer 1"><path d="M536.27,415.14l5.94-5.94a1.49,1.49,0,0,0,0-2.11l-3.29-3.29a1.49,1.49,0,0,0-2.11,0l-5.94,5.94-5.94-5.94a1.49,1.49,0,0,0-2.11,0l-3.29,3.29a1.49,1.49,0,0,0,0,2.11l5.94,5.94-5.94,5.94a1.49,1.49,0,0,0,0,2.11l3.29,3.29a1.49,1.49,0,0,0,2.11,0l5.94-5.94,5.94,5.94a1.49,1.49,0,0,0,2.11,0l3.29-3.29a1.49,1.49,0,0,0,0-2.11Z" style="fill:#ebb423"/><path d="M176.27,160.14l5.94-5.94a1.49,1.49,0,0,0,0-2.11l-3.29-3.29a1.49,1.49,0,0,0-2.11,0l-5.94,5.94-5.94-5.94a1.49,1.49,0,0,0-2.11,0l-3.29,3.29a1.49,1.49,0,0,0,0,2.11l5.94,5.94-5.94,5.94a1.49,1.49,0,0,0,0,2.11l3.29,3.29a1.49,1.49,0,0,0,2.11,0l5.94-5.94,5.94,5.94a1.49,1.49,0,0,0,2.11,0l3.29-3.29a1.49,1.49,0,0,0,0-2.11Z" style="fill:#ebb423"/><path d="M495.27,200.14l5.94-5.94a1.49,1.49,0,0,0,0-2.11l-3.29-3.29a1.49,1.49,0,0,0-2.11,0l-5.94,5.94-5.94-5.94a1.49,1.49,0,0,0-2.11,0l-3.29,3.29a1.49,1.49,0,0,0,0,2.11l5.94,5.94-5.94,5.94a1.49,1.49,0,0,0,0,2.11l3.29,3.29a1.49,1.49,0,0,0,2.11,0l5.94-5.94,5.94,5.94a1.49,1.49,0,0,0,2.11,0l3.29-3.29a1.49,1.49,0,0,0,0-2.11Z" style="fill:#ebb423"/><path d="M314.27,112.14l5.94-5.94a1.49,1.49,0,0,0,0-2.11l-3.29-3.29a1.49,1.49,0,0,0-2.11,0l-5.94,5.94-5.94-5.94a1.49,1.49,0,0,0-2.11,0l-3.29,3.29a1.49,1.49,0,0,0,0,2.11l5.94,5.94-5.94,5.94a1.49,1.49,0,0,0,0,2.11l3.29,3.29a1.49,1.49,0,0,0,2.11,0l5.94-5.94,5.94,5.94a1.49,1.49,0,0,0,2.11,0l3.29-3.29a1.49,1.49,0,0,0,0-2.11Z" style="fill:#ebb423"/><polygon points="103.98 319.5 62.05 319.5 72.88 344.12 93.15 344.12 103.98 319.5" style="fill:#4b80cf"/><path d="M93.15,346.09H72.88a2,2,0,0,1-1.8-1.18L60.25,320.3a2,2,0,0,1,1.8-2.76H104a2,2,0,0,1,1.8,2.76L95,344.91A2,2,0,0,1,93.15,346.09Zm-19-3.94h17.7l9.1-20.67H65.07Z" style="fill:#316cc2"/><path d="M103.65,375.3H62.38l-2.84-4.08L69,342.15h28.1l9.43,29.07Zm-39.22-3.94H101.6l.55-.79L94.2,346.09H71.83l-7.94,24.49Z" style="fill:#4b80cf"/><rect x="61.3" y="342.15" width="43.43" height="3.94" style="fill:#4b80cf"/><rect x="85.15" y="352.93" width="3.94" height="13.03" style="fill:#4b80cf"/><polygon points="411.12 367.68 444.53 367.68 441.74 411.39 413.92 411.39 411.12 367.68" style="fill:none;stroke:#4b80cf;stroke-miterlimit:10;stroke-width:3.94014991353221px"/><path d="M427.83,383.58a6,6,0,1,0,6,6h-6v-6Zm6,6h0Z" style="fill:#ecb523"/><polygon points="1.97 183.24 1.97 149.84 45.68 152.63 45.68 180.45 1.97 183.24" style="fill:none;stroke:#4b80cf;stroke-miterlimit:10;stroke-width:3.94014991353221px"/><path d="M23.83,160.58v6h-6a6,6,0,1,0,6-6Z" style="fill:#ecb523"/><circle cx="209.24" cy="18.77" r="10.08" style="fill:none;stroke:#316cc2;stroke-miterlimit:10;stroke-width:3.94014991353221px"/><path d="M209.92,2h43s.82,18.29-10.46,29.57c-3.91,3.91-18.19,3.91-22.1,0C209.77,20.94,209.92,2,209.92,2Z" style="fill:#4b80cf;stroke:#316cc2;stroke-miterlimit:10;stroke-width:3.94014991353221px"/><path d="M374.27,274.14l5.94-5.94a1.49,1.49,0,0,0,0-2.11l-3.29-3.29a1.49,1.49,0,0,0-2.11,0l-5.94,5.94-5.94-5.94a1.49,1.49,0,0,0-2.11,0l-3.29,3.29a1.49,1.49,0,0,0,0,2.11l5.94,5.94-5.94,5.94a1.49,1.49,0,0,0,0,2.11l3.29,3.29a1.49,1.49,0,0,0,2.11,0l5.94-5.94,5.94,5.94a1.49,1.49,0,0,0,2.11,0l3.29-3.29a1.49,1.49,0,0,0,0-2.11Z" style="fill:#ebb423"/><path d="M560.27,75.14l5.94-5.94a1.49,1.49,0,0,0,0-2.11l-3.29-3.29a1.49,1.49,0,0,0-2.11,0l-5.94,5.94-5.94-5.94a1.49,1.49,0,0,0-2.11,0l-3.29,3.29a1.49,1.49,0,0,0,0,2.11l5.94,5.94-5.94,5.94a1.49,1.49,0,0,0,0,2.11l3.29,3.29a1.49,1.49,0,0,0,2.11,0l5.94-5.94,5.94,5.94a1.49,1.49,0,0,0,2.11,0l3.29-3.29a1.49,1.49,0,0,0,0-2.11Z" style="fill:#ebb423"/><path d="M63.27,34.14l5.94-5.94a1.49,1.49,0,0,0,0-2.11L65.92,22.8a1.49,1.49,0,0,0-2.11,0l-5.94,5.94L51.93,22.8a1.49,1.49,0,0,0-2.11,0l-3.29,3.29a1.49,1.49,0,0,0,0,2.11l5.94,5.94-5.94,5.94a1.49,1.49,0,0,0,0,2.11l3.29,3.29a1.49,1.49,0,0,0,2.11,0l5.94-5.94,5.94,5.94a1.49,1.49,0,0,0,2.11,0l3.29-3.29a1.49,1.49,0,0,0,0-2.11Z" style="fill:#ebb423"/><path d="M176.27,440.14l5.94-5.94a1.49,1.49,0,0,0,0-2.11l-3.29-3.29a1.49,1.49,0,0,0-2.11,0l-5.94,5.94-5.94-5.94a1.49,1.49,0,0,0-2.11,0l-3.29,3.29a1.49,1.49,0,0,0,0,2.11l5.94,5.94-5.94,5.94a1.49,1.49,0,0,0,0,2.11l3.29,3.29a1.49,1.49,0,0,0,2.11,0l5.94-5.94,5.94,5.94a1.49,1.49,0,0,0,2.11,0l3.29-3.29a1.49,1.49,0,0,0,0-2.11Z" style="fill:#ebb423"/><polygon points="384.05 74.33 425.98 74.33 415.15 49.72 394.88 49.72 384.05 74.33" style="fill:#4b80cf"/><path d="M394.88,47.75h20.27a2,2,0,0,1,1.8,1.18l10.83,24.61A2,2,0,0,1,426,76.3H384.05a2,2,0,0,1-1.8-2.76l10.83-24.61A2,2,0,0,1,394.88,47.75Zm19,3.94h-17.7l-9.1,20.67H423Z" style="fill:#316cc2"/><path d="M384.38,18.53h41.27l2.84,4.08-9.43,29.07H391l-9.43-29.07Zm39.22,3.94H386.44l-.55.79,7.94,24.49H416.2l7.94-24.49Z" style="fill:#4b80cf"/><rect x="383.3" y="47.75" width="43.43" height="3.94" style="fill:#4b80cf"/><rect x="398.94" y="27.87" width="3.94" height="13.03" style="fill:#4b80cf"/><polygon points="215.12 263.68 248.53 263.68 245.74 307.39 217.92 307.39 215.12 263.68" style="fill:none;stroke:#4b80cf;stroke-miterlimit:10;stroke-width:3.94014991353221px"/><path d="M231.83,279.58a6,6,0,1,0,6,6h-6v-6Zm6,6h0Z" style="fill:#ecb523"/><circle cx="580.5" cy="252.41" r="10.08" style="fill:none;stroke:#316cc2;stroke-miterlimit:10;stroke-width:3.94014991353221px"/><path d="M597.31,253.08v43s-18.29.82-29.57-10.46c-3.91-3.91-3.91-18.19,0-22.1C578.34,252.94,597.31,253.08,597.31,253.08Z" style="fill:#4b80cf;stroke:#316cc2;stroke-miterlimit:10;stroke-width:3.94014991353221px"/><circle cx="295.86" cy="425.67" r="10.08" style="fill:none;stroke:#316cc2;stroke-miterlimit:10;stroke-width:3.94014991353221px"/><path d="M295.19,442.47h-43s-.82-18.29,10.46-29.57c3.91-3.91,18.19-3.91,22.1,0C295.34,423.51,295.19,442.47,295.19,442.47Z" style="fill:#4b80cf;stroke:#316cc2;stroke-miterlimit:10;stroke-width:3.94014991353221px"/></g></g></svg>