<svg xmlns="http://www.w3.org/2000/svg" xmlns:xlink="http://www.w3.org/1999/xlink" viewBox="0 0 1216 490.74"><defs><pattern id="New_Pattern_copy" data-name="New Pattern copy" width="40" height="37" patternTransform="translate(7.62 14.7) scale(0.32 0.4)" patternUnits="userSpaceOnUse" viewBox="0 0 40 37"><rect width="40" height="37" style="fill:none"/><circle cx="40" cy="13.5" r="3" style="fill:#193763;opacity:0.7000000000000001"/><circle cx="40" cy="33.5" r="3" style="fill:#193763;opacity:0.7000000000000001"/><circle cx="30" cy="3.5" r="3" style="fill:#193763;opacity:0.7000000000000001"/><circle cx="20" cy="13.5" r="3" style="fill:#193763;opacity:0.7000000000000001"/><circle cx="30" cy="23.5" r="3" style="fill:#193763;opacity:0.7000000000000001"/><circle cx="20" cy="33.5" r="3" style="fill:#193763;opacity:0.7000000000000001"/><circle cx="10" cy="3.5" r="3" style="fill:#193763;opacity:0.7000000000000001"/><circle cy="13.5" r="3" style="fill:#193763;opacity:0.7000000000000001"/><circle cx="10" cy="23.5" r="3" style="fill:#193763;opacity:0.7000000000000001"/><circle cy="33.5" r="3" style="fill:#193763;opacity:0.7000000000000001"/></pattern><pattern id="New_Pattern_copy-3" data-name="New Pattern copy" width="40" height="37" patternTransform="translate(0 7) scale(0.4)" patternUnits="userSpaceOnUse" viewBox="0 0 40 37"><rect width="40" height="37" style="fill:none"/><circle cx="40" cy="13.5" r="3" style="fill:#193763;opacity:0.7000000000000001"/><circle cx="40" cy="33.5" r="3" style="fill:#193763;opacity:0.7000000000000001"/><circle cx="30" cy="3.5" r="3" style="fill:#193763;opacity:0.7000000000000001"/><circle cx="20" cy="13.5" r="3" style="fill:#193763;opacity:0.7000000000000001"/><circle cx="30" cy="23.5" r="3" style="fill:#193763;opacity:0.7000000000000001"/><circle cx="20" cy="33.5" r="3" style="fill:#193763;opacity:0.7000000000000001"/><circle cx="10" cy="3.5" r="3" style="fill:#193763;opacity:0.7000000000000001"/><circle cy="13.5" r="3" style="fill:#193763;opacity:0.7000000000000001"/><circle cx="10" cy="23.5" r="3" style="fill:#193763;opacity:0.7000000000000001"/><circle cy="33.5" r="3" style="fill:#193763;opacity:0.7000000000000001"/></pattern></defs><title>coffee-shop</title><g id="Layer_2" data-name="Layer 2"><g id="Layer_1-2" data-name="Layer 1"><polyline points="1005.39 488.77 1005.39 447.04 1160.37 447.04 1160.37 405.32 1005.39 405.32 1005.39 371.54 81.46 371.54 81.46 405.32 0 405.32 0 447.04 81.46 447.04 81.46 488.77 389.44 488.77 389.44 447.04 520.58 447.04 520.58 409.29 842.46 409.29 842.46 447.04 697.41 447.04 697.41 488.77 389.44 488.77" style="fill:url(#New_Pattern_copy)"/><rect x="874.25" y="1.97" width="232.47" height="192.73" style="fill:none;stroke:#193763;stroke-miterlimit:10;stroke-width:3.94014991353221px"/><rect x="908.03" y="-3.99" width="164.92" height="204.65" transform="translate(1088.82 -892.15) rotate(90)" style="fill:none;stroke:#193763;stroke-miterlimit:10;stroke-width:3.94014991353221px"/><line x1="874.25" y1="1.97" x2="888.16" y2="15.88" style="fill:none;stroke:#193763;stroke-miterlimit:10;stroke-width:3.94014991353221px"/><line x1="1092.81" y1="15.88" x2="1106.72" y2="1.97" style="fill:none;stroke:#193763;stroke-miterlimit:10;stroke-width:3.94014991353221px"/><line x1="888.16" y1="180.79" x2="874.25" y2="194.7" style="fill:none;stroke:#193763;stroke-miterlimit:10;stroke-width:3.94014991353221px"/><line x1="1092.81" y1="180.79" x2="1106.72" y2="194.7" style="fill:none;stroke:#193763;stroke-miterlimit:10;stroke-width:3.94014991353221px"/><line x1="910.01" y1="53.63" x2="1068.97" y2="53.63" style="fill:none;stroke:#ecb523;stroke-linecap:square;stroke-miterlimit:10;stroke-width:9px"/><line x1="911.01" y1="80.45" x2="1069.96" y2="80.45" style="fill:none;stroke:#ecb523;stroke-linecap:square;stroke-miterlimit:10;stroke-width:4px"/><line x1="911.01" y1="98.34" x2="1069.96" y2="98.34" style="fill:none;stroke:#ecb523;stroke-linecap:square;stroke-miterlimit:10;stroke-width:4px"/><line x1="911.01" y1="116.22" x2="1069.96" y2="116.22" style="fill:none;stroke:#ecb523;stroke-linecap:square;stroke-miterlimit:10;stroke-width:4px"/><line x1="911.01" y1="134.1" x2="1069.96" y2="134.1" style="fill:none;stroke:#ecb523;stroke-linecap:square;stroke-miterlimit:10;stroke-width:4px"/><line x1="911.01" y1="151.98" x2="1069.96" y2="151.98" style="fill:none;stroke:#ecb523;stroke-linecap:square;stroke-miterlimit:10;stroke-width:4px"/><line x1="1005.39" y1="405.32" x2="1005.39" y2="369.55" style="fill:none;stroke:#316cc2;stroke-miterlimit:10;stroke-width:3.94014991353221px"/><line x1="697.41" y1="405.32" x2="697.41" y2="369.55" style="fill:none;stroke:#316cc2;stroke-miterlimit:10;stroke-width:3.94014991353221px"/><line x1="842.46" y1="445.06" x2="842.46" y2="409.29" style="fill:none;stroke:#316cc2;stroke-miterlimit:10;stroke-width:3.94014991353221px"/><line x1="520.58" y1="445.06" x2="520.58" y2="409.29" style="fill:none;stroke:#316cc2;stroke-miterlimit:10;stroke-width:3.94014991353221px"/><line x1="81.46" y1="405.32" x2="81.46" y2="369.55" style="fill:none;stroke:#316cc2;stroke-miterlimit:10;stroke-width:3.94014991353221px"/><line x1="1005.39" y1="484.79" x2="1005.39" y2="449.03" style="fill:none;stroke:#316cc2;stroke-miterlimit:10;stroke-width:3.94014991353221px"/><line x1="697.41" y1="484.79" x2="697.41" y2="449.03" style="fill:none;stroke:#316cc2;stroke-miterlimit:10;stroke-width:3.94014991353221px"/><line x1="389.44" y1="484.79" x2="389.44" y2="449.03" style="fill:none;stroke:#316cc2;stroke-miterlimit:10;stroke-width:3.94014991353221px"/><line x1="45.7" y1="405.32" x2="1216" y2="405.32" style="fill:none;stroke:#316cc2;stroke-miterlimit:10;stroke-width:3.94014991353221px"/><line x1="65.57" y1="447.04" x2="1088.84" y2="447.04" style="fill:none;stroke:#316cc2;stroke-miterlimit:10;stroke-width:3.94014991353221px"/><line x1="81.46" y1="488.77" x2="1142.48" y2="488.77" style="fill:none;stroke:#316cc2;stroke-miterlimit:10;stroke-width:3.94014991353221px"/><line x1="45.7" y1="351.67" x2="1216" y2="351.67" style="fill:none;stroke:#193763;stroke-miterlimit:10;stroke-width:3.94014991353221px"/><line x1="45.7" y1="371.54" x2="1216" y2="371.54" style="fill:none;stroke:#193763;stroke-miterlimit:10;stroke-width:3.94014991353221px"/><line x1="45.7" y1="361.6" x2="1216" y2="361.6" style="fill:none;stroke:#193763;stroke-miterlimit:10;stroke-width:3.94014991353221px"/><polygon points="1141.3 351.67 1107.9 351.67 1110.69 307.96 1138.51 307.96 1141.3 351.67" style="fill:#fff;stroke:#193763;stroke-miterlimit:10;stroke-width:3.94014991353221px"/><polygon points="1141.3 341.74 1107.9 341.74 1110.69 298.02 1138.51 298.02 1141.3 341.74" style="fill:#fff;stroke:#193763;stroke-miterlimit:10;stroke-width:3.94014991353221px"/><polygon points="1141.3 331.8 1107.9 331.8 1110.69 288.09 1138.51 288.09 1141.3 331.8" style="fill:#fff;stroke:#193763;stroke-miterlimit:10;stroke-width:3.94014991353221px"/><polygon points="1141.3 321.87 1107.9 321.87 1110.69 278.15 1138.51 278.15 1141.3 321.87" style="fill:#fff;stroke:#193763;stroke-miterlimit:10;stroke-width:3.94014991353221px"/><polygon points="1141.3 311.93 1107.9 311.93 1110.69 268.22 1138.51 268.22 1141.3 311.93" style="fill:#fff;stroke:#193763;stroke-miterlimit:10;stroke-width:3.94014991353221px"/><polygon points="1141.3 302 1107.9 302 1110.69 258.28 1138.51 258.28 1141.3 302" style="fill:#fff;stroke:#193763;stroke-miterlimit:10;stroke-width:3.94014991353221px"/><polygon points="1141.3 292.06 1107.9 292.06 1110.69 248.35 1138.51 248.35 1141.3 292.06" style="fill:#fff;stroke:#193763;stroke-miterlimit:10;stroke-width:3.94014991353221px"/><polygon points="1141.3 282.13 1107.9 282.13 1110.69 238.41 1138.51 238.41 1141.3 282.13" style="fill:#fff;stroke:#193763;stroke-miterlimit:10;stroke-width:3.94014991353221px"/><polygon points="1176.26 351.67 1151.61 351.67 1153.67 319.41 1174.2 319.41 1176.26 351.67" style="fill:#fff;stroke:#193763;stroke-miterlimit:10;stroke-width:3.94014991353221px"/><polygon points="1176.26 341.74 1151.61 341.74 1153.67 309.48 1174.2 309.48 1176.26 341.74" style="fill:#fff;stroke:#193763;stroke-miterlimit:10;stroke-width:3.94014991353221px"/><polygon points="1176.26 331.8 1151.61 331.8 1153.67 299.54 1174.2 299.54 1176.26 331.8" style="fill:#fff;stroke:#193763;stroke-miterlimit:10;stroke-width:3.94014991353221px"/><polygon points="1176.26 321.87 1151.61 321.87 1153.67 289.61 1174.2 289.61 1176.26 321.87" style="fill:#fff;stroke:#193763;stroke-miterlimit:10;stroke-width:3.94014991353221px"/><polygon points="1176.26 311.93 1151.61 311.93 1153.67 279.68 1174.2 279.68 1176.26 311.93" style="fill:#fff;stroke:#193763;stroke-miterlimit:10;stroke-width:3.94014991353221px"/><path d="M1124.6,254.31a6,6,0,1,0,6,6h-6v-6Zm6,6h0Z" style="fill:#ecb523"/><path d="M1164.34,291.85a4.18,4.18,0,1,0,4.18,4.18h-4.18v-4.18Zm4.18,4.18h0Z" style="fill:#ecb523"/><path d="M262.27,97.34V6.94c-49.59,0-90.41,40.81-90.41,90.41s40.81,90.41,90.41,90.41,90.41-40.81,90.41-90.41Z" style="fill:none;stroke:#ecb523;stroke-linecap:square;stroke-miterlimit:10;stroke-width:9px"/><rect x="403.35" y="21.84" width="421.23" height="151.01" style="fill:none;stroke:#193763;stroke-miterlimit:10;stroke-width:3.94014991353221px"/><line x1="403.35" y1="97.34" x2="824.58" y2="97.34" style="fill:none;stroke:#193763;stroke-miterlimit:10;stroke-width:3.94014991353221px"/><line x1="421.23" y1="21.84" x2="421.23" y2="172.85" style="fill:none;stroke:#193763;stroke-miterlimit:10;stroke-width:3.94014991353221px"/><line x1="808.68" y1="21.84" x2="808.68" y2="172.85" style="fill:none;stroke:#193763;stroke-miterlimit:10;stroke-width:3.94014991353221px"/><polygon points="478.15 113.24 436.22 113.24 447.05 137.85 467.32 137.85 478.15 113.24" style="fill:#fff;stroke:#316cc2;stroke-linejoin:round;stroke-width:3.94014991353221px"/><polygon points="469.8 137.85 444.56 137.85 435.88 164.63 437.58 167.06 476.79 167.06 478.49 164.63 469.8 137.85" style="fill:none;stroke:#193763;stroke-miterlimit:10;stroke-width:3.94014991353221px"/><line x1="435.47" y1="137.85" x2="478.9" y2="137.85" style="fill:none;stroke:#193763;stroke-miterlimit:10;stroke-width:3.94014991353221px"/><line x1="461.29" y1="146.67" x2="461.29" y2="159.7" style="fill:none;stroke:#193763;stroke-miterlimit:10;stroke-width:3.94014991353221px"/><polygon points="537.76 113.24 495.83 113.24 506.66 137.85 526.93 137.85 537.76 113.24" style="fill:#fff;stroke:#316cc2;stroke-linejoin:round;stroke-width:3.94014991353221px"/><polygon points="529.41 137.85 504.17 137.85 495.49 164.63 497.18 167.06 536.4 167.06 538.1 164.63 529.41 137.85" style="fill:none;stroke:#193763;stroke-miterlimit:10;stroke-width:3.94014991353221px"/><line x1="495.08" y1="137.85" x2="538.51" y2="137.85" style="fill:none;stroke:#193763;stroke-miterlimit:10;stroke-width:3.94014991353221px"/><line x1="520.89" y1="146.67" x2="520.89" y2="159.7" style="fill:none;stroke:#193763;stroke-miterlimit:10;stroke-width:3.94014991353221px"/><rect x="582.67" y="113.24" width="31.79" height="53.65" style="fill:none;stroke:#193763;stroke-miterlimit:10;stroke-width:3.94014991353221px"/><path d="M598.56,136.09v-7.2a7.2,7.2,0,1,0,7.2,7.2Z" style="fill:none;stroke:#ecb523;stroke-linecap:square;stroke-miterlimit:10;stroke-width:2px"/><rect x="624.39" y="113.24" width="31.79" height="53.65" style="fill:none;stroke:#193763;stroke-miterlimit:10;stroke-width:3.94014991353221px"/><path d="M640.29,136.09v-7.2a7.2,7.2,0,1,0,7.2,7.2Z" style="fill:none;stroke:#ecb523;stroke-linecap:square;stroke-miterlimit:10;stroke-width:2px"/><rect x="666.12" y="113.24" width="31.79" height="53.65" style="fill:none;stroke:#193763;stroke-miterlimit:10;stroke-width:3.94014991353221px"/><path d="M682,136.09v-7.2a7.2,7.2,0,1,0,7.2,7.2Z" style="fill:none;stroke:#ecb523;stroke-linecap:square;stroke-miterlimit:10;stroke-width:2px"/><rect x="707.84" y="113.24" width="31.79" height="53.65" style="fill:none;stroke:#193763;stroke-miterlimit:10;stroke-width:3.94014991353221px"/><path d="M723.74,136.09v-7.2a7.2,7.2,0,1,0,7.2,7.2Z" style="fill:none;stroke:#ecb523;stroke-linecap:square;stroke-miterlimit:10;stroke-width:2px"/><rect x="749.57" y="113.24" width="31.79" height="53.65" style="fill:none;stroke:#193763;stroke-miterlimit:10;stroke-width:3.94014991353221px"/><path d="M765.46,136.09v-7.2a7.2,7.2,0,1,0,7.2,7.2Z" style="fill:none;stroke:#ecb523;stroke-linecap:square;stroke-miterlimit:10;stroke-width:2px"/><rect x="749.57" y="37.73" width="31.79" height="53.65" style="fill:none;stroke:#193763;stroke-miterlimit:10;stroke-width:3.94014991353221px"/><path d="M765.46,60.58v-7.2a7.2,7.2,0,1,0,7.2,7.2Z" style="fill:none;stroke:#ecb523;stroke-linecap:square;stroke-miterlimit:10;stroke-width:2px"/><rect x="707.84" y="37.73" width="31.79" height="53.65" style="fill:none;stroke:#193763;stroke-miterlimit:10;stroke-width:3.94014991353221px"/><path d="M723.74,60.58v-7.2a7.2,7.2,0,1,0,7.2,7.2Z" style="fill:none;stroke:#ecb523;stroke-linecap:square;stroke-miterlimit:10;stroke-width:2px"/><rect x="666.12" y="37.73" width="31.79" height="53.65" style="fill:none;stroke:#193763;stroke-miterlimit:10;stroke-width:3.94014991353221px"/><path d="M682,60.58v-7.2a7.2,7.2,0,1,0,7.2,7.2Z" style="fill:none;stroke:#ecb523;stroke-linecap:square;stroke-miterlimit:10;stroke-width:2px"/><rect x="624.39" y="37.73" width="31.79" height="53.65" style="fill:none;stroke:#193763;stroke-miterlimit:10;stroke-width:3.94014991353221px"/><path d="M640.29,60.58v-7.2a7.2,7.2,0,1,0,7.2,7.2Z" style="fill:none;stroke:#ecb523;stroke-linecap:square;stroke-miterlimit:10;stroke-width:2px"/><rect x="582.67" y="37.73" width="31.79" height="53.65" style="fill:none;stroke:#193763;stroke-miterlimit:10;stroke-width:3.94014991353221px"/><path d="M598.56,60.58v-7.2a7.2,7.2,0,1,0,7.2,7.2Z" style="fill:none;stroke:#ecb523;stroke-linecap:square;stroke-miterlimit:10;stroke-width:2px"/><rect x="540.94" y="37.73" width="31.79" height="53.65" style="fill:none;stroke:#193763;stroke-miterlimit:10;stroke-width:3.94014991353221px"/><path d="M556.84,60.58v-7.2a7.2,7.2,0,1,0,7.2,7.2Z" style="fill:none;stroke:#ecb523;stroke-linecap:square;stroke-miterlimit:10;stroke-width:2px"/><rect x="499.22" y="37.73" width="31.79" height="53.65" style="fill:none;stroke:#193763;stroke-miterlimit:10;stroke-width:3.94014991353221px"/><path d="M515.11,60.58v-7.2a7.2,7.2,0,1,0,7.2,7.2Z" style="fill:none;stroke:#ecb523;stroke-linecap:square;stroke-miterlimit:10;stroke-width:2px"/><rect x="457.49" y="37.73" width="31.79" height="53.65" style="fill:none;stroke:#193763;stroke-miterlimit:10;stroke-width:3.94014991353221px"/><path d="M473.39,60.58v-7.2a7.2,7.2,0,1,0,7.2,7.2Z" style="fill:none;stroke:#ecb523;stroke-linecap:square;stroke-miterlimit:10;stroke-width:2px"/><polygon points="468.92 339.75 468.92 351.67 528.52 351.67 528.48 339.75 523.58 282.13 473.86 282.13 468.92 339.75" style="fill:#fff;stroke:#193763;stroke-miterlimit:10;stroke-width:3.94014991353221px"/><rect x="478.85" y="266.23" width="39.74" height="15.9" style="fill:#fff;stroke:#193763;stroke-miterlimit:10;stroke-width:3.94014991353221px"/><polygon points="520.8 250.34 520.58 218.54 476.86 218.54 476.64 250.34 478.85 266.23 518.59 266.23 520.8 250.34" style="fill:#fff;stroke:#193763;stroke-miterlimit:10;stroke-width:3.94014991353221px"/><line x1="468.92" y1="339.75" x2="528.52" y2="339.75" style="fill:none;stroke:#193763;stroke-miterlimit:10;stroke-width:3.94014991353221px"/><line x1="476.86" y1="214.57" x2="520.58" y2="214.57" style="fill:none;stroke:#193763;stroke-miterlimit:10;stroke-width:3.94014991353221px"/><polygon points="502.82 254.31 494.61 254.31 491.27 266.23 506.17 266.23 502.82 254.31" style="fill:#193763"/><polygon points="476.86 266.23 518.59 266.23 518.59 234.44 476.86 234.44 476.86 266.23" style="fill:url(#New_Pattern_copy-3)"/><path d="M498.72,309.94V298a11.92,11.92,0,1,0,11.92,11.92Z" style="fill:none;stroke:#ecb523;stroke-linecap:square;stroke-miterlimit:10;stroke-width:3.94014991353221px"/><polygon points="542.43 339.75 542.43 351.67 602.04 351.67 602 339.75 597.09 282.13 547.38 282.13 542.43 339.75" style="fill:#fff;stroke:#193763;stroke-miterlimit:10;stroke-width:3.94014991353221px"/><rect x="552.37" y="266.23" width="39.74" height="15.9" style="fill:#fff;stroke:#193763;stroke-miterlimit:10;stroke-width:3.94014991353221px"/><polygon points="594.31 250.34 594.09 218.54 550.38 218.54 550.16 250.34 552.37 266.23 592.11 266.23 594.31 250.34" style="fill:#fff;stroke:#193763;stroke-miterlimit:10;stroke-width:3.94014991353221px"/><line x1="542.43" y1="339.75" x2="602.04" y2="339.75" style="fill:none;stroke:#193763;stroke-miterlimit:10;stroke-width:3.94014991353221px"/><line x1="550.38" y1="214.57" x2="594.09" y2="214.57" style="fill:none;stroke:#193763;stroke-miterlimit:10;stroke-width:3.94014991353221px"/><polygon points="576.34 254.31 568.13 254.31 564.78 266.23 579.69 266.23 576.34 254.31" style="fill:#193763"/><polygon points="550.38 266.23 592.11 266.23 592.11 234.44 550.38 234.44 550.38 266.23" style="fill:url(#New_Pattern_copy-3)"/><path d="M572.24,309.94V298a11.92,11.92,0,1,0,11.92,11.92Z" style="fill:none;stroke:#ecb523;stroke-linecap:square;stroke-miterlimit:10;stroke-width:3.94014991353221px"/><polygon points="615.95 339.75 615.95 351.67 675.56 351.67 675.51 339.75 670.61 282.13 620.89 282.13 615.95 339.75" style="fill:#fff;stroke:#193763;stroke-miterlimit:10;stroke-width:3.94014991353221px"/><rect x="625.88" y="266.23" width="39.74" height="15.9" style="fill:#fff;stroke:#193763;stroke-miterlimit:10;stroke-width:3.94014991353221px"/><polygon points="667.83 250.34 667.61 218.54 623.89 218.54 623.67 250.34 625.88 266.23 665.62 266.23 667.83 250.34" style="fill:#fff;stroke:#193763;stroke-miterlimit:10;stroke-width:3.94014991353221px"/><line x1="615.95" y1="339.75" x2="675.56" y2="339.75" style="fill:none;stroke:#193763;stroke-miterlimit:10;stroke-width:3.94014991353221px"/><line x1="623.9" y1="214.57" x2="667.61" y2="214.57" style="fill:none;stroke:#193763;stroke-miterlimit:10;stroke-width:3.94014991353221px"/><polygon points="649.86 254.31 641.65 254.31 638.3 266.23 653.2 266.23 649.86 254.31" style="fill:#193763"/><polygon points="623.89 266.23 665.62 266.23 665.62 234.44 623.89 234.44 623.89 266.23" style="fill:url(#New_Pattern_copy-3)"/><path d="M645.75,309.94V298a11.92,11.92,0,1,0,11.92,11.92Z" style="fill:none;stroke:#ecb523;stroke-linecap:square;stroke-miterlimit:10;stroke-width:3.94014991353221px"/><polygon points="135.11 458.96 443.08 458.96 443.08 429.16 135.11 429.16 135.11 458.96" style="fill:url(#New_Pattern_copy-3)"/><rect x="135.11" y="246.36" width="307.97" height="212.6" style="fill:#fff"/><rect x="135.11" y="429.16" width="307.97" height="29.8" style="fill:#fff;stroke:#193763;stroke-miterlimit:10;stroke-width:3.94014991353221px"/><polyline points="152.99 313.92 152.99 286.1 135.11 246.36" style="fill:none;stroke:#316cc2;stroke-miterlimit:10;stroke-width:3.94014991353221px"/><polyline points="425.2 313.92 425.2 286.1 443.08 246.36" style="fill:none;stroke:#316cc2;stroke-miterlimit:10;stroke-width:3.94014991353221px"/><line x1="152.99" y1="369.55" x2="152.99" y2="331.8" style="fill:none;stroke:#316cc2;stroke-miterlimit:10;stroke-width:3.94014991353221px"/><line x1="425.2" y1="369.55" x2="425.2" y2="331.8" style="fill:none;stroke:#316cc2;stroke-miterlimit:10;stroke-width:3.94014991353221px"/><line x1="152.99" y1="286.1" x2="425.2" y2="286.1" style="fill:none;stroke:#316cc2;stroke-miterlimit:10;stroke-width:3.94014991353221px"/><line x1="135.11" y1="395.38" x2="135.11" y2="429.16" style="fill:none;stroke:#193763;stroke-linejoin:bevel;stroke-width:3.94014991353221px"/><line x1="153.23" y1="395.38" x2="153.23" y2="429.16" style="fill:none;stroke:#193763;stroke-linejoin:bevel;stroke-width:3.94014991353221px"/><line x1="171.34" y1="395.38" x2="171.34" y2="429.16" style="fill:none;stroke:#193763;stroke-linejoin:bevel;stroke-width:3.94014991353221px"/><line x1="189.46" y1="395.38" x2="189.46" y2="429.16" style="fill:none;stroke:#193763;stroke-linejoin:bevel;stroke-width:3.94014991353221px"/><line x1="207.58" y1="395.38" x2="207.58" y2="429.16" style="fill:none;stroke:#193763;stroke-linejoin:bevel;stroke-width:3.94014991353221px"/><line x1="225.69" y1="395.38" x2="225.69" y2="429.16" style="fill:none;stroke:#193763;stroke-linejoin:bevel;stroke-width:3.94014991353221px"/><line x1="243.81" y1="395.38" x2="243.81" y2="429.16" style="fill:none;stroke:#193763;stroke-linejoin:bevel;stroke-width:3.94014991353221px"/><line x1="261.92" y1="395.38" x2="261.92" y2="429.16" style="fill:none;stroke:#193763;stroke-linejoin:bevel;stroke-width:3.94014991353221px"/><line x1="280.04" y1="395.38" x2="280.04" y2="429.16" style="fill:none;stroke:#193763;stroke-linejoin:bevel;stroke-width:3.94014991353221px"/><line x1="298.16" y1="395.38" x2="298.16" y2="429.16" style="fill:none;stroke:#193763;stroke-linejoin:bevel;stroke-width:3.94014991353221px"/><line x1="316.27" y1="395.38" x2="316.27" y2="429.16" style="fill:none;stroke:#193763;stroke-linejoin:bevel;stroke-width:3.94014991353221px"/><line x1="334.39" y1="395.38" x2="334.39" y2="429.16" style="fill:none;stroke:#193763;stroke-linejoin:bevel;stroke-width:3.94014991353221px"/><line x1="352.5" y1="395.38" x2="352.5" y2="429.16" style="fill:none;stroke:#193763;stroke-linejoin:bevel;stroke-width:3.94014991353221px"/><line x1="370.62" y1="395.38" x2="370.62" y2="429.16" style="fill:none;stroke:#193763;stroke-linejoin:bevel;stroke-width:3.94014991353221px"/><line x1="388.74" y1="395.38" x2="388.74" y2="429.16" style="fill:none;stroke:#193763;stroke-linejoin:bevel;stroke-width:3.94014991353221px"/><line x1="406.85" y1="395.38" x2="406.85" y2="429.16" style="fill:none;stroke:#193763;stroke-linejoin:bevel;stroke-width:3.94014991353221px"/><line x1="424.97" y1="395.38" x2="424.97" y2="429.16" style="fill:none;stroke:#193763;stroke-linejoin:bevel;stroke-width:3.94014991353221px"/><line x1="443.08" y1="395.38" x2="443.08" y2="429.16" style="fill:none;stroke:#193763;stroke-linejoin:bevel;stroke-width:3.94014991353221px"/><polygon points="424.93 313.92 153.26 313.92 135.11 331.8 443.08 331.8 424.93 313.92" style="fill:#fff;stroke:#193763;stroke-linejoin:bevel;stroke-width:3.94014991353221px"/><rect x="135.11" y="246.36" width="307.97" height="212.6" style="fill:none;stroke:#193763;stroke-miterlimit:10;stroke-width:3.94014991353221px"/><polygon points="424.93 369.55 153.26 369.55 135.11 395.38 443.08 395.38 424.93 369.55" style="fill:#fff;stroke:#193763;stroke-linejoin:bevel;stroke-width:3.94014991353221px"/><path d="M165.91,349.71V374.2c0,3.47,14.9,6.28,33.28,6.28s33.28-2.81,33.28-6.28V349.71Z" style="fill:#fff;stroke:#193763;stroke-linejoin:bevel;stroke-width:3.94014991353221px"/><ellipse cx="199.19" cy="349.08" rx="33.28" ry="6.28" style="fill:#fff;stroke:#193763;stroke-linejoin:bevel;stroke-width:3.94014991353221px"/><path d="M243.4,371.82v4.44c0,2.33,10,4.22,22.35,4.22s22.35-1.89,22.35-4.22v-4.44Z" style="fill:#fff;stroke:#193763;stroke-linejoin:bevel;stroke-width:3.94014991353221px"/><ellipse cx="265.75" cy="371.4" rx="22.35" ry="4.22" style="fill:#fff;stroke:#193763;stroke-linejoin:bevel;stroke-width:3.94014991353221px"/><path d="M299,371.82v4.44c0,2.33,10,4.22,22.35,4.22s22.35-1.89,22.35-4.22v-4.44Z" style="fill:#fff;stroke:#193763;stroke-linejoin:bevel;stroke-width:3.94014991353221px"/><ellipse cx="321.39" cy="371.4" rx="22.35" ry="4.22" style="fill:#fff;stroke:#193763;stroke-linejoin:bevel;stroke-width:3.94014991353221px"/><path d="M354.67,371.82v4.44c0,2.33,10,4.22,22.35,4.22s22.35-1.89,22.35-4.22v-4.44Z" style="fill:#fff;stroke:#193763;stroke-linejoin:bevel;stroke-width:3.94014991353221px"/><ellipse cx="377.02" cy="371.4" rx="22.35" ry="4.22" style="fill:#fff;stroke:#193763;stroke-linejoin:bevel;stroke-width:3.94014991353221px"/><path d="M167.9,309.66l3.8,9.26c0,1.19,5.13,2.16,11.46,2.16s11.46-1,11.46-2.16l3.93-9.26Z" style="fill:#fff;stroke:#193763;stroke-linejoin:bevel;stroke-width:3.94014991353221px"/><ellipse cx="183.16" cy="309.62" rx="15.39" ry="2.9" style="fill:#fff;stroke:#193763;stroke-linejoin:bevel;stroke-width:3.94014991353221px"/><path d="M178.18,297.57c1.06-.7,2.23-.94,5-.94s3.92.24,5,.94c3.63,2.39,10.93,8,12.51,12.05.66,1.7-7.83,3.3-17.49,3.3s-18.15-1.6-17.49-3.3C167.25,305.58,174.55,300,178.18,297.57Z" style="fill:#fff;stroke:#193763;stroke-linejoin:bevel;stroke-width:3.94014991353221px"/><path d="M209.62,309.66l3.8,9.26c0,1.19,5.13,2.16,11.46,2.16s11.46-1,11.46-2.16l3.93-9.26Z" style="fill:#fff;stroke:#193763;stroke-linejoin:bevel;stroke-width:3.94014991353221px"/><ellipse cx="224.88" cy="309.62" rx="15.39" ry="2.9" style="fill:#fff;stroke:#193763;stroke-linejoin:bevel;stroke-width:3.94014991353221px"/><path d="M219.9,297.57c1.06-.7,2.23-.94,5-.94s3.92.24,5,.94c3.63,2.39,10.93,8,12.51,12.05.66,1.7-7.83,3.3-17.49,3.3s-18.15-1.6-17.49-3.3C209,305.58,216.28,300,219.9,297.57Z" style="fill:#fff;stroke:#193763;stroke-linejoin:bevel;stroke-width:3.94014991353221px"/><path d="M251.35,309.66l3.8,9.26c0,1.19,5.13,2.16,11.46,2.16s11.46-1,11.46-2.16l3.93-9.26Z" style="fill:#fff;stroke:#193763;stroke-linejoin:bevel;stroke-width:3.94014991353221px"/><ellipse cx="266.61" cy="309.62" rx="15.39" ry="2.9" style="fill:#fff;stroke:#193763;stroke-linejoin:bevel;stroke-width:3.94014991353221px"/><path d="M261.63,297.57c1.06-.7,2.23-.94,5-.94s3.92.24,5,.94c3.63,2.39,10.93,8,12.51,12.05.66,1.7-7.83,3.3-17.49,3.3s-18.15-1.6-17.49-3.3C250.7,305.58,258,300,261.63,297.57Z" style="fill:#fff;stroke:#193763;stroke-linejoin:bevel;stroke-width:3.94014991353221px"/><path d="M293.07,309.66l3.8,9.26c0,1.19,5.13,2.16,11.46,2.16s11.46-1,11.46-2.16l3.93-9.26Z" style="fill:#fff;stroke:#193763;stroke-linejoin:bevel;stroke-width:3.94014991353221px"/><ellipse cx="308.33" cy="309.62" rx="15.39" ry="2.9" style="fill:#fff;stroke:#193763;stroke-linejoin:bevel;stroke-width:3.94014991353221px"/><path d="M303.35,297.57c1.06-.7,2.23-.94,5-.94s3.92.24,5,.94c3.63,2.39,10.93,8,12.51,12.05.66,1.7-7.83,3.3-17.49,3.3s-18.15-1.6-17.49-3.3C292.42,305.58,299.73,300,303.35,297.57Z" style="fill:#fff;stroke:#193763;stroke-linejoin:bevel;stroke-width:3.94014991353221px"/><path d="M334.8,309.66l3.8,9.26c0,1.19,5.13,2.16,11.46,2.16s11.46-1,11.46-2.16l3.93-9.26Z" style="fill:#fff;stroke:#193763;stroke-linejoin:bevel;stroke-width:3.94014991353221px"/><ellipse cx="350.06" cy="309.62" rx="15.39" ry="2.9" style="fill:#fff;stroke:#193763;stroke-linejoin:bevel;stroke-width:3.94014991353221px"/><path d="M345.08,297.57c1.06-.7,2.23-.94,5-.94s3.92.24,5,.94c3.63,2.39,10.93,8,12.51,12.05.66,1.7-7.83,3.3-17.49,3.3s-18.15-1.6-17.49-3.3C334.15,305.58,341.45,300,345.08,297.57Z" style="fill:#fff;stroke:#193763;stroke-linejoin:bevel;stroke-width:3.94014991353221px"/><path d="M376.52,309.66l3.8,9.26c0,1.19,5.13,2.16,11.46,2.16s11.46-1,11.46-2.16l3.93-9.26Z" style="fill:#fff;stroke:#193763;stroke-linejoin:bevel;stroke-width:3.94014991353221px"/><ellipse cx="391.78" cy="309.62" rx="15.39" ry="2.9" style="fill:#fff;stroke:#193763;stroke-linejoin:bevel;stroke-width:3.94014991353221px"/><path d="M386.8,297.57c1.06-.7,2.23-.94,5-.94s3.92.24,5,.94c3.63,2.39,10.93,8,12.51,12.05.66,1.7-7.83,3.3-17.49,3.3s-18.15-1.6-17.49-3.3C375.87,305.58,383.18,300,386.8,297.57Z" style="fill:#fff;stroke:#193763;stroke-linejoin:bevel;stroke-width:3.94014991353221px"/><circle cx="758.01" cy="229.47" r="8.94" style="fill:none;stroke:#193763;stroke-miterlimit:10;stroke-width:3.94014991353221px"/><path d="M757.42,244.38H719.26s-.73-16.23,9.28-26.23c3.46-3.46,16.13-3.46,19.6,0C757.55,227.55,757.42,244.38,757.42,244.38Z" style="fill:#fff;stroke:#193763;stroke-miterlimit:10;stroke-width:3.94014991353221px"/><circle cx="811.66" cy="229.47" r="8.94" style="fill:none;stroke:#193763;stroke-miterlimit:10;stroke-width:3.94014991353221px"/><path d="M811.06,244.38H772.91s-.73-16.23,9.28-26.23c3.46-3.46,16.13-3.46,19.6,0C811.19,227.55,811.06,244.38,811.06,244.38Z" style="fill:#fff;stroke:#193763;stroke-miterlimit:10;stroke-width:3.94014991353221px"/><circle cx="758.01" cy="219.54" r="8.94" style="fill:none;stroke:#193763;stroke-miterlimit:10;stroke-width:3.94014991353221px"/><path d="M757.42,234.44H719.26s-.73-16.23,9.28-26.23c3.46-3.46,16.13-3.46,19.6,0C757.55,217.62,757.42,234.44,757.42,234.44Z" style="fill:#fff;stroke:#193763;stroke-miterlimit:10;stroke-width:3.94014991353221px"/><circle cx="811.66" cy="219.54" r="8.94" style="fill:none;stroke:#193763;stroke-miterlimit:10;stroke-width:3.94014991353221px"/><path d="M811.06,234.44H772.91s-.73-16.23,9.28-26.23c3.46-3.46,16.13-3.46,19.6,0C811.19,217.62,811.06,234.44,811.06,234.44Z" style="fill:#fff;stroke:#193763;stroke-miterlimit:10;stroke-width:3.94014991353221px"/><rect x="709.33" y="244.38" width="194.72" height="87.42" style="fill:#fff;stroke:#193763;stroke-miterlimit:10;stroke-width:3.94014991353221px"/><rect x="709.33" y="222.52" width="194.72" height="23.84" style="fill:none;stroke:#193763;stroke-miterlimit:10;stroke-width:3.94014991353221px"/><polygon points="726.51 351.67 719.97 351.67 717.28 333.79 729.2 333.79 726.51 351.67" style="fill:#193763;stroke:#193763;stroke-miterlimit:10;stroke-width:3.94014991353221px"/><polygon points="893.41 351.67 886.88 351.67 884.18 333.79 896.11 333.79 893.41 351.67" style="fill:#193763;stroke:#193763;stroke-miterlimit:10;stroke-width:3.94014991353221px"/><line x1="709.33" y1="270.21" x2="904.05" y2="270.21" style="fill:none;stroke:#193763;stroke-miterlimit:10;stroke-width:3.94014991353221px"/><path d="M741.12,300V288.09A11.92,11.92,0,1,0,753,300Z" style="fill:#fff;stroke:#ecb523;stroke-linecap:square;stroke-miterlimit:10;stroke-width:3.94014991353221px"/><path d="M999.11,218.55H985.83c-28.7,0-52,29.58-52,66.07l5.47,67.06h106.3l5.47-67.06C1051.08,248.12,1027.82,218.55,999.11,218.55Z" style="stroke:#193763;stroke-miterlimit:10;stroke-width:4px;fill:url(#New_Pattern_copy)"/><path d="M1028.79,193.21c4.47-25.33-11.79-46.2-37.25-46.2s-40.24,25.33-37.25,46.2,21.57,37.25,37.25,37.25S1024.32,218.55,1028.79,193.21Z" style="fill:#fff;stroke:#193763;stroke-miterlimit:10;stroke-width:3.94014991353221px"/><path d="M993,203.64H1002A29.17,29.17,0,0,0,999.35,191c-1.68-3.35-4-5.24-6.32-5.24" style="fill:#fff;stroke:#193763;stroke-miterlimit:10;stroke-width:3.94014991353221px"/><path d="M985.58,188.79c0-1.29-3.34-2.33-7.45-2.33s-7.45,1-7.45,2.33" style="fill:#fff;stroke:#193763;stroke-miterlimit:10;stroke-width:3.94014991353221px"/><path d="M1019.85,188.79c0-1.29-3.34-2.33-7.45-2.33s-7.45,1-7.45,2.33" style="fill:#fff;stroke:#193763;stroke-miterlimit:10;stroke-width:3.94014991353221px"/><path d="M984.09,212.58a24.41,24.41,0,0,0,17.88,3" style="fill:none;stroke:#316cc2;stroke-miterlimit:10;stroke-width:3.94014991353221px"/><line x1="967.69" y1="155.96" x2="985.58" y2="169.37" style="fill:none;stroke:#193763;stroke-miterlimit:10;stroke-width:3.94014991353221px"/><line x1="976.63" y1="150" x2="997.5" y2="166.39" style="fill:none;stroke:#193763;stroke-miterlimit:10;stroke-width:3.94014991353221px"/><line x1="991.54" y1="147.02" x2="1012.4" y2="164.9" style="fill:none;stroke:#193763;stroke-miterlimit:10;stroke-width:3.94014991353221px"/><path d="M997.44,274.18v-15.9a15.9,15.9,0,1,0,15.9,15.9Z" style="fill:none;stroke:#ecb523;stroke-linecap:square;stroke-miterlimit:10;stroke-width:3.94014991353221px"/><path d="M1051.08,284.74c-1.74,15.28-5.47,30.59-17.77,44.78-14.19,16.36-29.77,19-37,19.26-2.3.08-4.22-2.18-4.37-5.07h0c-.31-6.3,3.84-13.51,9.57-16.18a45,45,0,0,0,19.58-18.42,43.56,43.56,0,0,0,5.81-25" style="fill:#fff;stroke:#193763;stroke-miterlimit:10;stroke-width:3.94014991353221px"/><path d="M933.86,284.74c1.74,15.28,5.47,30.59,17.77,44.78,14.19,16.36,29.77,19,37,19.26,2.3.08,4.22-2.18,4.37-5.07h0c.31-6.3-3.84-13.51-9.57-16.18a45,45,0,0,1-19.58-18.42,43.56,43.56,0,0,1-5.81-25" style="fill:#fff;stroke:#193763;stroke-miterlimit:10;stroke-width:3.94014991353221px"/></g></g></svg>