<svg xmlns="http://www.w3.org/2000/svg" xmlns:xlink="http://www.w3.org/1999/xlink" viewBox="0 0 228.29 230"><defs><style>.a{fill:none;}.b{clip-path:url(#a);}.c{clip-path:url(#b);}.d{fill:#a6aebf;}</style><clipPath id="a" transform="translate(0)"><rect class="a" width="228.29" height="230"/></clipPath><clipPath id="b" transform="translate(0)"><rect class="a" width="228.29" height="230"/></clipPath></defs><title>logo-dmp</title><g class="b"><g class="c"><path class="d" d="M66.21,212.87a6.16,6.16,0,0,1,1.13.69,2.4,2.4,0,0,1,.71.95,2.49,2.49,0,0,1,.18,1.24,3.79,3.79,0,0,1-.38,1.32,3.88,3.88,0,0,1-.8,1.11,2.41,2.41,0,0,1-1.09.62,2.55,2.55,0,0,1-1.19,0,5.78,5.78,0,0,1-1.24-.45l-3.06-1.49.06-.13a.47.47,0,0,0,.24,0,.28.28,0,0,0,.16-.16l2.27-4.66a.29.29,0,0,0,0-.22.45.45,0,0,0-.15-.19l.06-.13Zm-2.34,4.54a2.13,2.13,0,0,0,1.62.23,2.09,2.09,0,0,0,1.13-1.17,1.79,1.79,0,0,0-1-2.75L64.16,213l-1.79,3.68Z" transform="translate(0)"/><path class="d" d="M69.9,220.24l2.95,1.2a.35.35,0,0,0,.42-.14l.11,0-.56,1.38-.11,0a.32.32,0,0,0-.21-.38l-4.32-1.76,0-.12a.32.32,0,0,0,.39-.2l1.54-3.79A.33.33,0,0,0,70,216l0-.12,4.2,1.7a.35.35,0,0,0,.42-.14l.11,0-.56,1.38-.11,0a.34.34,0,0,0-.21-.38l-2.82-1.15-.41,1,1.75.71a.32.32,0,0,0,.23,0,.48.48,0,0,0,.19-.15l.11,0-.55,1.34-.12,0a.32.32,0,0,0-.2-.4l-1.75-.71Z" transform="translate(0)"/><path class="d" d="M80.61,220.69l-1,3.58a.29.29,0,0,0,0,.22.45.45,0,0,0,.18.17l0,.14-1.72-.5,0-.14a.42.42,0,0,0,.23,0,.27.27,0,0,0,.13-.18l1.45-5a.3.3,0,0,0,0-.22.45.45,0,0,0-.18-.17l0-.14,2.26.66,0,.14a.35.35,0,0,0-.16,0,.25.25,0,0,0-.1.11.42.42,0,0,0,0,.25l.74,3.42,2.46-2.43.09-.09a.42.42,0,0,0,.1-.13.2.2,0,0,0-.15-.29l0-.14,2.22.65,0,.14a.47.47,0,0,0-.24,0,.29.29,0,0,0-.13.18l-1.45,5a.3.3,0,0,0,0,.22.43.43,0,0,0,.18.16l0,.14-1.83-.53,0-.14a.32.32,0,0,0,.37-.22l1-3.58-3.44,3.28Z" transform="translate(0)"/><path class="d" d="M88.85,226.27l3.11.67a.35.35,0,0,0,.4-.21l.11,0-.31,1.45-.12,0a.32.32,0,0,0-.27-.34l-4.56-1,0-.13a.32.32,0,0,0,.35-.26l.86-4a.32.32,0,0,0-.21-.38l0-.13,4.43,1a.35.35,0,0,0,.39-.21l.11,0-.31,1.45-.12,0a.34.34,0,0,0-.27-.34l-3-.64-.23,1.07,1.85.4a.3.3,0,0,0,.23,0,.51.51,0,0,0,.16-.18l.11,0-.3,1.42-.13,0a.32.32,0,0,0-.26-.36l-1.85-.4Z" transform="translate(0)"/><path class="d" d="M98.3,228a.35.35,0,0,0,.38-.24l.12,0-.23,1.47-.12,0a.32.32,0,0,0-.29-.32l-4.24-.66,0-.13a.33.33,0,0,0,.33-.28l.63-4a.32.32,0,0,0-.23-.37l0-.13,1.75.27,0,.13a.46.46,0,0,0-.22.08.29.29,0,0,0-.11.2l-.56,3.6Z" transform="translate(0)"/><path class="d" d="M104.67,228.69a.35.35,0,0,0,.37-.26h.12l-.15,1.48h-.12a.33.33,0,0,0-.31-.31l-4.27-.42v-.13a.33.33,0,0,0,.31-.3l.4-4.08a.32.32,0,0,0-.25-.36v-.13l1.76.17v.13a.47.47,0,0,0-.22.09.29.29,0,0,0-.1.21l-.36,3.62Z" transform="translate(0)"/><path class="d" d="M109.72,230a3.19,3.19,0,0,1-2.07-.77,2.58,2.58,0,0,1,.14-3.82,3.49,3.49,0,0,1,4.18.16,2.57,2.57,0,0,1-.15,3.82,3.17,3.17,0,0,1-2.11.62m.16-4.27a1.69,1.69,0,0,0-1.24.42,1.72,1.72,0,0,0-.09,2.39,1.7,1.7,0,0,0,1.2.51,1.67,1.67,0,0,0,1.23-.43,1.71,1.71,0,0,0,.09-2.39,1.69,1.69,0,0,0-1.2-.51" transform="translate(0)"/><path class="d" d="M119.6,229.4c0,.16.11.27.31.3v.15L118,230v-.15a.45.45,0,0,0,.2-.12.29.29,0,0,0,.06-.21L118,224.3a.31.31,0,0,0-.08-.21.43.43,0,0,0-.22-.1v-.15l3.81-.23a6.09,6.09,0,0,1,1,0,1.72,1.72,0,0,1,.75.28,1.58,1.58,0,0,1,.53.6,1.9,1.9,0,0,1,.21.78,2,2,0,0,1-.11.81,1.48,1.48,0,0,1-.46.65,1.87,1.87,0,0,1-.74.36,5.56,5.56,0,0,1-1,.14l-2.2.13Zm1.86-3.13a1.84,1.84,0,0,0,.85-.22.66.66,0,0,0,.29-.66.67.67,0,0,0-.32-.62,1.58,1.58,0,0,0-.81-.12h-.1l-2,.12.09,1.62Z" transform="translate(0)"/><path class="d" d="M127.78,227.93l-.17.48a1,1,0,0,0-.07.43.22.22,0,0,0,.11.16.49.49,0,0,0,.21.07l0,.12-1.83.24,0-.12a.44.44,0,0,0,.24-.16,1.55,1.55,0,0,0,.15-.31l1.34-3.91a1.53,1.53,0,0,0,0-.16.53.53,0,0,0,0-.2.25.25,0,0,0-.09-.17.55.55,0,0,0-.2-.09l0-.12,1.94-.25,0,.12a.49.49,0,0,0-.16.13.24.24,0,0,0-.05.17.76.76,0,0,0,0,.19.87.87,0,0,0,.11.19l2.34,3.32a3.16,3.16,0,0,0,.23.29.48.48,0,0,0,.36.14l0,.12-2,.26,0-.12a.64.64,0,0,0,.18-.09.2.2,0,0,0,.07-.21.88.88,0,0,0-.19-.41l-.31-.4Zm.81-2.44-.56,1.7,1.58-.2Z" transform="translate(0)"/><path class="d" d="M138.09,226.58a.35.35,0,0,0,.28-.35l.12,0,.28,1.46-.12,0a.32.32,0,0,0-.39-.2l-4.21.82,0-.13a.32.32,0,0,0,.22-.38l-.78-4a.33.33,0,0,0-.34-.27l0-.13,1.74-.34,0,.13a.45.45,0,0,0-.18.15.29.29,0,0,0,0,.22l.69,3.57Z" transform="translate(0)"/><path class="d" d="M141.33,224.55l.43,1.66a.32.32,0,0,0,.12.19.45.45,0,0,0,.24.06l0,.11-1.71.44,0-.11a.33.33,0,0,0,.19-.4l-1-4a.32.32,0,0,0-.36-.25l0-.11,1.71-.44,0,.11a.33.33,0,0,0-.19.39l.37,1.42,2.71-.7-.37-1.42a.32.32,0,0,0-.36-.25l0-.12,1.71-.44,0,.11a.45.45,0,0,0-.17.16.28.28,0,0,0,0,.23l1,4a.31.31,0,0,0,.12.19.46.46,0,0,0,.24.07l0,.11-1.71.44,0-.11a.33.33,0,0,0,.19-.4l-.43-1.66Z" transform="translate(0)"/><path class="d" d="M148.81,223.75l3-1a.35.35,0,0,0,.23-.38l.11,0,.46,1.41-.11,0a.33.33,0,0,0-.41-.16l-4.44,1.45,0-.12a.33.33,0,0,0,.17-.4l-1.27-3.9a.33.33,0,0,0-.37-.22l0-.12,4.31-1.4a.35.35,0,0,0,.23-.39l.11,0,.46,1.41-.11,0a.34.34,0,0,0-.41-.16l-2.89.94.34,1,1.8-.59a.31.31,0,0,0,.19-.14.49.49,0,0,0,0-.24l.11,0,.45,1.38-.12,0a.33.33,0,0,0-.4-.18l-1.8.59Z" transform="translate(0)"/><path class="d" d="M156.93,221.33a.35.35,0,0,0,.39.21l0,.11-1.65.65,0-.11a.34.34,0,0,0,.14-.42l-1.33-3.38-1.37.54a.34.34,0,0,0-.22.37l-.11,0-.54-1.38.11,0a.53.53,0,0,0,.19.17.29.29,0,0,0,.23,0l3.87-1.52a.33.33,0,0,0,.2-.4l.12,0,.55,1.38-.12,0a.32.32,0,0,0-.4-.13l-1.37.54Z" transform="translate(0)"/><path class="d" d="M161.72,218.42c0,.16,0,.33,0,.51a1,1,0,0,0,.06.43.21.21,0,0,0,.15.12.58.58,0,0,0,.22,0l.05.11-1.67.78,0-.11a.43.43,0,0,0,.18-.22,1.35,1.35,0,0,0,0-.34l.08-4.13a1.27,1.27,0,0,0,0-.17.49.49,0,0,0-.06-.2.23.23,0,0,0-.14-.13.53.53,0,0,0-.22,0l-.05-.11,1.77-.83.05.11a.47.47,0,0,0-.11.17.23.23,0,0,0,0,.18.75.75,0,0,0,.1.16,1,1,0,0,0,.16.15l3.25,2.45.3.21a.51.51,0,0,0,.38,0l.05.11-1.85.87-.05-.11a.6.6,0,0,0,.15-.14.21.21,0,0,0,0-.22.85.85,0,0,0-.3-.33l-.41-.29Zm0-2.57,0,1.79,1.44-.68Z" transform="translate(0)"/><path class="d" d="M176.42,209.83l-1.5-2.3a111.4,111.4,0,1,0-123-1l-1.54,2.28a114.15,114.15,0,1,1,126.08,1" transform="translate(0)"/><path class="d" d="M117.35,25.1h0" transform="translate(0)"/><path class="d" d="M101.45,201.81a25.61,25.61,0,0,0,13.27,1,32.54,32.54,0,0,1-4.23.28,30.7,30.7,0,0,1-9-1.32" transform="translate(0)"/><path class="d" d="M110.74,25.11h0" transform="translate(0)"/><path class="d" d="M83.68,32.57a65.52,65.52,0,0,0-27,26.74c4.63-7.8,13.24-19.26,27-26.74" transform="translate(0)"/><path class="d" d="M174.47,65.36a65.45,65.45,0,0,0-38.39-36.55c23,8.43,34.6,28.63,38.39,36.55" transform="translate(0)"/><path class="d" d="M114.87,43.47c39.26,0,58.07,21.47,60.7,24.73l.33.43s-.46-1.23-1.44-3.27c-3.79-7.92-15.4-28.12-38.39-36.55a62.31,62.31,0,0,0-18.48-3.7h-.26c-1.05,0-2.12-.08-3.2-.08s-2.21,0-3.28.08h-.12a62.11,62.11,0,0,0-27.07,7.46c-13.75,7.49-22.36,18.94-27,26.74a61.46,61.46,0,0,0-4.3,8.49s.28-.34.83-.92c4.15-4.43,24.12-23.41,61.65-23.41" transform="translate(0)"/><path class="d" d="M143.7,172.85S131,189.76,110.42,189.76s-31.63-16.33-31.63-16.33c0,3.18,3.11,14.19,11.42,21.86a29,29,0,0,0,11.24,6.51,30.71,30.71,0,0,0,9,1.32,32.61,32.61,0,0,0,4.23-.28,29.4,29.4,0,0,0,17.16-8.49c9.06-8.94,11.82-21.5,11.82-21.5" transform="translate(0)"/><path class="d" d="M68.27,105.33c-9.69,4.12-19-9.28-19-9.28l.16,4.61,0,1.37.11.09c11.07,9.56,18.65,3.21,18.65,3.21" transform="translate(0)"/><path class="d" d="M67,109.87c-12.07,6.39-16.29-2.06-16.29-2.06l.1,3,.06,1.81.3.24c8.77,7.26,15.83-3,15.83-3" transform="translate(0)"/><path class="d" d="M65.69,119.15c-10.52,5.57-13,0-13,0l.25,1.94.39,3a3.12,3.12,0,0,0,.35.08c4.61,1.19,12.07-5.07,12.07-5.07" transform="translate(0)"/><path class="d" d="M178.42,102l.47-6.24s-9.54,13.66-19.23,9.54c0,0,7.63,6.39,18.76-3.3" transform="translate(0)"/><path class="d" d="M160.9,109.87s6.72,10.27,15.51,2.91l.24-.2.2-1.74.34-3s-4.23,8.45-16.29,2.06" transform="translate(0)"/><path class="d" d="M161.15,119.15s7.56,6.35,12.16,5l.25-.06.25-1.6.54-3.47s-2.69,5.64-13.21.08" transform="translate(0)"/><path class="d" d="M114.53,94.85c8.13-.86,10.7-15,22.25-15.41,10.56-.39,20,6.42,26.42,9.63s16-.64,16-.64-10.36-1.5-14.91-4.49-10.36-13.48-26.93-13.48S114.53,82,114.53,82h-1S107.3,70.45,90.73,70.45,68.36,80.94,63.8,83.93s-14.91,4.49-14.91,4.49,9.53,3.85,15.95.64S80.7,79,91.26,79.44c11.56.43,14.12,14.55,22.26,15.41Z" transform="translate(0)"/><path class="d" d="M103.38,95S96.57,87,89,87s-11.44,7.12-15.47,9.28C69,98.7,66.72,97.81,63.32,97.81c0,0,5.17,2.73,9.43,1.08,4.8-1.85,10.52-7.73,16.86-8.35,5.08-.5,4.64,0,13.76,4.48" transform="translate(0)"/><path class="d" d="M125.49,95s6.8-8,14.38-8,11.44,7.12,15.47,9.28c4.53,2.44,6.8,1.55,10.21,1.55,0,0-5.17,2.73-9.44,1.08-4.79-1.85-10.52-7.73-16.86-8.35-5.08-.5-4.64,0-13.76,4.48" transform="translate(0)"/><path class="d" d="M103.69,97.81s-5.88-4.95-12.37-4.95-12.68,4-17.47,6.8c0,0,12.83-6.5,29.85-1.85" transform="translate(0)"/><path class="d" d="M124.62,97.81s5.88-4.95,12.37-4.95,12.68,4,17.48,6.8c0,0-12.84-6.5-29.85-1.85" transform="translate(0)"/><path class="d" d="M113.58,95.95c4.95,0,15.78,36.66,10.67,41.6s-16.47,5.8-22.58-.31c-4-4,6.19-41.3,11.91-41.3" transform="translate(0)"/><path class="d" d="M125.65,111.26s6.19-13.61,21.19-6.34,13.53,23.28,10.67,26.14S145,133.84,145,126.26s-1.7-21.19-19.33-15" transform="translate(0)"/><path class="d" d="M101.2,111.26S95,97.65,80,104.92,66.48,128.2,69.34,131.06s12.53,2.78,12.53-4.8,1.7-21.19,19.33-15" transform="translate(0)"/><path class="d" d="M146.3,168.19c-6.79.19-7.57-9.12-7.57-17.08s-8.34-5.82-15.33-4.66A77.22,77.22,0,0,1,112,147.62h-.2a77.25,77.25,0,0,1-11.45-1.16c-7-1.16-15.33-3.3-15.33,4.66s-.78,17.27-7.57,17.08S61.31,149,61.31,149l8.54,19.21s4.85,5.24,8,5.24,6.4-2.91,8.54-8c0,0,9.51,4.66,25.42,4.66h.2c15.91,0,25.42-4.66,25.42-4.66,2.14,5,5.43,8,8.54,8s7.58-5.41,7.58-5.41l10.05-18.56S153.09,168,146.3,168.19m-9.4-11.68s-11.64,7.18-24.65,7.18h-.82c-13,0-24.65-7.18-24.65-7.18s-.3-12.73,6.47-7.31,18.18,5.43,18.18,5.43h.82s11.41,0,18.18-5.43,6.47,7.31,6.47,7.31" transform="translate(0)"/></g></g></svg>