<svg xmlns="http://www.w3.org/2000/svg" viewBox="0 0 230.06 230"><defs><style>.a{fill:#a6aebf;}</style></defs><title>logo-boxcar</title><path class="a" d="M230.06,115A115,115,0,0,1,114.72,230C51.53,229.91-3.12,177.82.14,108.67,2.84,51.24,51.25-3.11,121.26.14,180.29,2.88,229.77,51.48,230.06,115ZM115,3.88C52.56,4.47,4,54.27,4,115.34,4.07,146,15.25,172.48,37.22,194c24.32,23.8,53.77,34.35,87.62,31.54,27.54-2.28,51.22-13.64,70.23-33.68,22.84-24.08,33-53,30.58-86.19C221.7,52.3,176.44,4.24,115,3.88Z"/><path class="a" d="M115,221.36C57.19,221.29,5.75,173.92,8.86,108.79,11.33,57,55.51,5.6,121.17,8.87c53.46,2.66,100,46.44,100.17,106.15C221.54,174.23,173.5,221.34,115,221.36ZM40.43,94.59c-.48,2.9-.45,3,2.47,3H184.24a38.73,38.73,0,0,0,4.6-.07c.49-.06,1.28-1,1.22-1.36-.09-.61-.76-1.18-1.29-1.63-.22-.19-.74,0-1.12,0H42.85C42,94.47,41.21,94.55,40.43,94.59ZM40.82,128H190c.7-2.48-.85-2.26-2.28-2.26l-70.4,0-74.08,0C41.93,125.75,40.27,125.4,40.82,128Zm74.61,15.21H201a5.17,5.17,0,0,0,1.6,0,4.61,4.61,0,0,0,1.21-.94c-.37-.29-.7-.73-1.12-.83a7.69,7.69,0,0,0-1.83,0H29.46a5.86,5.86,0,0,0-1.6.05c-.33.1-.78.53-.79.83a1.23,1.23,0,0,0,.71.91,5.17,5.17,0,0,0,1.6.07Zm0-54.33q42.69,0,85.38-.05c1,0,2.61,1,2.89-.95a6.9,6.9,0,0,0-3-.88q-85.61-.08-171.21-.06A4,4,0,0,0,28.1,87a4.43,4.43,0,0,0-1.08.86c.39.34.74.83,1.19,1a6.56,6.56,0,0,0,1.83,0Zm78.39-27.16c.19-2.41-1.32-1.87-2.32-1.87q-38.9,0-77.8,0-37.4,0-74.81.05a6.62,6.62,0,0,0-2.21.9c.72.32,1.44.65,2.17.93a2,2,0,0,0,.69,0H193.81Zm0,108.65c.18-2.63-1.62-1.84-2.67-1.85q-75.83-.05-151.66,0c-.92,0-2.52-.92-2.67,1a5.07,5.07,0,0,0,2.61.8q75.95.06,151.89,0ZM43.53,99.69l.56.59H186.41c.51-2.45-1.26-1.71-2.24-1.71q-68.79,0-137.59,0a4.59,4.59,0,0,0-1.6,0A6.65,6.65,0,0,0,43.53,99.69Zm0,23.91.55.74H184c.31,0,.7.12.9,0a13.6,13.6,0,0,0,1.4-1.28l-.48-.55H45.91c-.31,0-.68-.11-.91,0A14,14,0,0,0,43.53,123.6Zm117,6.26H71.42c-.38,0-.85-.13-1.13,0a1.91,1.91,0,0,0-.82,1.06c0,.19.5.68.84.76a8.47,8.47,0,0,0,1.83.05H158.9C160,131.76,161.22,131.89,160.56,129.85ZM49.84,73c2.25-2.94,1.51-6.22-1.62-6.6a69.18,69.18,0,0,0-8.39-.07V80.61c2.44,0,4.73,0,7,0,2.11,0,3.86-.44,4.87-2.57S51.4,74.49,49.84,73Zm36.41,82.33a7.37,7.37,0,0,0-7.44-7.55A7.46,7.46,0,0,0,71,155.3a7.32,7.32,0,0,0,7.48,7.57C83.06,162.77,86.21,159.89,86.25,155.36Zm96.09-79.15c2.7-.9,3.15,1.25,3.84,2.54,1.24,2.29,2.93,2.06,5.08,1.59l-3.1-4.69a10.21,10.21,0,0,0,1.54-1.24c1.16-1.42,2-3.14,1-4.81-.81-1.3-2.16-2.87-3.49-3.12-2.64-.49-5.44-.14-8.3-.14V80.48h3.43ZM81.18,73.52c.44-4.29-3.39-7.52-7.36-7.64a7.79,7.79,0,0,0-7.9,7.54A7.68,7.68,0,0,0,73.44,81C77.35,81.07,81.5,77.95,81.18,73.52Zm65.11,88.8c2.08.47,3.64.49,4.3-1.82a2.24,2.24,0,0,1,1.59-1.12,12.11,12.11,0,0,1,3.44,0c.54.07,1.36.53,1.47,1,.62,2.44,2.28,2.48,4.51,2-2-4.64-3.9-9.25-6-13.79-.54-1.2-3-1-3.6.25C150.1,153.26,148.23,157.75,146.3,162.32Zm-15.57-51.06,9.12-8-1.31-1.46-9.37,8.07-9.57-8.21-1.14,1.65,9.13,7.93-9.43,8.18,1.47,1.39,9.51-8.2,9.39,8c1.51-1,1.1-1.72.11-2.55C136,115.86,133.43,113.6,130.72,111.26Zm-19.62-9.58L101.55,110l-9.62-8.23-1.26,1.52,9.28,8.06-9.08,7.94,1.29,1.49,9.35-8.06,9.36,8,1.23-1.56-9-7.83,9.21-8Zm53.54-21.3c-2-4.62-3.81-9-5.77-13.38-.6-1.33-3.11-1.35-3.7,0-2,4.44-3.87,8.93-5.75,13.31,3.19,1.44,4-.68,4.65-2.9a42,42,0,0,1,4.53.05,2.21,2.21,0,0,1,1.63,1.11C160.86,80.93,162.48,80.84,164.65,80.38ZM56.4,149.79c-2.45-1.89-4.89-2.54-7.65-1.51a4.14,4.14,0,0,0-2.86,4.05,3.77,3.77,0,0,0,2.74,3.8c1.21.43,2.47.75,3.63,1.29.5.23.8.89,1.19,1.36-.54.33-1.13,1-1.6.93-1.59-.27-3.14-.8-4.89-1.28L45,161c2.4.74,4.34,1.63,6.37,1.88a4.75,4.75,0,0,0,5.35-3.64c.37-2.79-.78-4.39-3.84-5.31a16.72,16.72,0,0,1-2.62-.76,2,2,0,0,1-.8-1.36c0-.2.78-.76,1.14-.71,1.4.18,2.77.55,4.32.88ZM102,76.1c3.51,5.09,3.51,5.09,6.72,4.07-1-1.53-2-3.12-3.13-4.52-1.35-1.63-1.6-3,0-4.7a33.08,33.08,0,0,0,2.92-4.36c-4.06-1.55-4.73,1.89-6.43,4-1.72-2.13-2.48-5.66-6.55-4l4.47,6.71-4.68,7C99.61,82.07,100.06,78,102,76.1Zm32,0c-2.82,2-4.64,2.2-6.37.64a4.76,4.76,0,0,1-.8-5.67c1.34-2.14,3-2.3,7.23-.69l1.86-2.09a7.84,7.84,0,0,0-11.49.22,7.71,7.71,0,0,0,.82,10.67A7.41,7.41,0,0,0,136,78.06Zm-22.09,82.06c-3.22,1.94-5.09,2-6.73.15a5,5,0,0,1-.16-5.91c1.45-1.81,3.26-1.84,6.51-.18l2.4-1.79c-3.52-3.46-8.42-3.47-11.41-.28a7.63,7.63,0,0,0,.33,10.7c3.19,2.94,7.87,2.63,11.06-.89ZM85.53,110.42c.56-1.7-.19-2.06-1.66-2.06-11.58.05-23.17,0-34.75.12-.69,0-1.37.69-2.06,1.06.72.33,1.43.94,2.15.94,11.51.06,23,0,34.53,0C84.34,110.52,84.94,110.45,85.53,110.42Zm59.28.11c12.43,0,24.76,0,37.09,0,.45,0,.89-.69,1.33-1.05-.58-.33-1.17-.94-1.75-.94-11.65-.07-23.3-.05-34.94-.1C145.15,108.37,144.21,108.56,144.81,110.52Zm0,4.6c-.73,2.31.76,2.07,1.94,2.07q17.22,0,34.44,0a15.38,15.38,0,0,0,1.95-.24l.31-.71c-.6-.37-1.19-1.06-1.79-1.07C169.45,115.1,157.21,115.12,144.84,115.12Zm-59.38-11.5.54-.83c-.6-.4-1.2-1.15-1.8-1.15q-17.82-.09-35.65,0c-.49,0-1,.59-1.48.9.46.35.92,1,1.38,1C60.78,103.63,73.12,103.61,85.45,103.61Zm.07,11.66a3.56,3.56,0,0,0-.67-.13c-12,0-24.07,0-36.11,0-.56,0-1.12.61-1.68.94.61.36,1.22,1,1.84,1,11.73.06,23.46,0,35.19,0C85.59,117.19,86.06,116.69,85.53,115.27Zm59.26-11.86a1.63,1.63,0,0,0,.47.17c12.17,0,24.33,0,36.5,0,.5,0,1-.58,1.49-.89-.55-.36-1.09-1-1.64-1-11.78-.08-23.57-.07-35.35-.11C144.79,101.53,144.3,102,144.79,103.41Zm.07,17.24h31.42c1.84,0,3.68.07,5.52,0,.5,0,1-.63,1.43-1-.49-.33-1-.87-1.48-1a19.15,19.15,0,0,0-3,0q-16,0-32,0C145.66,118.62,144.1,118.33,144.86,120.65ZM85.54,105.07c-.48,0-.86-.07-1.23-.07H48.95c-.31,0-.68-.11-.9,0-.38.24-.9.63-.91,1a1.31,1.31,0,0,0,.9.92,31.41,31.41,0,0,0,3.44.07H83.62C84.74,107,86.15,107.27,85.54,105.07ZM47.22,111.8c-.52,2.25.89,1.94,2,1.94H84.09a13.37,13.37,0,0,0,1.49-.16c.58-2.12-.86-1.79-2-1.79H47.22Zm97.59,1.94h10.65c8.66,0,17.31,0,26,0,.6,0,1.2-.53,1.8-.81-.61-.37-1.19-1-1.82-1.06-1.83-.14-3.67-.05-5.51-.05q-14.59,0-29.19,0C145.63,111.79,144.17,111.47,144.82,113.74Zm-59.39,6.91c.86-2.25-.6-2-1.81-2l-31.25,0c-1.38,0-2.76-.06-4.13.07-.41,0-.78.63-1.16,1a5.59,5.59,0,0,0,1.24.94,3.92,3.92,0,0,0,1.37,0H85.42ZM144.8,105c-.61,2.29.83,2,1.93,2q17.25,0,34.5,0c.66,0,1.32-.12,1.91-.18.36-2-.86-1.82-1.95-1.82H144.8Zm31.15,57.37h10.13c.39-3,.39-3-2.34-3h-4.65V148.27h-3.14ZM53.06,138.67a4.24,4.24,0,0,0,4.4-4.27A4.53,4.53,0,0,0,53,130a4.8,4.8,0,0,0-4.46,4.42A4.51,4.51,0,0,0,53.06,138.67Zm109.71-4.29a4.36,4.36,0,0,0,4.39,4.3,4.31,4.31,0,0,0,4.46-4.24,4.42,4.42,0,0,0-8.84-.06Zm14.6,4.29a4.44,4.44,0,0,0,4.55-4.18,4.8,4.8,0,0,0-4.39-4.49,4.44,4.44,0,0,0-4.44,4.33A4.17,4.17,0,0,0,177.38,138.67Zm-114.2,0a4.46,4.46,0,0,0,4.58-4.15A4.77,4.77,0,0,0,63.43,130,4.45,4.45,0,0,0,59,134.29,4.18,4.18,0,0,0,63.17,138.68Zm65.51,9.49v14.2h3v-14.2Zm-12.11-46.57-.76-.61c-.47.57-1.33,1.13-1.34,1.71-.1,5.72-.1,11.45,0,17.17,0,.49.74,1,1.14,1.47.33-.48.94-1,.94-1.44C116.59,113.8,116.57,107.71,116.57,101.61Zm-72-.53-.79.54c0,6.1,0,12.21,0,18.31,0,.47.64.94,1,1.41.32-.48.92-1,.93-1.44.06-5.73.07-11.46,0-17.19C45.75,102.15,45,101.62,44.61,101.07Zm44.33.44c-1.49-.45-2,0-2,1.33,0,5.65,0,11.3.06,17,0,.51.55,1,.84,1.52.36-.52,1-1,1-1.55C89,113.74,88.94,107.71,88.94,101.51Zm97.14.08-.6-.45c-.46.46-1.31.92-1.32,1.39-.09,5.88-.07,11.75,0,17.63,0,.4.64.79,1,1.18.31-.41.9-.82.9-1.24C186.1,113.93,186.08,107.76,186.08,101.59Zm-43.92-.49-.75.54c0,6.12,0,12.24,0,18.37,0,.44.54.88.82,1.32.33-.46,1-.92,1-1.39q.1-8.62,0-17.24C143.22,102.17,142.53,101.64,142.16,101.11Z"/><path class="a" d="M43.05,74.93a22.84,22.84,0,0,1,3.89.07c.61.11,1.11.9,1.66,1.38-.6.45-1.14,1.17-1.8,1.29a21.89,21.89,0,0,1-3.75.06Z"/><path class="a" d="M43,71.85V69.19a18.17,18.17,0,0,1,3.6.07c.52.11.88,1,1.32,1.53-.52.35-1,.92-1.56,1A22.47,22.47,0,0,1,43,71.85Z"/><path class="a" d="M74.58,155.27c0-2.62,1.49-4.21,4-4.24a4.19,4.19,0,0,1,4.33,4.29,4.42,4.42,0,0,1-4.11,4.37A4.13,4.13,0,0,1,74.58,155.27Z"/><path class="a" d="M182.48,73.13V69.4c3.74-.42,4.91,0,5,1.68S186.52,73.36,182.48,73.13Z"/><path class="a" d="M69.61,73.22a4,4,0,0,1,4-4.12,4.44,4.44,0,0,1,4.29,4.48,4.33,4.33,0,0,1-4.26,4.26C71.21,77.78,69.56,75.88,69.61,73.22Z"/><path class="a" d="M153.86,152.3l1.63,3.91h-3.16Z"/><path class="a" d="M156.94,70.36l1.66,4.11h-3.26Z"/></svg>