<svg xmlns="http://www.w3.org/2000/svg" viewBox="0 0 177.47 110"><title>logo-stacked</title><g id="Layer_2" data-name="Layer 2"><g id="Layer_1-2" data-name="Layer 1"><path d="M118.66,97h-3.55V93.58h11.07V97h-3.6v12.45h-3.92Zm3,11.7V97h-2v11.7Z" style="fill:#1a3763"/><path d="M136.53,93.05a8.47,8.47,0,1,1-8.55,8.47A8.3,8.3,0,0,1,136.53,93.05Zm0,16.15a7.41,7.41,0,0,0,7.41-6h-2a5.63,5.63,0,0,1-10.75,0h-2A7.34,7.34,0,0,0,136.53,109.21Zm0-2.89a4.8,4.8,0,1,0-4.61-4.79A4.53,4.53,0,0,0,136.53,106.32Z" style="fill:#1a3763"/><path d="M148.68,93.58h3.87v10c0,2.12,1,2.86,2.36,2.86s2.41-.74,2.41-2.86v-10h3.89v10.54c0,3.76-2.81,5.88-6.3,5.88s-6.22-2.22-6.22-5.88ZM151.6,100V94.32h-1.93V100Zm8.63,0V94.32h-2V100Z" style="fill:#1a3763"/><path d="M164.65,93.58h6.65c3.42,0,5.64,2.07,5.64,5.06a4.59,4.59,0,0,1-3.76,4.93l4.29,5.91h-4.87l-4.05-5.93v5.93h-3.89Zm2.91,15.15V94.32h-1.93v14.4Zm4.1-8.26a1.81,1.81,0,0,0-.11-3.57h-3v3.57Z" style="fill:#1a3763"/><path d="M10.1,72.25a8.87,8.87,0,0,1,6.81,2.91L14.23,77.7a5.9,5.9,0,0,0-4.13-1.77,4.79,4.79,0,0,0,0,9.59,5.9,5.9,0,0,0,4.13-1.77l2.6,2.54A9,9,0,0,1,10.1,89.2a8.47,8.47,0,1,1,0-16.95Z" style="fill:#ecb523"/><path d="M19.85,72.78h6.65c3.42,0,5.64,2.07,5.64,5.06a4.59,4.59,0,0,1-3.76,4.93l4.29,5.91H27.79l-4.05-5.93v5.93H19.85Zm7,6.88a1.81,1.81,0,0,0-.11-3.57h-3v3.57Z" style="fill:#ecb523"/><path d="M42,72.25h.69l7.79,16.42H46.27L45.48,87H39.2l-.77,1.64H34.25Zm2.17,12-1.83-4h-.05l-1.85,4Z" style="fill:#ecb523"/><path d="M52.68,72.78H62.93v3.44H56.57v3.39h5.85V83H56.57v5.67H52.68Z" style="fill:#ecb523"/><path d="M69.47,76.22H65.92V72.78H77v3.44h-3.6V88.67H69.47Z" style="fill:#ecb523"/><path d="M21.72,39l1.55-1.55a1.38,1.38,0,0,0-1.95-1.95L19.77,37l-1.55-1.55a1.38,1.38,0,1,0-1.95,1.95L17.83,39l-1.55,1.55a1.38,1.38,0,0,0,1.95,1.95l1.55-1.55,1.55,1.55a1.38,1.38,0,0,0,1.95-1.95Z" style="fill:#ecb523"/><path d="M38.4,8.55,39.94,7A1.38,1.38,0,0,0,38,5.06L36.45,6.61,34.9,5.06A1.38,1.38,0,0,0,33,7l1.55,1.55L33,10.1A1.38,1.38,0,0,0,34.9,12l1.55-1.55L38,12a1.38,1.38,0,0,0,1.95-1.95Z" style="fill:#ecb523"/><path d="M38.12,56.17l1.47-1.47a1.31,1.31,0,0,0,0-1.85h0a1.31,1.31,0,0,0-1.85,0l-1.47,1.47-1.47-1.47a1.31,1.31,0,0,0-1.85,0h0a1.31,1.31,0,0,0,0,1.85l1.47,1.47-1.47,1.47a1.31,1.31,0,1,0,1.85,1.85L36.27,58l1.47,1.47a1.31,1.31,0,1,0,1.85-1.85Z" style="fill:#ecb523"/><path d="M57.14,24.2l1.55-1.55a1.38,1.38,0,0,0-1.95-1.95l-1.55,1.55-1.55-1.55a1.38,1.38,0,1,0-1.95,1.95l1.55,1.55L51.7,25.75a1.38,1.38,0,1,0,1.95,1.95l1.55-1.55,1.55,1.55a1.38,1.38,0,1,0,1.95-1.95Z" style="fill:#ecb523"/><path d="M61,30.18H48.49V12.08a1.38,1.38,0,0,0-2.75,0v18.1H30.26V1.38a1.38,1.38,0,0,0-2.75,0v28.8H12V16.89a1.38,1.38,0,1,0-2.75,0V30.18H1.38a1.38,1.38,0,1,0,0,2.75H9.28V51.11a1.38,1.38,0,0,0,2.75,0V32.93H27.51v28.8a1.38,1.38,0,0,0,2.75,0V32.93H45.74v4.94a1.38,1.38,0,1,0,2.75,0V32.93H61a1.38,1.38,0,1,0,0-2.75Z" style="fill:#1a3763"/><path d="M95.48,72.25a8.87,8.87,0,0,1,6.81,2.91L99.61,77.7a5.9,5.9,0,0,0-4.13-1.77,4.79,4.79,0,0,0,0,9.59,5.9,5.9,0,0,0,4.13-1.77l2.6,2.54a9,9,0,0,1-6.73,2.91,8.47,8.47,0,1,1,0-16.95Z" style="fill:#ecb523"/><path d="M113.14,72.25a8.47,8.47,0,1,1-8.55,8.47A8.3,8.3,0,0,1,113.14,72.25Zm0,13.27a4.8,4.8,0,1,0-4.61-4.79A4.53,4.53,0,0,0,113.14,85.51Z" style="fill:#ecb523"/><path d="M124.39,72.78h10.25v3.44h-6.36v3.39h5.85V83h-5.85v5.67h-3.89Z" style="fill:#ecb523"/><path d="M137.84,72.78h10.25v3.44h-6.36v3.39h5.85V83h-5.85v5.67h-3.89Z" style="fill:#ecb523"/><path d="M151.3,72.78h10.51v3.44h-6.62v2.86h6.12v3.39h-6.12v2.86h6.91v3.34H151.3Z" style="fill:#ecb523"/><path d="M165.57,72.78h10.51v3.44h-6.62v2.86h6.12v3.39h-6.12v2.86h6.91v3.34h-10.8Z" style="fill:#ecb523"/><path d="M106.53,61.75h-1.84V60h5.75v1.79h-1.87v6.46h-2Z" style="fill:#1a3763"/><path d="M117.69,59.69a4.4,4.4,0,1,1-4.44,4.4A4.31,4.31,0,0,1,117.69,59.69Zm0,6.89a2.49,2.49,0,1,0-2.39-2.49A2.35,2.35,0,0,0,117.69,66.58Z" style="fill:#1a3763"/><path d="M125.87,60h3.45a2.64,2.64,0,0,1,2.93,2.63,2.38,2.38,0,0,1-2,2.56l2.23,3.07H130l-2.1-3.08v3.08h-2Zm3.65,3.58a.94.94,0,0,0-.06-1.86h-1.57v1.86Z" style="fill:#1a3763"/><path d="M140.11,59.69a4.4,4.4,0,1,1-4.44,4.4A4.31,4.31,0,0,1,140.11,59.69Zm0,6.89a2.49,2.49,0,1,0-2.39-2.49A2.35,2.35,0,0,0,140.11,66.58Z" style="fill:#1a3763"/><path d="M148.29,60h2.13l3.21,4.9V60h2v8.25h-2.1l-3.22-4.91v4.91h-2Z" style="fill:#1a3763"/><path d="M160.75,61.75h-1.84V60h5.75v1.79h-1.87v6.46h-2Z" style="fill:#1a3763"/><path d="M171.91,59.69a4.4,4.4,0,1,1-4.44,4.4A4.31,4.31,0,0,1,171.91,59.69Zm0,6.89a2.49,2.49,0,1,0-2.39-2.49A2.35,2.35,0,0,0,171.91,66.58Z" style="fill:#1a3763"/></g></g></svg>