<svg xmlns="http://www.w3.org/2000/svg" viewBox="0 0 202.14 230"><defs><style>.a,.b{fill:#a6aebf;}.a{fill-rule:evenodd;}</style></defs><title>logo-voodoo</title><path class="a" d="M101,.06a30.52,30.52,0,0,1,4.33,0c2.21.32,4.46.14,6.66.66a29.3,29.3,0,0,0,3.69.43,86.88,86.88,0,0,1,14.14,2.87,103.82,103.82,0,0,1,13.25,4.73,97.29,97.29,0,0,1,17.48,9.76c2.13,1.49,4.09,3.21,6.19,4.75a71,71,0,0,1,9.48,8.79,92.92,92.92,0,0,1,6.89,8.09,96.71,96.71,0,0,1,6.77,10.19c2.06,3.66,3.72,7.56,5.45,11.4a57,57,0,0,1,2.27,6.07,89.81,89.81,0,0,1,3.05,12.39c.53,3.18.93,6.37,1.19,9.59.23,2.82.28,5.62.27,8.42a86,86,0,0,1-.69,9.1,74.38,74.38,0,0,1-2.33,12.56c-1,3.32-2,6.61-3.21,9.85-1.08,2.89-2.34,5.72-3.68,8.51a53.64,53.64,0,0,1-3.45,6.15c-2.2,3.36-4.45,6.7-6.88,9.9-1.8,2.37-3.9,4.53-5.92,6.73-1.23,1.34-2.58,2.58-3.86,3.88a82.32,82.32,0,0,1-9.89,8.21,94.35,94.35,0,0,1-16.95,10,88.65,88.65,0,0,1-15.11,5.56c-2.69.69-5.36,1.46-8.06,2.06-1.93.43-3.9.63-5.86.93l-4.57.71-.38,0c-2.55.13-5.11.31-7.66.37a52.58,52.58,0,0,1-7.54,0c-3.2-.38-6.42-.48-9.61-1-4-.64-7.91-1.32-11.81-2.29a93.31,93.31,0,0,1-12.32-4c-3.33-1.34-6.61-2.84-9.78-4.5a101.36,101.36,0,0,1-28.08-21.64,95.87,95.87,0,0,1-7.93-10.07A90.69,90.69,0,0,1,8,133.83,87.11,87.11,0,0,1,4,123.25c-1.16-3.79-1.87-7.67-2.82-11.49a31.83,31.83,0,0,1-.45-4.07c-.23-2.09-.49-4.18-.72-6.27a12.44,12.44,0,0,1,0-1.32c0-1.89,0-3.77,0-5.66a72.6,72.6,0,0,1,.4-7.28A110.42,110.42,0,0,1,4,69.75,95.74,95.74,0,0,1,11.7,51.49a107.44,107.44,0,0,1,8.57-13,49,49,0,0,1,3.36-3.77c2-2.15,4-4.35,6.06-6.41a92.66,92.66,0,0,1,10.89-9,93.94,93.94,0,0,1,15.51-9.1,102.33,102.33,0,0,1,17.36-6.4c3-.78,6.13-1.43,9.19-2.12A67.59,67.59,0,0,1,89.46.82c2-.24,4-.57,6.08-.7,1.82-.12,3.64,0,5.47,0Zm.13,190.17a65.08,65.08,0,0,0,12.88-.73c2.06-.39,4.21-.38,6.26-.84,4.15-.94,8.29-1.9,12.34-3.24a116.11,116.11,0,0,0,13.89-5.67,74.56,74.56,0,0,0,9-5.2,70.26,70.26,0,0,0,8-5.71c2.18-1.94,4.54-3.68,6.67-5.67,1.78-1.66,3.3-3.59,5-5.32a55.45,55.45,0,0,0,5.83-7c2.07-2.93,4.11-5.89,5.93-9,1.54-2.6,2.79-5.38,4.07-8.13a68.94,68.94,0,0,0,2.78-6.67,80.78,80.78,0,0,0,3.62-13.39c.26-1.65.65-3.27.75-5s.68-3.31.65-5c-.1-5.32.42-10.65-.29-16-.25-1.9-.51-3.8-.74-5.7a65.26,65.26,0,0,0-2.47-11,85.44,85.44,0,0,0-7-16.91,107.43,107.43,0,0,0-6.69-10.7,119.45,119.45,0,0,0-8.73-10.42c-1.3-1.42-2.88-2.58-4.26-3.94a69.63,69.63,0,0,0-6.86-5.74,93.64,93.64,0,0,0-16.09-9.87,97.57,97.57,0,0,0-13.57-5.45A118.46,118.46,0,0,0,119,4.78a69.06,69.06,0,0,0-10.48-1.32,117.06,117.06,0,0,0-16.91.21c-3,.34-5.9.66-8.84,1.14a78.5,78.5,0,0,0-11,2.63,77.16,77.16,0,0,0-11.31,4.12c-3.22,1.6-6.6,2.9-9.7,4.7a93.49,93.49,0,0,0-12.71,8.68C35,27.49,32,30.1,29.12,32.87,28,34,27,35.17,26,36.35c-1.54,1.79-3.14,3.54-4.54,5.44-1.86,2.54-3.63,5.16-5.3,7.82a70,70,0,0,0-4,7.11c-1.48,3.12-2.79,6.34-4,9.57A54.91,54.91,0,0,0,5.65,74a89.73,89.73,0,0,0-2,10.74,61.25,61.25,0,0,0-.68,7.6c.14,4.44-.35,8.89.35,13.33.38,2.39.39,4.83.85,7.2.56,2.9,1.42,5.74,2.16,8.61a78.78,78.78,0,0,0,7.2,17.82,96,96,0,0,0,6.77,10.86,111.06,111.06,0,0,0,8.21,9.88,67.9,67.9,0,0,0,7.9,7.17c2.09,1.65,4.15,3.35,6.31,4.89a72.38,72.38,0,0,0,10.43,6.41c2.51,1.21,4.91,2.66,7.49,3.69,3.83,1.54,7.74,2.92,11.68,4.15a95.62,95.62,0,0,0,9.34,2.3c2.12.43,4.31.49,6.45.84a49,49,0,0,0,8.73.72C98.25,190.22,99.69,190.23,101.14,190.23Z"/><path class="a" d="M101.54,187.11c-2.31,0-3.95,0-5.58,0a40.07,40.07,0,0,1-7.78-.72c-2.43-.44-4.9-.67-7.32-1.19-3-.64-6-1.4-9-2.26a87.35,87.35,0,0,1-16-6.39,111.43,111.43,0,0,1-14.25-9,100.63,100.63,0,0,1-13.85-12.89,70.68,70.68,0,0,1-8.14-10.82,86.43,86.43,0,0,1-8.55-17.46,73.84,73.84,0,0,1-2.51-8.13c-.71-3.19-1.37-6.38-1.88-9.63-1-6.12-.56-12.24-.63-18.36,0-1.65.57-3.29.66-5,.19-3.68,1.3-7.17,2-10.75a29.88,29.88,0,0,1,1.49-5c1.17-3.06,2.32-6.12,3.68-9.11a84.86,84.86,0,0,1,7.92-13.82c1.6-2.28,3.42-4.4,5.12-6.61A88.22,88.22,0,0,1,35.7,31a61.31,61.31,0,0,1,6.75-5.56,97.5,97.5,0,0,1,9-5.95c3.38-1.93,6.91-3.59,10.47-5.17a91.76,91.76,0,0,1,9.55-3.55A81.62,81.62,0,0,1,83.11,7.95c2.81-.46,5.63-.79,8.46-1.14,5.57-.69,11.15-.18,16.72-.29a31.32,31.32,0,0,1,4.76.66c1.17.16,2.34.28,3.51.43A63.1,63.1,0,0,1,127.76,10c4,1.26,8,2.54,11.9,4.09,2.81,1.11,5.43,2.69,8.15,4a69.33,69.33,0,0,1,9.61,6c2.11,1.51,4.14,3.14,6.2,4.73,3.59,2.78,6.56,6.2,9.73,9.41a57.31,57.31,0,0,1,5.2,6.32,87.27,87.27,0,0,1,8.32,13.6,95.52,95.52,0,0,1,5.3,13.43c1.17,3.79,1.88,7.67,2.76,11.51.33,1.44.22,3,.45,4.44.74,4.74.2,9.51.35,14.27a46.67,46.67,0,0,1-.68,6.84,73.3,73.3,0,0,1-1.93,10,71.12,71.12,0,0,1-3.28,10c-1.23,2.9-2.48,5.81-3.94,8.61a99,99,0,0,1-7.75,12.2c-3.7,5.11-8.28,9.36-12.73,13.75a45.33,45.33,0,0,1-5.65,4.54c-3,2.15-6.06,4.3-9.25,6.18-2.87,1.7-5.91,3.11-8.93,4.53-2.06,1-4.22,1.75-6.33,2.62a69.65,69.65,0,0,1-10.78,3.32c-3.06.72-6.15,1.32-9.25,1.87-1.46.26-3,.15-4.45.45C107.49,187.42,104.17,186.9,101.54,187.11ZM84.16,61.46l-.23-.13.14.22.44.32.57,1.66.77,1.14c1.07,2,2.11,4,3.21,6,.15.28.56.42.85.63a9.46,9.46,0,0,0,.63-1c.07-.14,0-.36-.05-.54A3.77,3.77,0,0,0,91,70a7,7,0,0,0,.69.15,1.72,1.72,0,0,0,0-.67c-.41-.91-.85-1.81-1.3-2.7a2.51,2.51,0,0,0-.48-.51,2.59,2.59,0,0,0-.11.88c.21.9.5,1.79.75,2.68A16.66,16.66,0,0,1,89,68.3C88,67,87.1,65.7,86.16,64.4l-.78-1.14-.91-1.35Zm33.48,0-.32.44-.46.68c-1.34,1.92-2.66,3.86-4,5.76a12.36,12.36,0,0,1-1.55,1.5c.11-.48.19-1,.33-1.45s.36-1,.5-1.58c0-.14-.1-.33-.16-.5-.13.11-.3.19-.37.32-.5,1-1,2-1.46,3-.06.13,0,.34,0,.51a5.09,5.09,0,0,0,.68-.11,2.85,2.85,0,0,0,.49-.26,2.88,2.88,0,0,0,0,.92c.23.69.82.81,1.26.29a3,3,0,0,0,.29-.47c1.35-2.36,2.71-4.71,4-7.07a2.25,2.25,0,0,0,.13-.72l.25-.87.48-.28.14-.26Zm.43,4.57a.61.61,0,0,0,.14-.07s0-.07,0-.1l-.11.22-.2.23Zm6.8,2.26.45-.29.18,0,.66-.19c-.06.19-.06.44-.18.57-.35.38-.75.71-1.13,1.06l-.15.18.19-.14c.86-.35,1.73-.68,2.58-1,.69-.3,1.35-.66,2-.94a.77.77,0,0,1,.66.06,1.09,1.09,0,0,1-.16,1.89c-.32.2-.66.36-1,.59-.1.07-.1.28-.14.43a.9.9,0,0,0,.35,0c1.28-.51,2.55-1.05,3.83-1.55a2.11,2.11,0,0,1,.69,0,3.55,3.55,0,0,1-.46.54,4.62,4.62,0,0,1-.66.36c-.93.52-1.87,1-2.78,1.57-.19.11-.3.37-.44.56.22.09.44.19.67.26a2.78,2.78,0,0,0,.65.13c.33-1,1.16-.37,1.73-.55,2.87-.89,5.74-1.78,8.61-2.68.59-.19,1.16-.45,1.76-.65a1.33,1.33,0,0,1,.52.06c-.06.16-.08.36-.19.46a3.71,3.71,0,0,1-.89.69c-2.82,1.35-5.65,2.68-8.47,4a8.21,8.21,0,0,0-1,.53c-.12.08-.16.28-.24.43a1.34,1.34,0,0,0,.53.08c.79-.22,1.56-.48,2.34-.71a13,13,0,0,1,1.28-.3c.11,0,.23.07.35.1,0,.11-.07.28-.15.31-1.85.71-3.39,2.39-5.65,1.81-.16,0-.36.08-.54.13-1.57.42-3.15.83-4.71,1.28a3.09,3.09,0,0,0-.94.52c-.12.09-.13.32-.19.49.16.06.36.2.49.16,1.13-.36,2.25-.77,3.38-1.13.46-.15,1.1-.45,1.41-.27.89.54,1.67.2,2.53,0,1.47-.28,3-.46,4.44-.7l8.36-1.33,1.27-.19c-.37.36-.72.74-1.11,1.08a1,1,0,0,1-.53.17c-2.27.25-4.24,1.42-6.41,2a12.67,12.67,0,0,0-1.73.7c-.1,0-.15.18-.23.27.11.06.21.17.32.17s.49-.09.73-.09c.68,0,1.35,0,2,.05-.64.36-1.28.73-1.93,1.06a1.15,1.15,0,0,1-.73.12c-1-.27-1.62.53-2.4.86-.09,0-.19.26-.16.3a.66.66,0,0,0,.38.28,7.87,7.87,0,0,0,1.13,0l11-.59a2.45,2.45,0,0,1,.75,0c.16,0,.28.21.42.33-.11.13-.21.37-.33.38-2.29.26-4.48,1.24-6.85.84a1.07,1.07,0,0,0-.65.11,4.77,4.77,0,0,1-3.23.46l0-.68-5.2.21a5.29,5.29,0,0,0-1.29.14c-.25.08-.45.37-.66.56a3.28,3.28,0,0,0,.73.4,2.16,2.16,0,0,0,.73,0l5.72-.64c0,.35-.13.8.43.85s1.25.07,1.87.14c.16,0,.31.19.46.29a2.74,2.74,0,0,1-.35.27c-.11.06-.26,0-.35.12a6.26,6.26,0,0,0-.51.49,3,3,0,0,0,.67.23c2.49.23,5,.45,7.46.69.21,0,.41.21.61.33a1.89,1.89,0,0,1-.54.3c-1,.18-2.28,0-3.11.55a4.52,4.52,0,0,1-2.6.69c-.15,0-.29.13-.44.19.14.11.27.27.43.31a9,9,0,0,0,1.11.18c1.73.21,3.47.41,5.2.63.16,0,.3.16.44.25-.14.18-.24.45-.42.51a2.89,2.89,0,0,1-.93.09c-.56,0-1.13,0-1.69,0a3.27,3.27,0,0,0-.71.19,4.33,4.33,0,0,0,.51.43c.21.13.46.2.67.33a.27.27,0,0,1-.11.51c-.69,0-1.38.05-2.07.09-.1,0-.26.11-.27.19s.09.28.17.29a17.53,17.53,0,0,0,2.18.25c.51,0,1-.52,1.53,0-.38.31-.75.62-1.13.92-1.15.9-2.31,1.7-3.93,1.45a5.17,5.17,0,0,0-1.65.3c-.49.1-.17.33-.18.58,0,.63.35.71.73.86,1.11.42,2.24.81,3.35,1.24a2.22,2.22,0,0,1,.53.44c-.21.2-.39.49-.64.57a2.14,2.14,0,0,1-1.11.05c-1.26-.32-2.5-.7-3.74-1.06l0,0a1.92,1.92,0,0,0,.36-.09,5.52,5.52,0,0,0,.48-.28c-.13-.15-.23-.37-.4-.44-2.09-.83-4.19-1.63-6.27-2.47-1.44-.58-3.17-.6-4.1-2.17-.07-.12-.31-.14-.47-.2,0,.22,0,.44,0,.65s.06.34.09.52c-.09,0-.2,0-.27,0-.3-.22-.65-.71-.85-.65-.77.22.15.67-.05,1,0,.05-.08.14-.11.14-1.33-.13-.49.55-.38,1a2.28,2.28,0,0,1,0,.49l-.31-.14-.78-.28c.06.27.13.55.18.83a1.93,1.93,0,0,1,0,.34c-.09,0-.22-.07-.28-.15s-.17-.37-.31-.46a2.1,2.1,0,0,0-.62-.18c0,.22-.13.48-.06.66.2.46.48.88.72,1.32,0,.09,0,.23,0,.34s-.35,0-.43-.09-.35-.52-.54-.77c-.06-.07-.23-.14-.28-.11a.39.39,0,0,0-.17.3c0,.25.14.48.16.73,0,.5-.21.47-.56.28a6,6,0,0,0-.76-.29,7,7,0,0,0,.05.86c0,.18.19.33.22.51a1.62,1.62,0,0,1-.05.48l-.31-.2-1-.67.26,1.19c0,.06.06.13,0,.18a1.16,1.16,0,0,1-.14.3.32.32,0,0,1-.17-.07c-.22-.22-.43-.46-.66-.67-.07-.07-.25-.14-.29-.11a.4.4,0,0,0-.13.31c.05.53.13,1.05.2,1.57l-1-1.06s-.12-.11-.15-.1a2,2,0,0,0-.53.25s.05.23.06.35c0,.34,0,.68,0,1a6.15,6.15,0,0,0-.61-.63.8.8,0,0,0-.47-.1s-.09.21-.08.32.09.46.13.69a2.05,2.05,0,0,1-.52-.31c-.47-.53-.87-.63-1.34,0a6,6,0,0,1-.94.88l-.06.05c-.28,0-.81.1-.81.12.07,1-.27.89-.82.32,0,0-.4.12-.4.2,0,.3.07.61.05.92,0,.15-.15.29-.23.44a2.85,2.85,0,0,1-.31-.39c-.17-.31-.33-.92-.46-.91a4.42,4.42,0,0,0-1.56.45c-.11.06,0,.53,0,.81a3.1,3.1,0,0,1-.14.52,2.25,2.25,0,0,1-.39-.3c-.08-.09-.05-.27-.13-.34a1.67,1.67,0,0,0-.42-.22,1.1,1.1,0,0,0-.1.32c0,.25.07.5.05.75a1.3,1.3,0,0,1-.19.42,3.44,3.44,0,0,1-.33-.43c-.06-.1,0-.25-.08-.36s-.26-.47-.39-.71c-.13.26-.27.51-.39.77,0,.11,0,.25,0,.37a1.76,1.76,0,0,1-.18.32c-.06-.1-.16-.19-.17-.29,0-.31,0-.63-.06-.94a4.17,4.17,0,0,0-.12-.54c-.15.19-.37.35-.43.56-.12.47-.13,1-.22,1.45,0,.1-.22.16-.34.24-.06-.1-.18-.21-.18-.31a4.13,4.13,0,0,0,.07-.73,5.65,5.65,0,0,0-.36-.94,8,8,0,0,0-.45.87c-.19.51-.34,1-.51,1.54-.75-.49-.11-1.09-.13-1.63a.65.65,0,0,0-.39-.49.67.67,0,0,0-.56.34,14.75,14.75,0,0,0-.24,1.48c0,.1-.14.18-.21.27-.11-.12-.29-.22-.31-.35-.13-.65-.23-1.32-.33-2-.95.39-.38,1.32-.7,1.93a2,2,0,0,1-.35.38,1.32,1.32,0,0,1-.21-.43c0-.37,0-.75,0-1.12,0-.11-.1-.22-.16-.33a1.06,1.06,0,0,0-.26.22c-.28.46-.52,1.3-.84,1.33-.79.07-.65-.89-1-1.36a.6.6,0,0,0-.28-.15.3.3,0,0,0-.1.15c0,.18,0,.37-.07.55-.07.37-.15.74-.22,1.11-.14-.39-.31-.77-.43-1.17-.07-.24,0-.51-.11-.74s-.22-.34-.34-.34a.48.48,0,0,0-.36.31c-.07.56-.07,1.12-.11,1.69,0,.1-.11.2-.17.3-.12-.11-.3-.2-.35-.33a4.5,4.5,0,0,1-.13-.74c-.08-.45.1-1.18-.7-1s-.23.67-.21,1.06a5.6,5.6,0,0,1-.14,1.05,5.39,5.39,0,0,1-.47-.88c-.1-.29,0-.64-.14-.92a2.49,2.49,0,0,0-.51-.62,3.37,3.37,0,0,0-.36.8c0,.23.13.49.12.73s-.14.32-.22.48a2.23,2.23,0,0,1-.38-.48c-.07-.16,0-.38-.05-.55-.13-.4-.29-.79-.44-1.18-.09.36-.18.72-.26,1.08,0,.06,0,.14,0,.19s-.16.26-.24.38a1.81,1.81,0,0,1-.15-.33c-.07-.3-.11-.61-.2-.9a.29.29,0,0,0-.54,0c-.06.17,0,.39-.09.55a7,7,0,0,1-.43.75c0-.29-.1-.58-.13-.88,0-.12.07-.25.06-.37s-.09-.26-.16-.27a.36.36,0,0,0-.31.13c-.1.15-.11.37-.22.5s-.27.15-.4.22c0-.11-.15-.26-.12-.33.61-1.24-.63-1-1.09-1.36s-.7-.07-.85.34c-.09.23-.09.49-.17.73a.3.3,0,0,1-.26.14.39.39,0,0,1-.2-.27,4.64,4.64,0,0,1,.06-.55c0-.64,0-1.14-.73-.39-.43.43-.51.09-.49-.28.05-.83-.56-.42-.91-.5l0,0a6.16,6.16,0,0,1-.93-.88c-.55-.78-1-.6-1.42.08a1.41,1.41,0,0,1-.21.31.93.93,0,0,1-.29.11,1,1,0,0,1-.06-.35c0-.18.18-.34.19-.52a1.47,1.47,0,0,0-.14-.49,1.05,1.05,0,0,0-.33.16c-.13.13-.2.31-.32.45a1.45,1.45,0,0,1-.28.21c-.07-.14-.21-.3-.19-.43s.18-.47.23-.71a1.82,1.82,0,0,0,0-.51c-.22,0-.5,0-.65.15a14.11,14.11,0,0,0-1.05,1c.07-.52.15-1,.21-1.57a.39.39,0,0,0-.14-.31c-.05,0-.22,0-.29.12s-.33.38-.51.55a1.32,1.32,0,0,1-.32.17,1.47,1.47,0,0,1,0-.49c.06-.24.21-.46.27-.7a1.61,1.61,0,0,0,0-.49c-.17,0-.38,0-.49.09a5,5,0,0,0-.49.56,1.48,1.48,0,0,1-.31.2,1.44,1.44,0,0,1-.06-.46c0-.18.18-.34.22-.52A7.64,7.64,0,0,0,78.6,98a4.71,4.71,0,0,0-.77.25c-.28.15-.49.16-.5-.2s.12-.49.12-.73-.15-.28-.24-.42a1.32,1.32,0,0,0-.28.19c-.28.32-.55.64-.83,1-.37-.56.24-.85.36-1.28,0-.12.16-.22.17-.33,0-.28,0-.56,0-.83a4.66,4.66,0,0,0-.72.31,1.74,1.74,0,0,0-.35.42c0-.17,0-.34,0-.51s0-.43,0-.64l-.64.22-.45.19a1.62,1.62,0,0,1,.09-.48c.28-.51.71-1.06-.42-.94,0-.22.06-.44.07-.65a3.93,3.93,0,0,0-.05-.5,1.68,1.68,0,0,0-.48.13c-.15.1-.25.28-.4.39a1.55,1.55,0,0,1-.41.15c0-.17.09-.33.13-.5s.1-.44.15-.66a2.18,2.18,0,0,0-.62.2c-.31.21-.72.44-.82.75-.25.79-.81.83-1.46.87a3.06,3.06,0,0,0-.9.23Q65.7,96,62,97.39c-.11,0-.26.33-.23.36a1.29,1.29,0,0,0,.45.31,1.5,1.5,0,0,0,.37.08l0,0c-1.24.36-2.48.74-3.73,1.08a2.17,2.17,0,0,1-.75,0c-.44,0-1-.1-1-.65,0-.2.53-.41.85-.57a7.29,7.29,0,0,1,.72-.22,26,26,0,0,1,2.46-.94c.65-.17.36-.82.73-1.09a3,3,0,0,0-.75-.35c-.67-.11-1.36-.13-2-.24a5.07,5.07,0,0,1-1.6-.43c-.87-.48-1.68-1.09-2.51-1.65-.09-.06-.13-.2-.19-.3.14-.08.3-.23.43-.21a8.23,8.23,0,0,0,1.28.27,13.67,13.67,0,0,0,2-.27c.08,0,.18-.19.17-.29s-.16-.2-.25-.2c-.62,0-1.25,0-1.88-.08a.38.38,0,0,1-.27-.2.4.4,0,0,1,.1-.31,1.49,1.49,0,0,1,.31-.21l.74-.52a5.69,5.69,0,0,0-1-.26c-.81-.06-1.62,0-2.43-.1-.12,0-.3-.26-.31-.41s.21-.31.35-.32c1.67-.23,3.33-.44,5-.66.5-.06,1-.1,1.48-.19.14,0,.24-.23.36-.35a1.85,1.85,0,0,0-.35-.12c-.73-.11-1.64,0-2.15-.37a4.42,4.42,0,0,0-2.07-.7c-.61-.12-1.24-.12-1.87-.19-.1,0-.19-.11-.29-.16.11-.13.19-.31.33-.39a1.53,1.53,0,0,1,.55-.09l7.45-.67a2.06,2.06,0,0,0,.5-.19,2.6,2.6,0,0,0-.43-.48,8.05,8.05,0,0,0-.86-.45,6.17,6.17,0,0,1,1-.35c.43-.07.88,0,1.31-.07s.43-.49.41-.85c2,.24,4.06.48,6.09.7.4,0,1,.17,1.05-.4,0-.18-.59-.5-1-.64a2.87,2.87,0,0,0-.92-.06l-5.21-.21q0,.34,0,.69a17.78,17.78,0,0,1-2.22-.08c-.52-.08-1.05-.63-1.49-.53-1.93.41-3.71-.22-5.54-.56-.49-.09-1-.18-1.46-.3a.36.36,0,0,1-.19-.29.37.37,0,0,1,.2-.28,2.15,2.15,0,0,1,.72-.12l5.63.29q3.27.17,6.55.31a1.55,1.55,0,0,0,.51-.18c-.08-.16-.13-.4-.26-.46a5.1,5.1,0,0,0-2.41-.87,6.78,6.78,0,0,1-2.42-.9c-.09,0-.13-.2-.19-.3.1-.06.21-.17.3-.16.72.08,1.44.21,2.16.27a1.75,1.75,0,0,0,.63-.21c-.14-.12-.26-.29-.42-.34a70.38,70.38,0,0,0-7.79-2.59,6.19,6.19,0,0,1-1.63-.86c-.1-.06-.14-.2-.2-.31a1.4,1.4,0,0,1,.5-.1c1.72.32,3.44.71,5.17,1,3.09.49,6.23.63,9.27,1.45a1.79,1.79,0,0,0,1.26-.07,1.81,1.81,0,0,1,1.77,0c1.11.42,2.24.79,3.37,1.16.14,0,.34,0,.51-.08-.06-.22,0-.52-.18-.63a3,3,0,0,0-1-.46c-1.51-.43-3-.83-4.53-1.23-.29-.08-.69-.22-.89-.09-.74.45-1.3.08-1.92-.23s-1.27-.53-1.88-.85-1.15-.69-1.72-1c.76-.44,1.4.12,2.09.27s1.32.41,2,.59c.12,0,.29-.12.43-.19-.07-.1-.12-.24-.21-.3a7.94,7.94,0,0,0-.82-.45c-2.82-1.35-5.65-2.68-8.46-4a4.79,4.79,0,0,1-1-.78c-.09-.08-.07-.31,0-.46s.22-.1.33-.07c.36.09.72.21,1.08.33a52.44,52.44,0,0,0,5.14,1.79c1.73.42,3.38,1.32,5.25,1.14.12,0,.32.18.4.33.48.84,1.29.1,1.37,0,.36-.58-.31-.6-.64-.81-.16-.1-.35-.15-.51-.25-.92-.54-1.84-1.08-2.74-1.64-.12-.08-.17-.28-.25-.42a1.41,1.41,0,0,1,.52,0c.94.36,1.86.75,2.8,1.1.51.19,1,.33,1.55.49-.1-.77-.82-.83-1.32-1.07-.93-.44-.3-1-.15-1.5.22-.75.67-.49,1.17-.24,1,.51,2,1,3.05,1.45.4.18.8.35,1.21.5.06,0,.17-.09.24-.16s0-.13-.06-.17-.4-.3-.57-.48-.55-.57-.82-.85c.33.13.66.28,1,.4a1.86,1.86,0,0,0,.46,0c0-.11-.05-.26-.13-.33-.79-.7-1.63-1.36-2.39-2.09-1.07-1-2.68-1.42-3.34-2.9l0,0a3.09,3.09,0,0,1,2.12,1.05,23.65,23.65,0,0,0,6.19,3.43l.08.11-.12-.07a2.64,2.64,0,0,0-.25-.5l-6.81-8.49a3.32,3.32,0,0,1-.31-.61c.21,0,.49,0,.63.1,1.9,1.63,3.77,3.28,5.65,4.93.61.54,1.19,1.11,1.81,1.63.16.13.44.11.67.16a3,3,0,0,0-.22-.6c-.29-.46-.34-.68.34-.5a.6.6,0,0,0,.53-.27,8.56,8.56,0,0,0,.28-1.23c0-.12.06-.23.09-.34.16,0,.36.05.47.16s.38.5.6.72a3.46,3.46,0,0,0,.58.39c0-.22.11-.49,0-.67-.79-1.76-1.61-3.5-2.42-5.25a7.14,7.14,0,0,1-.45-1c0-.16.09-.38.14-.57.17.07.39.1.49.22q1.47,1.93,2.89,3.88c.52.71,1,1.44,1.52,2.14.06.08.22.09.33.13,0-.11.12-.24.09-.33-.17-.47-.38-.93-.56-1.4a2,2,0,0,1,0-.5c.2.1.45.15.58.3a7,7,0,0,1,.6,1,6.23,6.23,0,0,0,1,1.59,6.42,6.42,0,0,0,1.74.78A11.65,11.65,0,0,0,89.18,62c-.19-.53-.48-1-.68-1.55a2.14,2.14,0,0,1,0-.68,2.92,2.92,0,0,1,.56.33,9.17,9.17,0,0,1,.65.74c-.06-.35-.14-.69-.18-1a7.67,7.67,0,0,0-.14-1.31c-.4-1.27-.45-2.7-1.8-3.52a31.54,31.54,0,0,0-8.24-3.62,29.11,29.11,0,0,0-17,.61,28.8,28.8,0,0,0-11.37,7.16,28,28,0,0,0-6.64,10.61A25.24,25.24,0,0,0,42.6,78.2a39,39,0,0,0,1,8.36,25.41,25.41,0,0,0,5.85,11.85c5.74,6.32,11.7,12.45,17.6,18.63,4.51,4.73,9.09,9.39,13.61,14.11q9.85,10.27,19.67,20.58c.42.44.68.6,1.19.07,5.12-5.36,10.28-10.69,15.41-16q10-10.42,19.89-20.87c4.82-5,9.68-10,14.48-15.1s7.19-11.27,7.89-18.1a24.93,24.93,0,0,0-1-10,29.59,29.59,0,0,0-7.75-12.93,28.79,28.79,0,0,0-21.51-8.25,29.28,29.28,0,0,0-14.4,4.42,3.4,3.4,0,0,0-1.56,2,15.49,15.49,0,0,0-.64,3.47c-.09.18-.18.36-.25.55,0,0,.08.08.12.12l.26-.55.28-.24.58-.43c0,.23.13.49.06.68-.33.81-.72,1.6-1.08,2.4-.09.2-.19.65.14.45.67-.42,1.67-.23,2.06-1.24a13,13,0,0,1,1.37-2.24c.05-.08.21-.08.32-.12s.12.22.09.3c-.17.47-.39.93-.56,1.4a2.07,2.07,0,0,0-.05.53c.19-.11.44-.17.56-.33,1.4-1.9,2.78-3.82,4.19-5.72.12-.16.42-.17.64-.26a1.77,1.77,0,0,1,0,.66c-.84,1.87-1.71,3.72-2.55,5.59a8.72,8.72,0,0,0-.35,1.19c.31-.23.62-.45.93-.69.1-.08.15-.21.25-.28s.41-.25.61-.37c0,.21,0,.42,0,.63,0,.56,0,.55,1.15,1.26.08.05,0,.38,0,.57a4.46,4.46,0,0,1-.22.6,2,2,0,0,0,.67-.15,6.65,6.65,0,0,0,.68-.64c1.92-1.68,3.84-3.38,5.79-5a19.52,19.52,0,0,1,1.64-1.14c.14.92-.93,1-1.16,1.65a2,2,0,0,1-.3.48c-.85,1.15-1.68,2.33-2.57,3.45s-2,2.39-3,3.59c-.08.1,0,.31,0,.47a.92.92,0,0,0,.35,0c1.92-1.17,3.83-2.37,5.76-3.52a18,18,0,0,1,1.83-.84l0,0a15.55,15.55,0,0,1-1.31,1.42c-1.34,1.14-3,1.89-4.06,3.4l-.22.52Zm11.7,3.05-.86.25c-.95.28-1.9.54-2.84.85-.53.18-1,.46-1.54.65-2.45.9-4.91,1.78-7.36,2.7a4.78,4.78,0,0,0-1.25.81.62.62,0,0,0,.1.56,1.27,1.27,0,0,0,.87.16c1.39-.53,2.76-1.12,4.13-1.7,1.2-.51,2.41-1,3.59-1.58,1.51-.72,3-1.49,4.48-2.24l.62-.51a.53.53,0,0,0,.16,0s0-.07.05-.1Zm-71.34,0a.55.55,0,0,0-.05-.15s-.07,0-.11,0l.2.14.63.5a4.72,4.72,0,0,0,.75.52q4.17,1.89,8.36,3.75c1,.45,2.06.85,3.1,1.26a.89.89,0,0,0,.54,0,4.17,4.17,0,0,0,.64-.32c-.11-.19-.18-.46-.34-.57a10.79,10.79,0,0,0-1.64-.9c-3-1.26-6.24-2.1-9.23-3.52a8.91,8.91,0,0,0-2-.44Zm75.85,16.24-.07-.12.11.07c.14.12.26.29.42.33s.28-.11.42-.18a1.05,1.05,0,0,0-.33-.15A3.48,3.48,0,0,0,141.07,87.59Zm-80.34,0a3.33,3.33,0,0,0-.55-.05,1,1,0,0,0-.32.15c.14.07.3.21.41.18s.28-.21.42-.32l.1-.08Zm16.18-14-.14-.21s0,.1,0,.11a.59.59,0,0,0,.15.06l1.37.91c.69.37,1.38.76,2.08,1.1.11.05.32-.11.48-.18-.1-.11-.17-.27-.29-.32-.67-.3-1.35-.57-2-.86A1.51,1.51,0,0,0,76.91,73.62Zm5-2.7-.2-.14.14.2c.55.7,1.1,1.4,1.67,2.09,0,0,.24,0,.31,0a.31.31,0,0,0,0-.3C83.18,72.13,82.52,71.53,81.87,70.92Zm43,2.69a9.1,9.1,0,0,0-1.4.36c-.74.32-1.45.72-2.17,1.09a3.49,3.49,0,0,0-.39.27c.21.08.49.3.61.23,1.12-.64,2.21-1.32,3.31-2a.56.56,0,0,0,.16-.05s0-.08,0-.12ZM68.66,90.91a18.17,18.17,0,0,1-7,2.35c-1.1.15-2.17.64-3.31.29-.07,0-.2.12-.3.18.07.09.12.24.21.27a7,7,0,0,0,1.64.39c1.13,0,2.26-.08,3.38-.1,3.54-.06,6.3-1.79,8.78-4.11.5-.47.63-.92-.07-1.36-.1-.06-.12-.27-.17-.41.86.57,1.13-.69,1.94-.6s1-.54.67-1.23c-.13-.26-.21-.57.17-.37,1.2.65,1.09-.94,1.84-1l-.73-1.13a.85.85,0,0,1-.1-.15c0-.06,0-.16,0-.18s.23-.16.28-.13c.32.2.6.45.92.64.12.07.31,0,.47,0-.14-1,1.16-.69,1.35-1.45.13-.52.37-1.08,1.13-.89l-.1-.83-.05,0c.5,0,1.17.47,1.42-.3s-.35-.91-.94-1c-.06,0-.14,0-.17-.06s-.15-.21-.12-.28.2-.22.26-.2c.52.15,1,.35,1.54.49a1.74,1.74,0,0,0,.61-.07c-.52-1.36.54-.26.75-.48l.23.2-.08-.35c.87-.46.4-1.16.33-1.79a1.29,1.29,0,0,1,.06-.35c.13.07.31.11.39.22.26.33.43.88.75,1s.75-.29,1.15-.41.61,0,.88-.14a.67.67,0,0,0,.36-.51,4.7,4.7,0,0,0-.28-.89,4.43,4.43,0,0,1-.08-.62c.12.14.24.28.37.41l.83.81c.38-.81.74-.25,1.14,0,.07,0,.44-.2.45-.33,0-.48.16-.38.53-.23a8.43,8.43,0,0,0,1.73.4c.74.13,1-.13.9-.94-.06-.62-.17-1.24-.21-1.86,0-.13.14-.27.22-.4a1.67,1.67,0,0,1,.16.32c.14.54.25,1.1.42,1.63,0,.14.25.22.39.33.12-.18.33-.36.33-.53,0-.56-.12-1.12-.14-1.68,0-.13.16-.27.25-.41.09.14.26.29.26.43,0,.69-.08,1.37-.07,2.06a3.11,3.11,0,0,0,.26.84A2.91,2.91,0,0,1,95,76c.52-.32,1.07-.85,1.59-.85,1.19,0,1.2.13,1.28-.85,0-.37,0-.75.05-1.12,0-.15.18-.29.28-.43a2.49,2.49,0,0,1,.17.44c.11.57.2,1.15.3,1.73.1-.53.2-1.07.32-1.59,0-.09.17-.19.28-.22a.28.28,0,0,1,.22.15c0,.44,0,.88.07,1.31a1.47,1.47,0,0,0,.22.45c.11-.12.33-.23.33-.35a23.39,23.39,0,0,0-.09-2.43.93.93,0,0,0-1-.94,13.27,13.27,0,0,0-2.61.1c-3.17.7-6.41,1.14-9.4,2.53-1.86.86-3.86,1.45-5.51,2.7s-3.11,2.45-4.59,3.77-2.63,2.5-3.87,3.81c-.6.63-1,1.5-2.1,1.21a1.28,1.28,0,0,0-.2.49c.44.34.45.64.1,1.08-.61.79-1.15,1.64-1.73,2.45-.33.46-.7.9-.51,1.53Zm53.19-9.39h0c1.17.31,1.27,2,2.66,2a.66.66,0,0,1,0,.31c-.08.58.14.68.59.38.26-.17.48-.4.73-.57a.32.32,0,0,1,.3,0,.33.33,0,0,1,0,.31c-.23.29-.54.53-.75.83-.36.52.1.43.38.46l.56.06-.06-.05c-.06.23-.22.51-.16.69.3.81,1,0,1.43.3-.34.44-.72.88-.06,1.37.05,0,.1.11.15.11a1.53,1.53,0,0,1,1.53.66c1.36-.17.82.25.28.79-.11.1,0,.64.18.79a18.53,18.53,0,0,0,3,2.48,11.67,11.67,0,0,0,7,1.84c.62-.06,1.26.12,1.88.07a14.42,14.42,0,0,0,2-.39c.09,0,.15-.17.22-.27-.1-.06-.2-.18-.3-.18a7.66,7.66,0,0,1-1.47.08c-1.85-.32-3.7-.68-5.53-1.09a6,6,0,0,1-3.53-2.7c-.65-1-1.35-2-2.06-2.92-.25-.35-.36-.59.07-.92s.22-.68-.21-.59c-1,.2-1.33-.43-1.83-1a28.71,28.71,0,0,0-2.06-2.17c-1-.9-2-1.72-3-2.59a25.87,25.87,0,0,0-5.16-3.93,57.1,57.1,0,0,0-5.48-2.35,32.59,32.59,0,0,0-10.06-2.06c-1.06-.06-1.34.22-1.47,1.24a3.56,3.56,0,0,0,0,.94c.07.51.2,1,.3,1.51.08-.48.14-1,.25-1.43,0-.17.22-.31.34-.47a2.2,2.2,0,0,1,.27.46c.13.43.22.87.32,1.3.06-.42.13-.84.18-1.26a3.54,3.54,0,0,1,0-.56,1.6,1.6,0,0,1,.27-.4,2.71,2.71,0,0,1,.27.42,1.2,1.2,0,0,1,0,.37,5,5,0,0,0,.15,1.67c.37.8.87.16,1.31-.05,0,0,.06.11.11.15A8.19,8.19,0,0,1,107,76.25c.34.39.35.1.63,0a2.32,2.32,0,0,0,1.38-2,3.16,3.16,0,0,1,.29-.74,4.18,4.18,0,0,1,.13.9c0,.5-.18,1-.22,1.49-.05.75.49,1.19,1,.73s1.18-.08,1.68-.35c.32-.18.4-.17.43.2,0,.59.35.53.75.27a1.23,1.23,0,0,1,.59-.19c.38.65.64.37.9-.09a2.74,2.74,0,0,1,.3-.48,1.87,1.87,0,0,1,.37-.26,1.73,1.73,0,0,1,0,.35c-.12.47-.25.94-.38,1.41.46.12.92.22,1.37.36a1.81,1.81,0,0,1,.48.29c.5.35.81.12,1-.34.06-.11.07-.26.15-.34a4.61,4.61,0,0,1,.48-.4,1.76,1.76,0,0,1,0,.54c-.15.61-.34,1.21.36,1.62l-.14.27.28-.13c.63-.2.65-.18.79.41,0,.11.26.27.34.24.51-.18,1-.43,1.52-.61.13,0,.33.1.5.15-.13.13-.25.28-.39.4-.29.25-.6.5-.9.74l.91.79A.6.6,0,0,0,121.85,81.52ZM100.22,96.63c0,.51.09,1.2.09,1.89s-.39,1.07-1,.66a2.58,2.58,0,0,0-1.73-.44,3.51,3.51,0,0,1-1.43-.4,10.73,10.73,0,0,1-4-3A10.05,10.05,0,0,1,89.5,89c-.06-1.3-.34-2.72.36-4s1.46-2.89,2.15-4.35a1.27,1.27,0,0,0,.07-.84c0-.11-.44-.18-.67-.15-5,.72-9.56,2.47-13.15,6.23a19.48,19.48,0,0,1-2,1.71,1.5,1.5,0,0,0-.62,2.11c.08.24.23.45.32.68a.38.38,0,0,1-.06.33.31.31,0,0,1-.31,0c-.23-.21-.41-.47-.65-.67s-.37-.21-.49-.16a.53.53,0,0,0-.23.46,5.52,5.52,0,0,0,.95,2c.38.36.74.7,1.1,1.11,1.2,1.35,2.57,2.54,3.87,3.79a.38.38,0,0,0,.16.09C82,97.72,83,99,84.47,99.8c.65.34,1.64.62,1.84,1.16.56,1.54,1.31-.07,1.91.25a6.27,6.27,0,0,0,1.25.39,25.57,25.57,0,0,0,3.6,1c1.91.27,3.86.34,5.79.45,1.06.06,2.13,0,3.2,0a37,37,0,0,0,7.83-.72,25.67,25.67,0,0,0,3.22-1c.55-.18,1.08-.36,1.56.18.07.08.47,0,.56-.1.87-1.19,2.27-1.65,3.41-2.47s2.23-1.3,3.24-2.08,1.52-1.7,2.43-2.33,1.4-1.8,2.48-2.4c.48-.26.53-1.31.74-2,0,0-.4-.27-.51-.21s-.31.38-.51.53a2.46,2.46,0,0,1-.62.24,4,4,0,0,1,.13-.67c.57-1.53.5-1.71-.8-2.64a8.82,8.82,0,0,1-1.27-1.11A19.53,19.53,0,0,0,113,80.17c-.87-.15-1.72-.37-2.59-.51-.66-.1-.92.29-.63.91.13.28.35.52.5.8a13.13,13.13,0,0,1,2.06,6.49,11.27,11.27,0,0,1-4.22,9c-1.27,1.07-2.7,2.08-4.57,1.82-.21,0-.45.17-.67.28-1.27.61-1.4.55-1.39-.75,0-1.06,0-2.13.09-3.19a3.52,3.52,0,0,1,.23-.8,4.8,4.8,0,0,1,.42.74,7,7,0,0,1,.27,1.09c.09.49.13,1,.25,1.47,0,.1.31.22.45.2a.46.46,0,0,0,.27-.36c-.12-1-.3-2-.42-3,0-.2.13-.43.2-.64a1.61,1.61,0,0,1,.42.3c.69,1,1.35,2,2.05,2.92.08.11.31.11.47.16,0-.17.1-.37,0-.5-.49-1-1-2-1.5-3a1.31,1.31,0,0,1,0-.5,1.64,1.64,0,0,1,.64.12,4.6,4.6,0,0,1,.65.67c.56.59,1.1,1.19,1.68,1.76.09.09.3,0,.46.06,0-.17,0-.37-.06-.49-.5-.71-1.06-1.38-1.53-2.12-.13-.2,0-.56,0-.84a2.47,2.47,0,0,1,.69.16c.6.34,1.16.74,1.76,1.08.12.07.34,0,.51,0-.07-.15-.1-.34-.22-.44-.83-.67-1.68-1.31-2.5-2-.14-.12-.15-.39-.22-.59a1.66,1.66,0,0,1,.52-.06c.86.18,1.71.4,2.57.56.2,0,.44-.11.66-.17a2.08,2.08,0,0,0-.38-.39,3.42,3.42,0,0,0-.69-.29c-.71-.24-1.43-.46-2.14-.71-.09,0-.23-.23-.2-.27s.22-.33.34-.33c.75,0,1.51,0,2.26,0,.16,0,.32-.14.48-.22-.17-.16-.32-.42-.51-.45-.62-.11-1.25-.11-1.87-.19-.15,0-.28-.2-.42-.3.11-.12.2-.3.33-.35.82-.29,1.66-.55,2.49-.84.11,0,.16-.24.24-.37a1.2,1.2,0,0,0-.35-.05c-.92.15-1.85.33-2.77.45-.17,0-.38-.17-.57-.27a1.93,1.93,0,0,1,.39-.37c.83-.43,1.67-.82,2.49-1.26.11-.06.12-.29.18-.45a1.42,1.42,0,0,0-.5,0c-.48.15-.94.35-1.42.5a3,3,0,0,1-.7,0c.1-.25.19-.51.3-.75s.17-.18.24-.29c.17-.27.32-.55.48-.83a6.07,6.07,0,0,0-1,.35c-.55.3-1.06.67-1.59,1s-.84.86-.38,1.56a4.9,4.9,0,0,1,.61,3.63,3.58,3.58,0,0,1-4.12,2.9,3.6,3.6,0,0,0-1.47.06c-1.33.4-3.73-1.21-3.9-2.56a6.49,6.49,0,0,1,.39-3.87c.56-1.12.53-1.17-.41-1.81a15,15,0,0,0-1.26-.81,11.23,11.23,0,0,0-1.17-.48c.19.32.37.65.58,1s.33.38.47.59a.33.33,0,0,1,0,.32.41.41,0,0,1-.33.12c-.24,0-.47-.19-.71-.23-.55-.07-1-.82-1.64-.25a17.54,17.54,0,0,0,1.43,1.13c.31.2.72.22,1.06.39a3.33,3.33,0,0,1,.63.54,3.53,3.53,0,0,1-.89.11c-.8-.1-1.6-.28-2.4-.4a1.23,1.23,0,0,0-.46.13c.13.11.25.27.41.32.83.28,1.67.52,2.5.79.14,0,.24.21.35.32-.14.11-.26.29-.41.32-.74.11-1.49.18-2.23.28-.09,0-.25.2-.23.24s.18.33.29.34c.75,0,1.51,0,2.26,0a1.49,1.49,0,0,1,.49.21c-.14.18-.24.46-.42.53-.87.34-1.77.62-2.65.95-.14.05-.22.25-.32.39.17.05.36.17.52.14,1-.19,2-.42,2.94-.62a.37.37,0,0,1,.31.15.34.34,0,0,1-.05.33c-.67.56-1.37,1.09-2,1.67a7.85,7.85,0,0,0-.83,1L93.69,93c.11,0,.19-.17.31-.21.43-.16.87-.3,1.3-.45a6,6,0,0,1-.36,1.37A7.64,7.64,0,0,1,94,94.85a3.33,3.33,0,0,0-.41.61c0,.07.06.21.12.31s.12,0,.15,0a4.4,4.4,0,0,0,.75-.55c.6-.64,1.14-1.33,1.75-2,.15-.15.43-.18.64-.27,0,.22.1.48,0,.66-.45,1-1,1.91-1.4,2.87-.08.17,0,.42,0,.64.16-.09.38-.14.48-.27.66-.91,1.28-1.85,1.95-2.76a1.89,1.89,0,0,1,.54-.36,2.54,2.54,0,0,1,.11.71c-.11.93-.28,1.85-.38,2.79,0,.15.21.37.37.47s.38-.17.4-.3c.12-.61.13-1.25.28-1.85a8.93,8.93,0,0,1,.55-1.34c.67.33.09.85.2,1.28A7.16,7.16,0,0,1,100.22,96.63Zm.71-18.25c-1,.11-2.1.17-3.2.4-.93.19-1.48,1.37-.85,2,.81.82.91,1.89,1.4,2.81.21.39.3.56.78.29a3.53,3.53,0,0,1,3.73,0c.35.21.5.19.67-.19a23.37,23.37,0,0,1,1.3-2.64c.69-1.13.41-2.08-.89-2.36C103,78.53,102,78.5,100.94,78.38ZM115.36,73a12.49,12.49,0,0,0,1.3-1c1.15-1.14,2.29-2.29,3.39-3.47,1.66-1.78,3.28-3.6,4.9-5.41.13-.14.11-.41.17-.62a2.31,2.31,0,0,0-.58.3c-1.4,1.34-2.77,2.7-4.17,4-1.59,1.5-3.21,3-4.78,4.47a2.69,2.69,0,0,0-.57,1.1C115,72.5,115.21,72.72,115.36,73ZM76.75,62.38c-.06.07-.14.13-.13.16a1.23,1.23,0,0,0,.19.49c2.34,2.59,4.67,5.19,7,7.75A18.93,18.93,0,0,0,86,72.63c.15.12.44.08.66.12,0-.29.21-.67.09-.85a8.73,8.73,0,0,0-1.33-1.56c-1.89-1.73-3.82-3.41-5.7-5.14-.87-.8-1.67-1.68-2.5-2.52A2.48,2.48,0,0,0,76.75,62.38Zm31.08.37c0,.57,0,1.07,0,1.57a1,1,0,0,0,.15.33c.14-.09.35-.14.41-.27.73-1.58,1.45-3.17,2.16-4.76.23-.51.46-1,.67-1.55a.42.42,0,0,0,0-.34.3.3,0,0,0-.29,0C109.27,59,107.36,60.23,107.83,62.75Zm-13.74.14c-.27-1,.18-2-.6-2.78s-1.61-1.57-2.43-2.33c-.09-.08-.29,0-.45-.06a1,1,0,0,0,0,.35c.72,1.66,1.43,3.32,2.2,5a13.93,13.93,0,0,0,1,1.59ZM91.33,62c-.18.49-.3.65-.27.78.54,2.42,1.12,4.84,1.65,7.27.15.69.57.75,1.11.59s.42-.66.28-1.06c-.61-1.77-1.23-3.53-1.85-5.29-.19-.53-.37-1.06-.57-1.58C91.62,62.57,91.52,62.41,91.33,62Zm19.46.69-.11-.29a2.06,2.06,0,0,0-.46.2A.7.7,0,0,0,110,63q-1.13,3.17-2.25,6.34a5.71,5.71,0,0,0-.18.73c-.11.52.24.65.64.7s.78-.2.87-.72c.18-1,.38-2.07.62-3.1C110.07,65.52,110.43,64.14,110.79,62.73ZM127.23,70c-.07-.08-.13-.22-.2-.22a1.12,1.12,0,0,0-.54.09q-3.5,1.84-7,3.7a.67.67,0,0,0-.28.24c-.08.15-.19.42-.13.48a.91.91,0,0,0,.6.28,1.64,1.64,0,0,0,.68-.3l6.57-4A2.09,2.09,0,0,0,127.23,70ZM82.9,74.16a7.52,7.52,0,0,0-.9-.68c-2-1.11-4.09-2.2-6.14-3.29A6.42,6.42,0,0,0,75,69.8c-.1,0-.23,0-.35.07.06.13.08.33.18.39q3.36,2.07,6.75,4.11a1.92,1.92,0,0,0,.87.23C82.57,74.6,82.7,74.36,82.9,74.16Zm52.46,4.16c-.25-.1-.41-.24-.53-.21-2.68.53-5.36,1.06-8,1.63-.14,0-.21.37-.31.56.24.12.52.38.72.33.72-.18,1.4-.52,2.12-.71,1.8-.47,3.61-.9,5.42-1.35A5.09,5.09,0,0,0,135.36,78.32ZM67.47,78l0,.14a.65.65,0,0,0-.19,0l-.68.17a4.71,4.71,0,0,0,.63.28c2.45.69,4.9,1.38,7.36,2,.22.06.5-.15.76-.24-.13-.23-.23-.62-.41-.66C72.44,79.11,70,78.56,67.47,78ZM104.9,65.83h-.05c.06-.68.14-1.36.17-2,0-.11-.19-.24-.31-.33a.44.44,0,0,0-.24.22q-.56,2.92-1.09,5.84c0,.11,0,.31.11.34.25.08.62.22.76.11a1.27,1.27,0,0,0,.36-.8C104.73,68.05,104.81,66.94,104.9,65.83Zm-6.46,3.69c-.26-1.55-.46-2.91-.73-4.26a14,14,0,0,0-.58-1.74c-.65.56-.19,1.26-.18,1.87a37.65,37.65,0,0,0,.33,4.12c0,.23.51.4.78.59ZM65.14,87.61v.05l3.91-.19a3,3,0,0,0,.36-.06,1.77,1.77,0,0,0-.35-.26,3,3,0,0,0-1-.37c-1.68,0-3.36,0-5,.07a4.1,4.1,0,0,0-1.18.43c.33.59.84.2,1.26.23C63.77,87.54,64.46,87.57,65.14,87.61Zm71.54,0s0-.06,0-.08c.87,0,1.75,0,2.63,0a3.56,3.56,0,0,0,.71-.16c-.24-.17-.46-.46-.71-.48-1.88-.09-3.76-.13-5.64-.15a2.31,2.31,0,0,0-.86.33,3.71,3.71,0,0,0-.44.27,4.37,4.37,0,0,0,.55.1Zm2.59,2.49s0-.05,0-.08c.69,0,1.37,0,2.06,0,.12,0,.23-.23.34-.35a1.65,1.65,0,0,0-.47-.17c-1,0-2.08,0-3.13-.08-.56,0-1.12-.07-1.67-.06-.16,0-.47.18-.46.24a3,3,0,0,0,.31,1.24,1.26,1.26,0,0,0,.91.43c.35,0,.35-.21,0-.42-.59-.4-.49-.69.2-.73S138.64,90.15,139.27,90.15Zm-76.46,0c.45,0,1.14,0,1.82,0,.48,0,.42.32.16.62a3.68,3.68,0,0,0-.31.46c.24,0,.62.1.7,0a7.81,7.81,0,0,0,.73-1.44c0-.08-.18-.36-.3-.38a4.07,4.07,0,0,0-1.3-.08c-1.29.21-2.55.65-3.87.16-.06,0-.24.11-.27.2a.33.33,0,0,0,.17.27C61.08,90.07,61.82,90.11,62.81,90.18Zm43.1-20.9a4,4,0,0,0,.08.77c0,.14.22.24.33.36.12-.12.34-.24.35-.37.18-1.77.33-3.54.48-5.31,0-.11-.1-.22-.15-.33-.12.1-.31.19-.33.3C106.41,66.23,106.16,67.77,105.91,69.28Zm-11-2.3-.24,0c.15,1,.3,2.07.48,3.1,0,.13.26.22.4.32.09-.15.27-.31.25-.45-.19-1.73-.41-3.46-.62-5.19a.35.35,0,0,0-.07-.17c-.08-.09-.17-.17-.26-.25-.08.14-.25.29-.24.42C94.72,65.52,94.83,66.25,94.93,67ZM84.67,67c0,.23-.06.42,0,.54.8,1.34,1.6,2.68,2.44,4a2.23,2.23,0,0,0,.74.55.91.91,0,0,0,.35,0c0-.16.1-.37,0-.47q-1.51-2.14-3.06-4.26A2.61,2.61,0,0,0,84.67,67Zm48.79,13.66c-1.28.15-2.46.24-3.62.47-.4.08-.73.55-1.09.84A5,5,0,0,0,130,82c1.15-.25,2.28-.55,3.42-.87.12,0,.2-.26.29-.39ZM72.21,82.2l0-.16a1,1,0,0,0,.37.06,2.15,2.15,0,0,0,.44-.2c-.09-.15-.15-.36-.28-.43a3.32,3.32,0,0,0-1-.41c-1.1-.19-2.22-.32-3.33-.46-.1,0-.21.09-.31.13.05.1.08.28.16.3C69.59,81.43,70.9,81.81,72.21,82.2Zm41.46-10c.4-.26.81-.39,1-.66.85-1.3,1.65-2.63,2.45-4,.07-.12,0-.32,0-.48-.15.09-.36.14-.45.27q-1.54,2.12-3,4.26C113.56,71.72,113.65,71.92,113.67,72.19Zm21.48,12.6a7.5,7.5,0,0,0-1.43-.06c-.45.06-1.25.3-1.24.45,0,.69.66.61,1.13.58a8.56,8.56,0,0,0,1.81-.29,11.53,11.53,0,0,0,1.52-.66l-1.54,0Zm-67.58,1a4.58,4.58,0,0,0,1.2-.08c.24-.09.39-.38.59-.58-.2-.12-.39-.33-.6-.34-.68,0-1.36,0-2,0s-1.23,0-1.85-.08c.57.29,1.13.62,1.72.86A4.92,4.92,0,0,0,67.58,85.8Zm52.6-14.88c-.1,0-.25-.12-.28-.09-.66.71-1.3,1.44-1.94,2.16a.32.32,0,0,0,.12.13c.34.12,1.74-1.25,2.06-2A.88.88,0,0,0,120.18,70.92Zm-17.85-2.83-.31-1-.27,1a8.11,8.11,0,0,0-.27,1.07c0,.14.16.3.25.46.14-.09.38-.15.42-.28A10.49,10.49,0,0,0,102.33,68.09Zm-2.8-.3a1.62,1.62,0,0,0,0,.42c.15.49.33,1,.49,1.46.05,0,.15,0,.14-.06,0-.46,0-.91-.08-1.37a7.21,7.21,0,0,0-.14-.91c0-.07-.15-.13-.23-.17a.29.29,0,0,0-.11.14C99.57,67.48,99.55,67.66,99.53,67.79Zm-24-6.59L75.26,61c0,.05-.06.14,0,.15a1.93,1.93,0,0,0,.27.17Zm8.49,5-.16-.3-.19.15.23.27ZM61.58,91.44a2.3,2.3,0,0,0-.53-.1c-.08,0-.14.15-.22.23a1.94,1.94,0,0,0,.48.16C61.37,91.73,61.45,91.58,61.58,91.44ZM126.51,61a.73.73,0,0,0,0,.16s.07,0,.11,0a.62.62,0,0,0,0-.16S126.55,61,126.51,61ZM81.73,65.35l-.06-.14,0,.25ZM66.48,79.42a2.3,2.3,0,0,0-.3-.14s-.11.09-.1.11a1.46,1.46,0,0,0,.16.23Zm-3.65,3.37a.84.84,0,0,0-.31-.11c-.06,0-.12.13-.18.2.1,0,.2.12.29.11S62.76,82.86,62.83,82.79Zm76.65.09c-.06-.07-.12-.19-.18-.2a.82.82,0,0,0-.3.1c.06.07.11.19.18.2S139.37,82.91,139.48,82.87ZM141,91.66a1.78,1.78,0,0,0-.17-.31,3.4,3.4,0,0,0-.44.18s.08.12.12.12A4.86,4.86,0,0,0,141,91.66Zm-69.54.62-.25,0s.07.07.11.08A.35.35,0,0,0,71.45,92.28Zm59.13,0v-.11l-.17,0Zm5-13s-.07.09-.06.12.08.09.12.13l.07-.25ZM120.12,65.51l.06-.08-.08,0Z"/><path class="a" d="M106.77,115.82a14.07,14.07,0,0,1-.69-1.28c-.24-.57-.37-1.19-.62-1.76a6.72,6.72,0,0,0-.69-1c-.13.37-.28.73-.37,1.11a4.64,4.64,0,0,0,0,.75,2.1,2.1,0,0,1-.09.36c-.07-.13-.2-.25-.2-.38-.06-1.19-.1-2.37-.16-3.56,0-.15-.16-.29-.25-.43a2.68,2.68,0,0,0-.36.36c-.11.15-.27.36-.24.5.37,1.55-.25,3.26.79,4.7a1.16,1.16,0,0,1,.25.68c-.12,1.75-.27,3.49-.43,5.24a1.36,1.36,0,0,1-.17.39,2.45,2.45,0,0,1-.12-.35,4.7,4.7,0,0,1-.22-1.47c.38-2.29-.5-4.45-.6-6.68,0-.13-.21-.25-.32-.37-.11.13-.28.23-.33.38-.19.56-.34,1.14-.5,1.71l0,0a15.25,15.25,0,0,1,.17-4.63.74.74,0,0,0-.74-1c-.63,0-.86.49-.71,1.05a13.27,13.27,0,0,1,.11,4.63l.05,0c-.15-.59-.29-1.18-.46-1.76,0-.14-.23-.23-.35-.35-.11.13-.31.26-.31.4-.07,2.23-1.05,4.39-.56,6.66a1.26,1.26,0,0,1,0,.56c-.11.42-.26.83-.39,1.24a7.23,7.23,0,0,1-.29-1.15c-.11-1.38-.19-2.76-.27-4.14,0-.24-.07-.59.07-.72,1.28-1.28.52-3,1-4.46a.78.78,0,0,0-.05-.55,6.46,6.46,0,0,0-.51-.75,3.43,3.43,0,0,0-.23.78c-.06,1.07-.06,2.14-.12,3.2,0,.14-.17.28-.25.42-.06-.16-.13-.31-.18-.47s0-.13,0-.19c-.15-.55.33-1.26-.41-1.66-.29.53-.6,1-.87,1.58-.4.82-.77,1.65-1.15,2.47l0,0c.34-1.46.69-2.91,1-4.37a7,7,0,0,0,.18-1.66c0-.24-.33-.68-.46-.67a1.34,1.34,0,0,0-.88.49,2.73,2.73,0,0,0-.19,1.08c-.18,1.43-.35,2.85-.54,4.28,0,.16-.19.31-.29.46a1.88,1.88,0,0,1-.15-.6c.07-.75.19-1.49.27-2.23a1.52,1.52,0,0,0-.12-.49c-.17.15-.41.27-.49.45a10,10,0,0,0-.28,1.08q-1.19,4-2.39,7.92a1.86,1.86,0,0,1-.31.45,2.11,2.11,0,0,1-.11-.63c.33-2.34,1.07-4.62.95-7,0-.48.27-1,.29-1.46a2.91,2.91,0,0,0-.34-1,3.54,3.54,0,0,0-.61.6c-.23.37-.38.79-.59,1.18a1.76,1.76,0,0,1-.38.36,1.6,1.6,0,0,1,0-.5c.51-1.33,1-2.66,1.57-4,.11-.29.36-.6.32-.87-.15-1,.39-.82,1-.74,1.05.14,2.11.33,3.17.37,2.8.12,5.61.25,8.41.23a38.48,38.48,0,0,0,4.85-.52c1.1-.15,1.07-.19,1.5,1s.91,2.18,1.33,3.29a7.84,7.84,0,0,1,.26,1.27l0,0c-.31-.44-.6-.88-.93-1.3a2.39,2.39,0,0,0-.42-.35c-.14.2-.28.39-.41.59a.32.32,0,0,0,0,.18c.12,1.43.16,2.87.38,4.29s.62,3,.92,4.58a1.49,1.49,0,0,1-.1.53,1.77,1.77,0,0,1-.31-.45c-.83-2.76-1.65-5.52-2.49-8.28a10.29,10.29,0,0,0-.6-1.31c-.07.46-.15.92-.21,1.38a3.49,3.49,0,0,0,0,.56c0,.49.05,1,.08,1.48a6.8,6.8,0,0,1-.52-1.38c-.16-1.11-.23-2.24-.34-3.36,0-.31.06-.71-.1-.92a3.93,3.93,0,0,0-1-.7c-.17.3-.52.63-.47.9.23,1.42.56,2.82.85,4.22.11.54.2,1.09.3,1.63Zm2.61-3-.08-.13.11.09c0,.49,0,1,.06,1.46,0,.12.25.22.39.32.1-.14.31-.33.27-.4C109.91,113.74,109.63,113.3,109.37,112.86Zm-17,0a1.26,1.26,0,0,0-.58,1.68.16.16,0,0,0,.14.06c.76-.36.44-1,.45-1.6a.71.71,0,0,0,0-.18l.1-.09Zm17.37-2.28c-.07-.29-.12-.6-.22-.89s-.33-.77-.77-.48a1.06,1.06,0,0,0-.4.86,5.39,5.39,0,0,0,.55,1.36c0,.1.22.23.28.21a.79.79,0,0,0,.4-.33A3.4,3.4,0,0,0,109.79,110.58ZM92,110.32a3.28,3.28,0,0,0,.12.77,3.57,3.57,0,0,0,.42.56c.17-.17.34-.32.49-.51a.67.67,0,0,0,.13-.34c0-.5.71-1,0-1.5-.13-.1-.45-.2-.48-.16C92.46,109.57,92.2,110,92,110.32Z"/><path class="a" d="M72.05,105.27l-4.87,3.09c-.08.05-.21,0-.31,0,0-.16,0-.38.07-.46,1.62-1.38,3.25-2.75,4.87-4.12.48-.4,1-.81,1.4-1.25a.5.5,0,0,0,.08-.47.56.56,0,0,0-.49-.11c-1.83.62-3.65,1.25-5.47,1.9-.94.33-1.88.69-2.82,1a3.22,3.22,0,0,1-.9.21.59.59,0,0,1-.44-.29c0-.08.08-.35.19-.41.91-.54,1.85-1,2.76-1.59.17-.11.26-.36.39-.54a2.06,2.06,0,0,0-.68-.12c-.3,0-.58.26-.88.31a4.16,4.16,0,0,1-.88,0,2.81,2.81,0,0,1,.62-.51c.69-.3,1.41-.53,2.11-.81a.36.36,0,0,0,.17-.28.32.32,0,0,0-.25-.19c-.62,0-1.25.07-1.87.11l0,0c.55-.25,1.08-.54,1.65-.74,1.77-.61,3.53-1.22,5.32-1.75,1-.28,1.08-.89,1-1.71l-.06.07c1.49,1.42,3,2.82,4.46,4.27.62.62.54,1.06-.17,1.73-1.41,1.33-2.84,2.65-4.25,4a2.37,2.37,0,0,0-.34.6c.22,0,.52.09.64,0,1.7-1.55,4.15-2.13,5.46-4.21a.81.81,0,0,1,.76-.22c1.1.54,2.17,1.15,3.25,1.74l0,0a8.84,8.84,0,0,0-3.4,3.12c-1.07,1.37-2.18,2.71-3.28,4.06-.07.09-.26.07-.39.11a1,1,0,0,1,0-.35c.11-.22.29-.41.39-.64s.8-.57.36-1.06a5,5,0,0,0-1,.64c-.6.43-1.19.87-1.79,1.31h0c0-1.32,1.12-2,1.7-3A28,28,0,0,1,77,106.25c.09-.12.05-.32.07-.48-.18,0-.38-.11-.52-.05a9,9,0,0,0-1,.58l-5.43,3.36a2.66,2.66,0,0,1-.69.29,4.63,4.63,0,0,1-.69.08,2.75,2.75,0,0,1,.37-.75c.35-.36.78-.64,1.15-1,.88-.81,1.76-1.62,2.6-2.46a3.11,3.11,0,0,0,.44-.87l-.84.23-.54.13,1.2-1.54a5,5,0,0,0,2.59-2c.07-.08,0-.32-.07-.47a.36.36,0,0,0-.31,0c-.76.79-1.51,1.58-2.26,2.38a6.72,6.72,0,0,0-1.51.85C71,105.17,71.66,105.2,72.05,105.27Zm3-5.48c-.24-.21-.38-.42-.51-.42a3.32,3.32,0,0,0-1.26.2c-1.52.72-3,1.47-4.51,2.28-.86.47-1.66,1.07-2.49,1.6,1.14.3,1.92-.61,2.87-.93,1.72-.57,3.38-1.34,5-2.06A4.42,4.42,0,0,0,75,99.79Zm4.8,4.39c-.11-.12-.19-.28-.26-.28a.7.7,0,0,0-.47.18q-1.31,1.8-2.57,3.64c-.07.11,0,.32,0,.49.16-.06.37-.06.46-.17.89-1.12,1.76-2.25,2.62-3.39A2.11,2.11,0,0,0,79.83,104.18Zm-7.89-5c-.25-.08-.4-.18-.45-.14-.28.21-.54.46-.81.7.11,0,.26.13.32.09C71.3,99.67,71.58,99.45,71.94,99.2Z"/><path class="a" d="M136.94,100.74c-.31,0-.63,0-.94,0s-.78.09-1.17.13l1.09.62c.05,0,.12,0,.17.07.52.34,1.36.13,1.62.92-.59-.11-1.18-.24-1.77-.31a1.83,1.83,0,0,0-.65.18c.14.18.25.41.43.52.86.51,1.75,1,2.61,1.5.15.09.19.37.28.56-.22.08-.49.27-.67.21-1.14-.36-2.25-.78-3.38-1.17-1.76-.62-3.52-1.26-5.3-1.85a2.35,2.35,0,0,0-.84,0,2.39,2.39,0,0,0,.36.62c1,.89,2,1.76,3,2.61s2,1.66,3.05,2.51c.13.11.14.37.21.56a1.77,1.77,0,0,1-.49-.12c-1.88-1.11-3.76-2.23-5.64-3.33-.12-.07-.33,0-.5,0,.05.16.06.36.16.46,1.18,1.13,2.37,2.24,3.57,3.36.32.3.65.59,1,.89.07.07.14.25.1.3a.35.35,0,0,1-.31.12,10.68,10.68,0,0,1-1.54-.7c-1.87-1.14-3.71-2.32-5.57-3.48a1.71,1.71,0,0,0-.5-.25.8.8,0,0,0-.52.05c-.06,0,0,.32,0,.45.15.34.33.66.5,1-.51-.52-1.06-1-1.52-1.57s-.66-1.05-1-1.56c-.08-.12-.31-.13-.48-.19-.05.21-.22.5-.14.61.85,1.16,1.73,2.29,2.62,3.41.12.15.37.18.56.27,0-.23,0-.45-.06-.68s0-.24,0-.37c1.3,1.33,2.59,2.67,3,4.57h0c-.77-.61-1.54-1.23-2.33-1.83a1.48,1.48,0,0,0-.5-.15c0,.16-.06.35,0,.48.25.54.54,1.07.82,1.6a18,18,0,0,1-1.34-1.31c-1.15-1.38-2.21-2.84-3.42-4.16a17,17,0,0,0-2.32-1.82l0,0a19.77,19.77,0,0,1,1.68-1.12,6.72,6.72,0,0,1,1.74-.69c.84-.18.78.82,1.29,1.14.74.46,1.4,1.06,2.11,1.56s1.63,1.14,2.47,1.67a2.25,2.25,0,0,0,.81.14,3.24,3.24,0,0,0-.44-.73c-1.36-1.3-2.74-2.57-4.1-3.86-.75-.71-.8-1.15-.08-1.86,1.42-1.41,2.88-2.77,4.32-4.15l-.06-.07a1.4,1.4,0,0,0,1.17,1.77c1.79.5,3.56,1.12,5.32,1.72a12.5,12.5,0,0,1,1.46.71Zm-1.38,2.71c-.06-.11-.1-.25-.2-.31-1.56-.93-3.1-1.91-4.71-2.74a16.57,16.57,0,0,0-3-1.07c-.19-.05-.49.27-.73.42a3.07,3.07,0,0,0,.38.59,1.59,1.59,0,0,0,.51.24l6.75,2.83a3.46,3.46,0,0,0,.72.21C135.37,103.6,135.47,103.5,135.56,103.45ZM126,101.26c0,.26,0,.56.11.66,1.28,1.07,2.58,2.11,3.88,3.15.07.06.22,0,.33,0,0-.16,0-.39,0-.47-1.25-1.11-2.52-2.19-3.79-3.27C126.4,101.31,126.26,101.32,126,101.26Zm5.47-1.38c-.56-.41-.83-.64-1.13-.82-.07,0-.22,0-.34.07a5.77,5.77,0,0,0,.63.63C130.75,99.84,131,99.81,131.47,99.88Z"/><path class="a" d="M88.25,117l-.37.77c-.12-.1-.24-.21-.37-.3s-.08,0-.12.07l.53.19c-.94,2.1-1.87,4.21-2.82,6.31-.07.15-.26.24-.39.36a1.49,1.49,0,0,1-.08-.5,9.1,9.1,0,0,1,.31-1.08c.75-2.24,1.49-4.49,2.27-6.72.35-1,.77-2,1.15-2.94a2.4,2.4,0,0,0,.25-.89c0-.76-.45-.27-.74-.19l0,0c.3-1.07.64-2.13.89-3.22.06-.28-.18-.63-.28-.95-.25.12-.52.22-.76.36s-.12.24-.21.29a.8.8,0,0,1-.44.06.41.41,0,0,1-.06-.31c.17-.43.72-.93.08-1.28s-.91.36-1.23.78l-.76,1.05a4.71,4.71,0,0,1-1,1.31c-.26.17-.61-.73-1.19-.39.33-.53.67-1,1-1.58a16,16,0,0,0,.79-1.68c0-.1-.12-.31-.24-.43s-.26,0-.33.05a2.31,2.31,0,0,0-.63.67,15.17,15.17,0,0,0-1.16,2.92c-.11.48.4.07.63,0a6,6,0,0,1-.49,1.74c-1.23,1.87-2.55,3.68-3.86,5.5-.09.13-.31.15-.47.23a1.56,1.56,0,0,1-.07-.61,3,3,0,0,1,.47-1c1.53-1.84,2.3-4.08,3.32-6.19.09-.18,0-.45,0-.67-.23,0-.52,0-.67.12-1.72,1.54-3.42,3.11-5.14,4.66-.13.12-.39.09-.59.13,0-.17,0-.39.14-.5,1.09-1.11,2.2-2.2,3.3-3.31s2.41-2.52,3.65-3.75a1.08,1.08,0,0,0,0-1.63l0,0c.86.36,1.71.73,2.58,1.06,1.46.55,2.94,1.08,4.41,1.61.94.34,1,.41.47,1.27a6.8,6.8,0,0,0-.9,3A16.39,16.39,0,0,1,88,115.21c-.12.36-.27.7-.4,1.06-.25.7.32.64.71.76Z"/><path class="a" d="M113.56,113.94a2.66,2.66,0,0,1-.85-2.35,5.19,5.19,0,0,0-1.07-3.27c-.41-.53-.19-.78.3-1,1.11-.4,2.25-.75,3.35-1.17,1.33-.51,2.63-1.09,3.94-1.64l0,0a1.1,1.1,0,0,0,.08,1.63c1.15,1.14,2.23,2.35,3.37,3.5s2.4,2.36,3.57,3.56c.13.13.11.42.16.63a2.09,2.09,0,0,1-.63-.26c-1.58-1.42-3.14-2.87-4.71-4.3a2.72,2.72,0,0,0-.76-.53c-.08,0-.45.29-.42.36a9.25,9.25,0,0,0,.56,1.37,25.1,25.1,0,0,0,2.63,4.88,7.22,7.22,0,0,1,.77,1.82c-1,.14-1-.77-1.34-1.25-1.09-1.43-2.15-2.89-3.14-4.4a6.37,6.37,0,0,1-.52-1.74c.24.05.78.41.65,0a22.22,22.22,0,0,0-1.5-3.36c-.08-.16-.4-.21-.61-.31,0,.26-.2.59-.11.78.5,1,1.06,1.95,1.6,2.92-.24,0-.58-.06-.69.07-.26.29-.42.65-.77.1q-.76-1.18-1.55-2.34c-.27-.4-.54-1-1.14-.6s-.18.75,0,1.14a1.18,1.18,0,0,1,0,.48,3.73,3.73,0,0,1-.53-.26c-.1-.06-.12-.25-.22-.29s-.49-.22-.65-.15a.72.72,0,0,0-.31.59,5.64,5.64,0,0,0,.3,1.07c.23.78.8,1.47,0,2.38-.29.33.13,1.28.22,1.95Z"/><path class="a" d="M62.62,98.14c.23-.18.43-.47.69-.53a49.5,49.5,0,0,0,7.3-2.38c1-.42,1.48,0,2.15,1.42l.06-.07c-1.57.58-3.15,1.12-4.7,1.74-1,.39-1.92.89-2.88,1.32-.28.13-.69.35-.87.25a2.8,2.8,0,0,0-3,.29c-.07,0-.21,0-.32-.05.05-.11.08-.26.16-.31.71-.38,1.44-.73,2.15-1.12a2.29,2.29,0,0,0,.46-.48c-.23,0-.47-.09-.7-.12s-.37,0-.56,0ZM68.27,97c-.45.2-1.12-.37-1.42.39a.17.17,0,0,0,.07.15c.66.31.95-.21,1.3-.59Zm2.91-.88L71,95.77l-1.72.7s-.1.13-.08.15.16.2.2.19C70,96.59,70.6,96.36,71.18,96.13Z"/><path class="a" d="M129,96.64c.87-1.66,1.22-1.76,2.72-1.22,2.05.74,4.15,1.34,6.22,2a7.16,7.16,0,0,1,1.21.69l0,0a6.34,6.34,0,0,0-.75,0,2.47,2.47,0,0,0-.51.15,1.7,1.7,0,0,0,.35.37c.76.42,1.54.81,2.3,1.23.08,0,.09.2.13.31-.11,0-.25.07-.33,0a4.73,4.73,0,0,0-3-.37c-1.11.08-2.28-.84-3.44-1.3-1.67-.66-3.35-1.29-5-1.93Zm4.5.37-.1-.09.14,0c.37.36.66.89,1.32.58a.17.17,0,0,0,.07-.15C134.66,96.64,134,97.21,133.53,97Zm-1.15-.37.22.14-.16-.2-1.72-.77a.79.79,0,0,0-.09.13Z"/><path class="a" d="M116.16,114c.54,1.11,1.13,2.19,1.6,3.32.59,1.44,1.09,2.91,1.62,4.38a1.27,1.27,0,0,1,0,.35c-.14-.05-.35-.06-.41-.16-1.11-1.89-2.23-3.76-3.28-5.68-.62-1.15-1.12-2.36-1.65-3.56,0-.11.07-.29.11-.44.1.08.23.14.28.24.29.55.56,1.11.83,1.68.51,1.07.67.15.93-.17Z"/><path class="a" d="M82.54,121.83A51.65,51.65,0,0,1,85.63,114l-.06,0c.28.23.35,1.2,1,.22.44-.7.43-1.7,1.36-2.07l0,0A39.91,39.91,0,0,1,86.21,116c-1.1,2-2.36,4-3.56,5.94Z"/><path class="a" d="M113.52,114c1.22,1,1.16,2.55,1.67,3.85.63,1.62,1.13,3.29,1.69,4.94a9.58,9.58,0,0,1,.32,1.08,1.72,1.72,0,0,1-.06.53c-.13-.12-.32-.21-.39-.36-.32-.68-.59-1.38-.91-2.06-.74-1.57-1.5-3.14-2.26-4.7-.3-.62-.63-1.22-.92-1.84-.05-.11.05-.29.08-.43.1.07.24.12.3.21.36.56.7,1.12,1,1.69.53-.8-.3-1.34-.39-2,0-.3-.09-.61-.13-.91Zm.94,3.47-.07.12h.12Z"/><path class="a" d="M131.46,68c-.11-.12-.31-.24-.33-.38s-.08-.7.07-.81a16.84,16.84,0,0,1,2-1.29,14,14,0,0,1,2-1,9.08,9.08,0,0,0,2.87-2,1.35,1.35,0,0,1,.48-.16c-.06.2,0,.47-.18.58-1.15,1-2.29,1.91-3.49,2.81-.94.7-2,1.31-2.94,2A5.51,5.51,0,0,1,131.46,68Z"/><path class="a" d="M70.84,67.14a.64.64,0,0,1-1,.61c-1.25-.81-2.51-1.62-3.71-2.51-1-.74-1.93-1.58-2.87-2.4-.09-.07-.05-.29-.07-.44.11,0,.28,0,.33.05,1.8,2,4.58,2.46,6.64,4.06A8.06,8.06,0,0,1,70.84,67.14Z"/><path class="a" d="M109.88,124.31a.91.91,0,0,1-.16.16.17.17,0,0,1-.16,0,6.25,6.25,0,0,1-.44-.82c-.58-1.5-1.15-3-1.71-4.51a2.3,2.3,0,0,1,0-.7,3.66,3.66,0,0,1,.46.37,3.38,3.38,0,0,1,1.22,2.25C109.32,122.1,109.6,123.18,109.88,124.31Z"/><path class="a" d="M94.56,118.62a2.34,2.34,0,0,1-.06.27c-.7,1.8-1.4,3.61-2.12,5.4-.05.13-.23.21-.35.32a1.34,1.34,0,0,1-.09-.48,39.56,39.56,0,0,0,.93-4.2c.11-1,1.31-.72,1.41-1.55Z"/><path class="a" d="M116.21,113.95c-.53-1.11-1.08-2.21-1.55-3.34-.1-.25,0-.6.08-.9.29.12.59.22.86.36a1.2,1.2,0,0,1,.41.36c.81,1.17,1.61,2.35,2.41,3.53l0,0c-.76-.78-1.52-1.56-2.3-2.33a4.25,4.25,0,0,0-.57-.41,2.58,2.58,0,0,0,0,.67c.17.72.37,1.42.57,2.13Z"/><path class="a" d="M83.76,113.6c.71-1.09,1.4-2.19,2.15-3.25.14-.19.61-.14.77-.33.54-.68.56-.1.52.22a6.46,6.46,0,0,1-1.62,3.69l.06,0c.16-.59.34-1.18.48-1.78a8,8,0,0,0,.1-1c-.27.24-.54.46-.8.71-.57.55-1.12,1.11-1.69,1.66Z"/><path class="a" d="M81.42,116.59a19.16,19.16,0,0,1-1,1.74,19.28,19.28,0,0,1-1.35,1.5c-.31-.86.62-1.08.87-1.65s.46-1.62,1.56-1.54Z"/><path class="a" d="M121.75,118.57l-1.39-2-.05.05c1.27-.08,1.38.89,1.61,1.76Z"/><path class="a" d="M83,114.75c-.21.63-.37,1.31-1.18,1.46l0,0c-.12-.85.56-1.14,1.08-1.55Z"/><path class="a" d="M136.91,100.77c.55.08,1.11.13,1.65.24.13,0,.23.22.35.34-.17,0-.37.11-.52.05-.5-.19-1-.44-1.46-.66Z"/><path class="a" d="M106.72,115.86a3.09,3.09,0,0,1,.53.7c.06.16-.09.4-.15.61a1.51,1.51,0,0,1-.24-.42,8.71,8.71,0,0,1-.09-.92Z"/><path class="a" d="M120,116.21c-.77-.19-1-.84-1.17-1.47l.07-.06c.48.44,1.28.65,1.07,1.56Z"/><path class="a" d="M119.18,113.22a8.76,8.76,0,0,1,.68.78c.08.12.05.33.07.49-.13-.1-.32-.17-.38-.3a9.61,9.61,0,0,1-.34-1Z"/><path class="a" d="M101.21,117.36c-.11.31-.18.54-.27.77l-.11,0c0-.34,0-.68.06-1Z"/><path class="a" d="M88.63,116.22c.07-.36.12-.73.21-1.08,0-.08.19-.11.29-.17,0,.11.13.26.09.33-.17.32-.39.62-.59.93Z"/><path class="a" d="M128.25,111.7a1.37,1.37,0,0,1,.42.24c.07.08,0,.26,0,.39-.09-.05-.23-.09-.28-.17a2.32,2.32,0,0,1-.15-.48Z"/><path class="a" d="M105.87,101.84c-.31,0-.63,0-.94,0-.06,0-.12-.12-.15-.2s.07-.1.12-.13a1.83,1.83,0,0,1,.53-.18c.5,0,1,0,1.51-.05l2-.07c-.72.21-1.42.45-2.15.63a4.76,4.76,0,0,1-.94.05Z"/><path class="a" d="M94.15,101.2c1.09.07,1.78.1,2.46.18.16,0,.3.19.45.29a1.18,1.18,0,0,1-.41.16c-.75,0-1.5,0-2.24-.12a9.56,9.56,0,0,1-1.41-.39Z"/><path class="a" d="M87.63,99.4c.88.29,1.78.56,2.65.88.52.19,1,.46,1.51.69a15.41,15.41,0,0,1-1.74-.33c-.83-.25-1.63-.58-2.44-.89-.11,0-.19-.16-.28-.24Z"/><path class="a" d="M114.54,99.47c-.19.17-.27.29-.38.33q-1.84.66-3.69,1.3c-.1,0-.24,0-.35-.06.09-.1.16-.26.27-.3q1.84-.66,3.7-1.29A1.49,1.49,0,0,1,114.54,99.47Z"/><path class="a" d="M116.18,98.49l3.36-1.92.09.11c-1,.87-2,1.87-3.45,1.83Z"/><path class="a" d="M101,102.13c-.21,0-.39,0-.57-.08l-1.24-.31,1.16-.1a5.44,5.44,0,0,1,.74,0c.5,0,1,.09,1.49.13Z"/><path class="a" d="M83.36,97.35a3.23,3.23,0,0,1,2.27,1.13l0,0a2.41,2.41,0,0,1-2.27-1.13Z"/><path class="a" d="M77.71,92.81c-.38-.35-.77-.7-1.13-1.06,0,0,0-.19,0-.29.1.06.24.09.29.18.27.39.51.8.77,1.2Z"/><path class="a" d="M124.88,92.09c0-.11,0-.26,0-.33a1.52,1.52,0,0,1,.35-.27,1.52,1.52,0,0,1-.12.41c-.05.08-.19.11-.29.16Z"/><path class="a" d="M124.85,92.06c0,.47-.22.79-.76.74l0,0,.75-.75Z"/><path class="a" d="M78.09,93.18l-.38-.37,0,0,.36.39Z"/><path class="a" d="M123.75,93.22l.37-.38,0,0-.39.37Z"/><path class="a" d="M80.35,95.06l-.19-.13s.08,0,.1,0a.54.54,0,0,1,0,.15Z"/><path class="a" d="M121.48,95.1l.16-.16s0,.08-.06.09a.54.54,0,0,1-.15,0Z"/><path class="a" d="M80.3,95.11l.17.07-.12-.12Z"/><path class="a" d="M121.44,95l0,.16.09-.11Z"/><path class="b" d="M141.49,224.12c-.2-.22-.44-.18-.68-.2-.44,0-.59.26-.43.57s.42.37,0,.69c-.55.47-1.15.9-1.69,1.36a5.39,5.39,0,0,1-5.82,1.15c-2.08-.8-3.87-1.93-4.32-4.37-.79-.55.12-1.63-.67-2.18.59-.69.22-1.52.35-2.28,0-.15.32-.26.35-.41.32-1.51,1.6-2.28,2.57-3.27a3.7,3.7,0,0,1,2.15-.73,5.52,5.52,0,0,1,3.48,0,6,6,0,0,1,3.08,1.67,1.46,1.46,0,0,1,.46.76c.14.69.57.8,1.1.45a3.49,3.49,0,0,0,1.09-1.63c.14-.3.57-.55.41-1s-.65-.16-1-.27a6.83,6.83,0,0,1-1.27-.56,9.06,9.06,0,0,0-3.8-1.25c-2.58-.28-5.21-.23-7.55,1.26s-3.74,3.35-3.75,6.15c0,.31,0,.63,0,.94,0,2.55,0,2.54,1.13,4.63s2.88,2.91,4.93,3.57a12,12,0,0,0,4.19.35,8.78,8.78,0,0,0,5.69-2.17,1.64,1.64,0,0,1,1.14-.48c.65,0,.92-.6.51-1.06S142,224.72,141.49,224.12Z"/><path class="b" d="M91.83,215.7a11.85,11.85,0,0,0-4.75.22,10.06,10.06,0,0,0-3.25,1.73,5.75,5.75,0,0,0-1.88,3.16,7.51,7.51,0,0,0,0,3.55A5.79,5.79,0,0,0,83,226.71a6.72,6.72,0,0,0,3.46,2.46,6.83,6.83,0,0,0,3.39.39,8.49,8.49,0,0,0,4.06-.67,5.45,5.45,0,0,0,2.36-1.53,7,7,0,0,0,1.8-4.9C97.79,218.31,95.51,216.34,91.83,215.7Zm3.61,7a5.39,5.39,0,0,1-5.52,5.41,6.14,6.14,0,0,1-4.54-2.28c-.9-1-.78-2.2-1.27-3.26A6,6,0,0,1,90,217.14C92.45,217.1,95.81,219.27,95.44,222.67Z"/><path class="b" d="M39.92,216.34c-1.9-.88-3.81-.68-5.74-.68a5.68,5.68,0,0,0-2.05.49A6.71,6.71,0,0,0,28,220.75,6.81,6.81,0,0,0,29.23,227a6.43,6.43,0,0,0,3.22,2.2c1.09.27,2.22.75,3.34.41a7.45,7.45,0,0,0,4.11-.7,8.63,8.63,0,0,0,2.42-1.44,7.3,7.3,0,0,0,1.43-7.2A6.57,6.57,0,0,0,39.92,216.34ZM35.18,228a4.61,4.61,0,0,1-3-1.46,7.29,7.29,0,0,1-1.76-2.87A4.49,4.49,0,0,1,31,220a5.44,5.44,0,0,1,3.21-2.56c2.66-.71,5.52.14,6.77,2.42a3.17,3.17,0,0,1,.5,2.49C41.84,225.49,38.77,228.58,35.18,228Z"/><path class="b" d="M59,216.42c-1.43-.36-2.81-1.2-4.12-.8a15,15,0,0,1-1.59,0,5,5,0,0,0-2.61.54,6.59,6.59,0,0,0-3.47,3,9.16,9.16,0,0,0-.85,4,6.33,6.33,0,0,0,1.23,3.65,5.81,5.81,0,0,0,3.14,2.35,12.18,12.18,0,0,0,7.18,0,5.85,5.85,0,0,0,2.86-1.72,7.35,7.35,0,0,0,1.46-7.37C61.84,218.91,60.07,216.7,59,216.42ZM57.82,227a5,5,0,0,1-4.24,1,4.86,4.86,0,0,1-3-1.52A6.25,6.25,0,0,1,49,223.59a5.38,5.38,0,0,1,3.64-6.08c3.4-1.18,5.42.52,6.79,2.34A3.32,3.32,0,0,1,60,222.5,4.93,4.93,0,0,1,57.82,227Z"/><path class="b" d="M110.33,215.7a12.47,12.47,0,0,0-4.75.23c-2.82.61-4.28,2.47-5.17,4.86a7.77,7.77,0,0,0,0,3.55,5.39,5.39,0,0,0,1.22,2.49,6.67,6.67,0,0,0,3.35,2.33,6.8,6.8,0,0,0,3.39.39,8.5,8.5,0,0,0,4.07-.67,5.37,5.37,0,0,0,2.37-1.52,7,7,0,0,0,1.81-4.9C116.27,218.29,114,216.34,110.33,215.7ZM107.63,228a4.6,4.6,0,0,1-3-1.46,7.28,7.28,0,0,1-1.76-2.87,4.51,4.51,0,0,1,.54-3.66,5.44,5.44,0,0,1,3.21-2.56c2.66-.71,5.52.14,6.77,2.42a3.17,3.17,0,0,1,.5,2.49C114.29,225.49,111.22,228.58,107.63,228Z"/><path class="b" d="M26.45,213H22.68c-.21,0-.38.05-.43.24a.4.4,0,0,0,.16.49c.91.46.43,1.11.19,1.67s-.64.78-.71,1.21c-.23,1.42-1.09,2.57-1.56,3.89s-1.1,2.56-1.69,3.83c-.23.5-.53,1-.79,1.45a12.36,12.36,0,0,1-.79-1.56c-1.1-3.19-2.65-6.2-3.9-9.33-.21-.52-.24-.76.19-1.15s.26-.73-.2-.73c-1.26,0-2.52,0-3.77,0-.22,0-.32.12-.35.33s.07.42.25.41c.88,0,1,.81,1.11,1.24.31,1.59,1.32,2.85,1.84,4.35a72.24,72.24,0,0,0,3.32,7.49,2.23,2.23,0,0,1,.26,1.21c-.1,1.19-.13,1.19,1,1.2h.94c.75,0,1.51,0,2.26,0a.35.35,0,0,0,.28-.54,1.39,1.39,0,0,1-.2-1.68c.95-2.19,2-4.34,2.84-6.56.61-1.57,1.67-3,2-4.66.69-.6.48-1.93,1.71-2.1.05,0,.1-.2.12-.31A.29.29,0,0,0,26.45,213Z"/><path class="b" d="M75.86,216.44a11.29,11.29,0,0,0-3-.47c-2.07.13-4.15,0-6.22,0-1.38,0-1.4,0-.74,1.15a1.89,1.89,0,0,1,.14,1.07c0,2.89,0,5.78,0,8.67a1.71,1.71,0,0,1-.65,1.62.4.4,0,0,0-.1.51c.07.2.29.18.48.18h7.92a5.86,5.86,0,0,0,3-.81,6.63,6.63,0,0,0,2.83-4.63,7.37,7.37,0,0,0-1.11-5.17A4.22,4.22,0,0,0,75.86,216.44Zm.4,9.25a3.91,3.91,0,0,1-3,2,34.92,34.92,0,0,1-4.87,0,28.61,28.61,0,0,1-.14-4.46c0-.19,0-.38,0-.56,0-1.51,0-3,0-4.52,0-.52.19-.62.65-.61,1.25,0,2.52-.11,3.76,0,2.52.3,4.22,1.45,4.27,4.48A6.36,6.36,0,0,1,76.26,225.69Z"/><path class="b" d="M197,218.71a4.58,4.58,0,0,0-2.5-2.25,7.7,7.7,0,0,0-2.84-.49,31.1,31.1,0,0,1-3.2,0h-4.15c-.18,0-.42-.06-.49.16s0,.44.06.49c.74.43.65,1.13.65,1.82q0,4.24,0,8.49c0,.57,0,1.12-.54,1.48a.45.45,0,0,0-.16.64c.11.22.33.14.51.14,2.7,0,5.41.05,8.11,0a6.83,6.83,0,0,0,2.36-.65c2.11-.89,2.86-2.83,3.26-4.82A7,7,0,0,0,197,218.71Zm-1.53,4.46a4.44,4.44,0,0,1-3.15,4.46,2.62,2.62,0,0,1-.91.07H187.6c-.84,0-.85,0-.85-.95,0-1.38,0-2.76,0-4.14q0-1.69,0-3.39c0-1.71,0-1.71,1.79-1.71a15.6,15.6,0,0,0,2.07,0A5.26,5.26,0,0,1,193,218c1.59.54,2.11,2,2.37,3.47A16,16,0,0,1,195.43,223.17Z"/><path class="b" d="M160.19,228.5c-.61-.39-.63-1-.62-1.63,0-2.89,0-5.77,0-8.66a1.82,1.82,0,0,1,.15-1.07c.67-1.11.65-1.13-.58-1.14-.63,0-1.26,0-1.88,0-.23,0-.54-.12-.68.16s.1.56.33.77a.89.89,0,0,1,.39.78,23.78,23.78,0,0,1-.15,3.9l-3.37,0h-.38c-1.13,0-2.26,0-3.39,0-.45,0-.68-.07-.66-.6,0-1.07,0-2.13,0-3.2a1.27,1.27,0,0,1,.13-.7c.66-1.14.64-1.16-.7-1.16-.5,0-1,0-1.51,0-.3,0-.68-.19-.87.13s.16.67.42.89a.92.92,0,0,1,.27.84q0,4.71,0,9.42a1,1,0,0,1-.38,1c-.25.18-.54.42-.35.76s.56.16.86.17c.82,0,1.63,0,2.45,0,.21,0,.38-.06.43-.25a.43.43,0,0,0-.16-.49,1.49,1.49,0,0,1-.6-1.45c0-1,0-2,0-3,0-.61,0-.9.79-.86,1.57.08,3.14,0,4.71,0,.8,0,1.83-.38,2.32.19s.16,1.44.1,2.18c-.09,1.06.46,2.27-.72,3.1a.35.35,0,0,0,.27.54c1,0,2,0,3,0,.2,0,.4,0,.46-.21A.4.4,0,0,0,160.19,228.5Z"/><path class="b" d="M181.47,227c-.23,0-.64-.14-.67.13-.08.75-.58.62-1.05.62h-6c-.92,0-.94,0-.94-.86,0-2.88,0-5.77,0-8.65a1.53,1.53,0,0,1,.6-1.45.43.43,0,0,0,.16-.49c-.05-.19-.22-.25-.43-.25-.44,0-.88,0-1.32,0h-1.5c-.18,0-.4,0-.49.17a.49.49,0,0,0,.22.64c.5.31.52.77.52,1.3,0,2.88,0,5.77,0,8.65,0,.69.06,1.35-.65,1.82-.29.19-.09.62.25.63s.75,0,1.13,0h8.46c.44,0,1-.25,1.07.6,0,.31.55.15.84.14s.22-.24.22-.44c0-.69,0-1.38,0-2.07C181.84,227.19,181.84,226.91,181.47,227Z"/><path class="b" d="M166.67,216H164c-.24,0-.54-.09-.67.18a.52.52,0,0,0,.23.64,1.25,1.25,0,0,1,.51,1.11c0,3.13,0,6.26,0,9.4,0,.31,0,.59-.26.84s-.69.45-.44.89.57.13.87.14c.56,0,1.13,0,1.69,0,1.2,0,1.22,0,.55-1.14a1.84,1.84,0,0,1-.14-1.07c0-2.88,0-5.76,0-8.65,0-.64,0-1.24.61-1.63a.41.41,0,0,0,.14-.5C167.07,216,166.87,216,166.67,216Z"/></svg>