<svg xmlns="http://www.w3.org/2000/svg" viewBox="0 0 274.4 230"><defs><style>.a{fill:#a6aebf;}</style></defs><title>logo-tucana</title><path class="a" d="M166.65,162.55H158c0-2,0-3.88,0-5.79,0-1.46-.53-2.58-2.06-2.6s-2.1,1.06-2.07,2.54c0,1.87,0,3.74,0,5.76h-8.63c0-2,0-3.9,0-5.82,0-1.41-.58-2.44-2-2.49s-2.21.95-2.2,2.46c0,1.93,0,3.85,0,5.89h-8.58c0-1.95,0-3.81,0-5.67,0-1.45-.48-2.5-2-2.71-1.25-.18-2.17,1-2.19,2.69,0,1.86,0,3.73,0,5.7h-8.55c0-1.57,0-3.16,0-4.75,0-.69.17-1.53-.16-2-.46-.68-1.52-1.66-2-1.51a3.2,3.2,0,0,0-1.93,2,47.29,47.29,0,0,0-.09,6.24h-8.62c0-.75,0-1.42,0-2.09,0-4.89,0-9.77,0-14.66,0-3.89-2.58-6.42-6.5-6.48-2.07,0-4.13,0-6.2,0a8.44,8.44,0,0,1-8.43-8.53c0-8.64-.08-17.29,0-25.93.24-23.3,17.67-43.8,41.16-48.51,29.1-5.84,57.25,14.87,60.4,44.46a51.35,51.35,0,0,1,.29,5.25q0,12.4,0,24.81a8.42,8.42,0,0,1-8.3,8.46c-1.82.05-3.63,0-5.45,0-5,0-7.39,2.37-7.38,7.33q0,7,0,13.91C166.65,161.12,166.65,161.73,166.65,162.55ZM112.25,100a14.8,14.8,0,0,0-5.8,28.33c4.67,2.16,8.66,1.69,12.14-1.6A73.57,73.57,0,0,0,125.1,120a9.06,9.06,0,0,0,2-4.67C127.81,107.11,120.49,99.7,112.25,100Zm63.82,14.9A14.92,14.92,0,0,0,161.35,100c-7.58-.25-14.42,6.2-14.9,14a7.82,7.82,0,0,0,2.17,6.17c2.25,2.34,4.52,4.67,6.87,6.91a8.35,8.35,0,0,0,6.23,2.56A14.83,14.83,0,0,0,176.07,114.91Zm-32.19-19c-9-2-13.87-6.5-14.42-13.51A14.8,14.8,0,0,1,133.14,71c2.89-3.26,6.64-4.77,11.25-5.12a16.74,16.74,0,0,0-21.48,5.43A17,17,0,0,0,125,92.94C130.2,98,139.43,99.42,143.88,95.94Zm-7,28.43c-4.1,5.22-7.51,10.39-8.39,16.84-.21,1.57-.11,3.06,1.45,3.93s2.89.18,4.08-.88c.23-.21.45-.44.69-.64,1.66-1.4,2.61-1.4,4.3,0a13,13,0,0,0,1.91,1.51,2.92,2.92,0,0,0,4.38-2.41,8.69,8.69,0,0,0-.12-2.06C144.14,134.46,140.84,129.43,136.86,124.37Zm2.84-39.86.2.32,4.86-1.14,1.47,4.82.36-.06,1.46-4.78,4.84,1.2.21-.34-3.44-3.66,3.82-4.12L148,78l-1.63-5.38L144.73,78l-5.44-1.28,3.86,4.12Z"/><path class="a" d="M179.13,157.84c0,5.88.21,11.46-.12,17a9.52,9.52,0,0,1-2.56,5.24c-3.35,3.71-7,7.12-10.54,10.69-4.35,4.43-12,4.51-16.45,2.17-1.44-.75-2.85-1.56-4.25-2.39-5.57-3.29-11.13-3.35-16.69,0-3,1.78-5.88,3.61-9.46,3.83-4,.26-7.81-.34-10.81-3.25-4-3.88-7.93-7.82-11.7-11.9a7.14,7.14,0,0,1-1.86-4.18c-.21-5.61-.09-11.24-.09-17.18,1.93.75,3.9,1.44,5.78,2.32.35.16.46,1.08.47,1.65,0,3.38,0,6.76,0,10.14,0,1.45.62,2.75,2.07,3a5.13,5.13,0,0,0,3.21-.76c.56-.36.8-1.5.87-2.32.13-1.6,0-3.23,0-5h8.61c0,1.85,0,3.7,0,5.55,0,1.51.42,2.74,2.08,2.75s2.13-1.23,2.1-2.73c0-1.8,0-3.61,0-5.57h8.57c0,2-.06,4,0,5.94s1.63,3,3,2.08a3.21,3.21,0,0,0,1.12-2.14c.16-1.91.05-3.85.05-5.9h8.58c0,1.93,0,3.78,0,5.64,0,1.52.46,2.71,2.14,2.68s2.05-1.18,2-2.62c0-1.86,0-3.72,0-5.7h8.62c0,2,0,3.9,0,5.82-.05,1.51.54,2.51,2.08,2.5s2.06-1.15,2-2.58c0-1.87,0-3.73,0-5.73h8.61c0,1.55,0,3.09,0,4.63,0,2.28,1.2,3.74,3,3.76s3.15-1.43,3.16-3.81c0-3.19,0-6.39,0-9.58a1.83,1.83,0,0,1,1.36-2.11C175.79,159.21,177.39,158.52,179.13,157.84Z"/><path class="a" d="M233.07,125.94c-.87-5.24-5-8.74-7.3-13.7l6.61,2.62a10.49,10.49,0,0,0-4.11-5,19.18,19.18,0,0,1-6.14-6.73c-.22-.44-.39-.9-.78-1.79L232.67,106l.36-.34a20.45,20.45,0,0,0-2.62-2.84c-2.25-1.68-4.66-3.17-7-4.77a16.79,16.79,0,0,1-6.59-7.57l9.65,4,.34-.33a21.25,21.25,0,0,0-2.45-2.8c-1.64-1.34-3.44-2.5-5.18-3.72-2.8-2-5.3-4.18-6.82-7.88a43.2,43.2,0,0,1,16.18,10.86c4.48,4.82,7.67,10.33,8.51,17s.05,13-1.28,19.66c5.66-5,4.4-12.2,6.53-18.69L245.9,117a12.53,12.53,0,0,0,.3-6.69c-.69-3.63-1.56-7.25.14-11.29l2.85,6.57a13.67,13.67,0,0,0,.48-6.92,32.44,32.44,0,0,1-.41-4.85,30.25,30.25,0,0,1,.86-4.51,30.91,30.91,0,0,1-7.68,37.3c7.29-.44,13.76.9,19.54,4.83s9.57,9.17,12.42,15.82a14.21,14.21,0,0,1-6.38-5c-1.62-2-3.41-3.88-5.13-5.82l-.72.48,2.35,5.86-.32.41a19.74,19.74,0,0,1-3.55-2.6c-1.81-2.06-3.3-4.4-5.05-6.52a38.11,38.11,0,0,0-3.31-3.18l-.48.36,3.05,7.52-.28.36c-1.5-1-3.06-1.94-4.5-3-3-2.28-6-4.6-9.82-5.26a9.7,9.7,0,0,0-2.79-.08c19.74,11.88,25.1,28.51,16.59,49.77a15.47,15.47,0,0,1-.81-3.8c.11-2.92.52-5.83.8-8.75.23-2.45.45-4.9.67-7.35l-.83-.19-2,4.68-2.08,4.94a14.19,14.19,0,0,1-.95-8.05c.51-3.21,1.26-6.39,1.75-9.6a29.32,29.32,0,0,0,0-4.34l-.6-.11-4.71,11.23a16.68,16.68,0,0,1-1.35-9.48,41.92,41.92,0,0,0,.37-4.85,18.22,18.22,0,0,0-.65-3.24l-3,6.82c-1.81-5.07-1.43-10.33-4.42-14.59,1.68,9.23,1,18-4.69,25.82-3.84,5.33-9,8.94-15.33,11.67a14.21,14.21,0,0,1,5-6.44c1.52-1.19,3-2.48,4.37-3.8a12.76,12.76,0,0,0,1.41-2.2l-6.73,2.69a12.62,12.62,0,0,1,4.88-6.06c1.89-1.43,3.83-2.81,5.66-4.32a4.54,4.54,0,0,0,1.33-2.46l-7.74,3.15c1.15-5.24,6.82-6.71,8.72-11.51l-5,1.94,3.4-8.2c1.3-3.14,1-4-2.15-5.34-2.59-1.09-5.19-2.15-8.27-3.42l4.88-2.12c-4.72-2.2-9.76.94-14.27-2l7.65-3.26,0-.66c-1.78,0-3.58-.11-5.35,0-3,.22-5.95.66-8.93.85a5.05,5.05,0,0,1-2.88-1l5.77-2.48,0-.6c-1.7-.08-3.41-.29-5.11-.22-1.93.07-3.85.54-5.78.54a13.62,13.62,0,0,1-4.47-1,31.17,31.17,0,0,1,22.59-1.8C223.15,114,228.58,119.4,233.07,125.94Z"/><path class="a" d="M61.17,80c-1.1,3.15-3.35,5.35-6,7.24-2.14,1.53-4.27,3.06-6.32,4.7a4.67,4.67,0,0,0-1.47,2.53l9.26-3.8.47.47c-1.38,1.66-2.56,3.57-4.2,4.92-2.6,2.14-5.55,3.85-8.26,5.87a49.45,49.45,0,0,0-3.87,3.54l.4.55,11.3-4.6a16.64,16.64,0,0,1-5.43,7.35c-2.08,1.65-4.39,3.11-5.64,6.13l6.67-2.63c-2.21,4.86-6.29,8.27-7.19,13.47C51.07,110.94,64.55,107,81.62,113.24c-2.83,1.43-5.36,1.32-7.94,1.11-2.35-.19-4.71-.2-7.07-.25a5.18,5.18,0,0,0-1.25.44l6.48,2.83a14.25,14.25,0,0,1-8.25.71c-2.28-.36-4.57-.67-6.87-.87a3.6,3.6,0,0,0-2.32.83l7.76,3.29a13.66,13.66,0,0,1-7.13,1.3c-2.26-.13-4.52,0-6.79,0l-.11.78,4.49,2c-2.33,1-4.31,1.81-6.29,2.62-5.61,2.28-5.63,2.33-3.38,7.85.82,2,1.63,4,2.63,6.49l-4.91-1.92c1.88,4.84,7.58,6.29,8.7,11.5l-7.71-3.13-.36.31A19.73,19.73,0,0,0,43.65,152c1.68,1.4,3.54,2.57,5.29,3.89a12.64,12.64,0,0,1,4.57,5.77l-6.1-2.41-.36.3a19.54,19.54,0,0,0,2.12,2.77c1.38,1.27,3,2.23,4.36,3.55a30.94,30.94,0,0,1,3.95,5c-14.58-3.58-22.69-19-19.79-37-1.2,1.05-2.15,3.29-2.83,6.75-.49,2.5-1,5-1.44,7.51l-.48,0-2.73-6.25a12.51,12.51,0,0,0-.51,6.89,18.05,18.05,0,0,1-1.18,10.52l-4.69-11.19-.51,0a44.85,44.85,0,0,0,0,5.32c.48,4,1.26,7.89,1.67,11.86.15,1.48-.4,3-.63,4.56l-.48,0-4.06-9.64c-1,2.46-.52,4.56-.3,6.66.37,3.47.77,6.93,1,10.41a7.7,7.7,0,0,1-.92,3.26A40,40,0,0,1,15.8,162c.22-6.64,1.84-12.87,6-18.25,4-5.16,9.06-9.1,14.48-12.78-2.38-.56-5.87.46-9.06,2.68-2.64,1.84-5.24,3.76-7.86,5.64l-.38-.33,3-7.54L21.6,131a29.45,29.45,0,0,0-3.14,2.82c-1.21,1.43-2.2,3-3.29,4.57a12.63,12.63,0,0,1-6,4.82l2.58-6.52c-2.66,1.08-4,2.92-5.36,4.8A15,15,0,0,1,0,147.1c0-3.67,6.52-12.09,11.88-15.68,5.8-3.88,12.2-5.31,19.6-4.79-11.66-10.63-13.39-23-8.06-37.37a14.05,14.05,0,0,1,1.07,7.87c-.21,2.35-.21,4.71-.25,7.07,0,.32.24.65.49,1.26L27.52,99a14.46,14.46,0,0,1,.7,8.25c-.49,3-1.59,6.09-.25,9.68l3.55-8.32c2.11,6.38.9,13.41,6.43,18.33C32.4,104.57,40.43,89.08,61.17,80Z"/><path class="a" d="M214.14,16.15a6.39,6.39,0,0,0-3.89,4.12c-2.73,7.59-5.56,15.14-8.09,22.8-.58,1.74-.08,3.84-.08,5.85-2.28-.82-4.86-1.67-7.38-2.69-.46-.19-.82-1-.94-1.61-1.79-8.57-3.54-17.15-5.36-26a10.71,10.71,0,0,0-.69,1.26Q185,27.5,182.24,35.19c-.76,2.15-1.15,4.33.54,6.85L172,38.23c4-1.69,4.62-5.24,5.77-8.47,2-5.59,4-11.19,6-16.79,1.25-3.56,1.23-3.85.15-7.57,3,1.08,5.89,2,8.69,3.16.43.17.65,1.13.78,1.76,1.6,7.78,3.16,15.57,4.73,23.36.06.3.16.6.37,1.34.54-1.44.95-2.49,1.32-3.55q2.15-6.11,4.28-12.22a7.79,7.79,0,0,0-.39-6.82Z"/><path class="a" d="M46.08,20.35l10.67-4.49c-1.2,2.33-.4,4.37.45,6.39,2.16,5.13,4.3,10.27,6.52,15.37s7.52,6,11.42,2.14c1.58-1.57,2.36-3.51,1.49-5.65-2.59-6.37-5.23-12.72-8-19-.53-1.17-2-1.94-3-3l10.4-4.39c-1.62,2.66-.73,4.82.16,7,2.05,4.9,4.2,9.77,6.18,14.7,2.39,6,1.48,10.76-2.58,14.44-4.7,4.26-11.49,5.49-16.54,3a11.3,11.3,0,0,1-5.36-5.82c-2.46-5.48-4.79-11-7.15-16.53C49.84,22.63,48.83,21,46.08,20.35Z"/><path class="a" d="M238.86,30.42l9,6.18a18,18,0,0,0-2.19,3.72Q242,52.83,238.58,65.43a55.09,55.09,0,0,0-1,6.56l-9-6.2c2.87-.53,3.25-2.72,3.9-4.69,1.36-4.13,1.34-4.13-2.22-6.58-.41-.28-.8-.6-1.23-.86-1.57-1-3.14-1.91-4.71-2.86-2,1.69-4.08,3.3-6,5.11-.47.46-.34,1.55-.5,2.45-2.73-1.88-5.54-3.83-8.37-5.75-.2-.14-.49-.14-.62-.46,3.34-.29,5.57-2.28,7.94-3.94,5.9-4.12,11.8-8.24,17.66-12.42C236.37,34.45,238.41,33.21,238.86,30.42Zm-3.37,21.37,3.94-12.29-.4-.23-10.17,8Z"/><path class="a" d="M140.84,34.7l-10.69-.8A74.6,74.6,0,0,0,134,27.42c3.25-6.83,6.37-13.73,9.46-20.64.93-2.08,2.05-4.18,1-6.78l10.72.8a26.33,26.33,0,0,0,.28,4.95q3.16,12.56,6.6,25a45.85,45.85,0,0,0,2.42,5.7l-11-.8c2.37-2.27,1.3-4.57.78-6.83-.79-3.47-.8-3.47-4.36-3.74-2.06-.16-4.13-.25-6.18-.46-1-.11-1.61.11-1.95,1.18-.47,1.49-1.13,2.91-1.68,4.38S139.16,33.19,140.84,34.7Zm8.8-27.16-.46,0-4.79,12,8,.62Z"/><path class="a" d="M120.76,25.08l.7,9.49c-2.54.42-5,.71-7.37,1.25-7.77,1.73-14.59-.32-18.35-5.77-3.45-5-4.31-10.62-3.34-16.51A14.3,14.3,0,0,1,100,2.91,20.27,20.27,0,0,1,111,.45c1.71.09,3.44-.14,5.39-.24l1.64,9.62-1.22-1.05a10.15,10.15,0,0,0-17,5.43,14.82,14.82,0,0,0,1.9,11.38c3.92,6.31,13.81,6.44,18.06.32.21-.3.4-.61.59-.92Z"/><path class="a" d="M215.16,204.69l-8.11,8.09L175.44,189.7c1.92-1.92,4-4.09,6.23-6.17.22-.21,1-.13,1.32.07a266.61,266.61,0,0,1,31.76,20.64A2.8,2.8,0,0,1,215.16,204.69Z"/><path class="a" d="M58.47,204.43c4.42-3.1,8.82-6.39,13.43-9.37C77.84,191.23,84,187.69,90,184a2,2,0,0,1,3,.4c1.76,1.86,3.68,3.56,5.43,5.23l-31.78,23.2Z"/><path class="a" d="M24.75,40.33c-3.18,2.08-6.19,4-6.83,8.12l-3.84-7.12,21.1-14.76,5.37,6c-4.13-.93-6.9,1.45-10,3.64,1.56,2.28,3.08,4.54,4.63,6.77q4.23,6.09,8.5,12.14C45,57,46.32,59,49.63,59.05L39.55,66.12c1.21-3.1-.24-5-1.59-7q-6-8.62-12-17.24C25.58,41.42,25.2,40.93,24.75,40.33Z"/><path class="a" d="M173.06,153.49a2.64,2.64,0,0,1-.17-.41c-.43-5.3-.47-5.44,4.56-7,14.4-4.43,28.84-8.74,43.27-13.09.3-.09.61-.14.91-.21,1.16-.28,2.49-.79,3,.84s-1,2.06-2.13,2.46c-2.25.75-4.54,1.4-6.78,2.2Q195,145.64,174.35,153Z"/><path class="a" d="M100.86,153.56c-5.34-2-10.33-4-15.39-5.73-11.21-3.91-22.47-7.7-33.7-11.57-1.27-.44-3.27-.53-2.65-2.62s2.26-1.06,3.49-.69c15.38,4.62,30.74,9.31,46.13,13.91,1.68.5,2.38,1.27,2.14,3A29.62,29.62,0,0,0,100.86,153.56Z"/><path class="a" d="M113.49,216a6.86,6.86,0,0,1,7.11,6.89,7.21,7.21,0,1,1-7.11-6.89Zm-.07,2.77a4.22,4.22,0,0,0-4.09,4,4.28,4.28,0,0,0,4,4.4,4.13,4.13,0,0,0,4.16-4.14A4.2,4.2,0,0,0,113.42,218.76Z"/><path class="a" d="M160.82,227h7v2.62H157.7V216.27h10.09v2.57h-7v2.63h6v2.73h-6Z"/><path class="a" d="M176.56,218.78v2.72h6.14v2.67h-6.08V227h7v2.65H173.55V216.26h10.06v2.53Z"/><path class="a" d="M144.85,224.44v5.2h-3V216.31H152v2.61h-7v2.83h6.26v2.69Z"/><path class="a" d="M136.14,216.29v2.63h-7v2.8h4c2.49,0,2.52.05,2.07,2.77H129c0,1.08,0,1.94,0,2.79,0,2.76,0,2.76-3,2.32V216.29Z"/><path class="a" d="M99.85,225.71l1.47,2c-1,2.4-6.55,3.16-9.48.92a7.22,7.22,0,0,1-1-10.33c2.56-3,7.5-3.22,10.66-.21l-1.69,2c-3.42-1.77-5.16-1.71-6.61.17a4.44,4.44,0,0,0,.18,5.54C94.9,227.63,96.74,227.61,99.85,225.71Z"/></svg>