<svg id="Layer_1" data-name="Layer 1" xmlns="http://www.w3.org/2000/svg" viewBox="0 0 1894.6 367"><title>Artboard 2</title><text transform="translate(1523 234.68)" style="font-size:154px;fill:#1a3763;font-family:AcierBATText-Noir, Acier BAT;letter-spacing:-0.005998883928571429em">T<tspan x="69.61" y="0" style="letter-spacing:0.03400847199675325em">OUR</tspan></text><text transform="translate(0 233.68)" style="font-size:154px;fill:#ebb423;font-family:AcierBATText-Solid, Acier BAT;letter-spacing:0.04000101461038961em">CR<tspan x="196.35" y="0" style="letter-spacing:0.020000507305194804em">A</tspan><tspan x="298.6" y="0" style="letter-spacing:0.08000202922077922em">F</tspan><tspan x="379.92" y="0" style="letter-spacing:0.020006848620129872em">T</tspan></text><rect x="1211.61" y="198.02" width="16" height="57.46" rx="8" ry="8" transform="translate(1921.66 1249.48) rotate(-135)" style="fill:#ebb423"/><rect x="1211.61" y="198.02" width="16" height="57.46" rx="8" ry="8" transform="translate(196.88 928.81) rotate(-45)" style="fill:#ebb423"/><rect x="1308.61" y="21.02" width="16" height="57.46" rx="8" ry="8" transform="translate(2212.41 1015.91) rotate(-135)" style="fill:#ebb423"/><rect x="1308.61" y="21.02" width="16" height="57.46" rx="8" ry="8" transform="translate(350.45 945.55) rotate(-45)" style="fill:#ebb423"/><rect x="1307.91" y="299.31" width="15.24" height="54.72" rx="7.62" ry="7.62" transform="translate(2014.76 1487.88) rotate(-135)" style="fill:#ebb423"/><rect x="1307.91" y="299.31" width="15.24" height="54.72" rx="7.62" ry="7.62" transform="translate(154.32 1025.9) rotate(-45)" style="fill:#ebb423"/><rect x="1417.61" y="112.02" width="16" height="57.46" rx="8" ry="8" transform="translate(2334.14 1248.33) rotate(-135)" style="fill:#ebb423"/><rect x="1417.61" y="112.02" width="16" height="57.46" rx="8" ry="8" transform="translate(318.03 1049.28) rotate(-45)" style="fill:#ebb423"/><path d="M1459.61,191.5h-347a8,8,0,0,1,0-16h347a8,8,0,0,1,0,16Z" style="fill:#1a3763"/><path d="M1166.61,305.25a8,8,0,0,1-8-8v-199a8,8,0,0,1,16,0v199A8,8,0,0,1,1166.61,305.25Z" style="fill:#1a3763"/><path d="M1272.61,367a8,8,0,0,1-8-8V8a8,8,0,0,1,16,0V359A8,8,0,0,1,1272.61,367Z" style="fill:#1a3763"/><path d="M1378.61,228.25a8,8,0,0,1-8-8v-150a8,8,0,0,1,16,0v150A8,8,0,0,1,1378.61,228.25Z" style="fill:#1a3763"/><text transform="translate(496.55 233.68)" style="font-size:154px;fill:#ebb423;font-family:AcierBATText-Solid, Acier BAT;letter-spacing:0.010000253652597402em">C<tspan x="103.03" y="0" style="letter-spacing:0.0000063413149350649355em">O</tspan><tspan x="219.14" y="0" style="letter-spacing:0.060001521915584416em">FFE</tspan><tspan x="458.61" y="0" style="letter-spacing:0.039994673295454544em">E</tspan></text><text transform="translate(10 114.75)" style="font-size:80px;fill:#1a3763;font-family:AcierBATText-Solid, Acier BAT;letter-spacing:0.1300048828125em">T<tspan x="47.04" y="0" style="letter-spacing:0.17000732421875em">ORON</tspan><tspan x="315.36" y="0">T</tspan><tspan x="362.4" y="0" style="letter-spacing:0.15em">O</tspan></text></svg>