<svg xmlns="http://www.w3.org/2000/svg" viewBox="0 0 258.01 230"><defs><style>.a{fill:#a6aebf;}</style></defs><title>logo-coffee-lab</title><path class="a" d="M255.89,110.09c2.35-.8,2,.26,1.95,1-.51,4.47,1.18,9.09-.87,13.45,1.3,1.3.88,3,.88,4.49q0,48.61,0,97.23a11.12,11.12,0,0,1-.05,2.46c-.1.44-.71,1.06-1.1,1.07-3,.09-5.92.13-8.88,0a8.91,8.91,0,0,1-3-1c-.87-.38-1.85-1.67-1.91.6,0,.15-1.12.39-1.73.4q-13.33,0-26.65,0a10.1,10.1,0,0,1-2.21-.59c-.6-.15-1.38-.55-1.8-.32-3.54,1.91-7.33.88-11,.88q-97.72.12-195.44.05c-4,0-4,0-4-4.14Q0,115.09.05,4.54a16.71,16.71,0,0,0,0-2C-.13,1.17.23.5,1.85.58,4.47.72,7.12.47,9.74.66s5.2-.94,7.52.87C21.43-.53,25.86,1,30.15.68c1.64-.13,3.6-.85,5,.88,1.41-1.71,3.34-.8,5-.92s3.62,0,5.43,0,3.62,0,5.43,0c3.23.05-.55,1.46.37,2l-1,1c-.52.33-1,.7-1.57,1A8.47,8.47,0,0,1,47.55,5c.36.19.71.54,1.07.55,2.22.1,4.63-.57,6.18,1.86.11.17,1.22,0,1.24-.11.49-3.07,2.48-.47,3.2-.89,1.8-1.06,3.15.73,4.7.16,1.36-.5,2.6,1.35,4,.24,1.52,1.56,3.61,0,5.08.82a10.72,10.72,0,0,0,6,.87c2-.13,4.22.76,6.13-.67,4.17,1.64,8.21-1.23,12.41-.31,4,.88,7.91-1,11.93-1.05,1.55,0,3.08-1.21,4.59-1.93a1.13,1.13,0,0,0-.14-.9c-.61-.45-1.36-.72-2-1.18a10.49,10.49,0,0,1-1.3-1.38,8,8,0,0,1,1.79-.42c13,0,26,0,39-.08,1.54,0,2.89,1.1,4.68.2a3.91,3.91,0,0,1,4.43.77C161.56.1,163,.6,164.23.66s.64,1.23.79,1.93l-2.82.35c1.58,2.15-.29,1.5-1.3,1.64-2.53.35-5-1.49-7.62-.1-.53.28-2.07-1.1-2.44-.81-2.08,1.64-4.41.55-6.73,1,.31-.69.77-1.39,1.11-2.14.08-.18-.22-.53-.34-.8L142.4,3.2a10.66,10.66,0,0,0,1.71,1.47,2.3,2.3,0,0,1,.84,1.09c.26.81,1.42,2.72,1.83,2.74,1,0,2,0,3,0h25.63c1,0,2.38-.41,2.88.08,1.14,1.13,2.46.57,3.59,1s1.85-1.54,3.32-.38c.83.65,2.49.27,3.78.29.26,0,.55-.47.78-.44,1.69.3,3.38-1.19,4.85-.45,1.84.93,3.66.83,5.54.94a3.17,3.17,0,0,1,1.67.69c2.6,2.08,5.3.95,7.94.21.64-.18,1.11-1,1.66-1.52-.6-.14-1.2-.3-1.8-.4s-1.34-.05-.6-1a2.65,2.65,0,0,0,.5-1.26c.29-2.46.16-2.57-2.52-2.68-.33,0-.66,0-1,0-1.82.07-1.45-.56-.52-1.47.05-.05-.07-.09-2,1-1.36.75-3.29,1.42-4.61,1a4.87,4.87,0,0,0-3.86.34c-1,.42-2.62-.53-4-.82a1.37,1.37,0,0,0-.92.14c-2.88,1.76-6.07,1.12-8.91.5s-5.9-.55-8.24-2.63c.42-.33.85-.94,1.27-.95q18.47-.08,36.94,0c1.18,0,2.35.85,3.53.87,1,0,2.8-1,2.91-.84.84,1.44,2.26-.62,3,.62,2-1,4.23-.59,6.37-.71,1.66-.09,3.26-.13,4.32,1.49.11.17.45.19.68.28C232.08.52,233,1,234.14,1.56a34.38,34.38,0,0,0,3.5,1,6.68,6.68,0,0,1,2,1.09A1.41,1.41,0,0,1,240,4.95a1.27,1.27,0,0,1-1.11.56,28.71,28.71,0,0,1-3.46-1.15c-.44-.17-.81-1.3-1.24-.12-.11.3.45,1,.88,1.28a22.81,22.81,0,0,0,4.11,2c.85.28,2,.33,1.89-1.31a29.09,29.09,0,0,1,0-4.43c.12-1.54,1.27-2,3-1.65a44.19,44.19,0,0,0,5.71.51c1.47.08,3,0,4.43,0a3.32,3.32,0,0,1,3.64,3.11,33.43,33.43,0,0,1,0,5.41,2.35,2.35,0,0,1-2.93,2.34,2.48,2.48,0,0,0-1.75-2.92,4.17,4.17,0,0,0-1.84.11c-.12,0-.23.21-.34.32a5.31,5.31,0,0,1,1.57.68,11.84,11.84,0,0,1,1.56,2.16c-.32-.08-.49-.33-.65-.33a8.26,8.26,0,0,0-1.28.23c.06.22.11.62.17.62a3.06,3.06,0,0,0,1.76-.52c.13-.35.46-.35.79-.35.4.91.6,2.12,2.1,1.37a2,2,0,0,1,.69-.06c.06.8.16,1.6.16,2.4,0,9.05,0,18.11,0,27.16,0,2.15.51,4.39-.73,6.41,1.59,2,.51,4.4.71,6.61s0,4.61,0,6.91V97.34c0,2.3,0,4.61,0,6.91,0,1.73.33,3.54-2,5.84-1,1.6-1,1.93-1,2.23a3.78,3.78,0,0,0,.36.79,5.47,5.47,0,0,0,.6-.94,16.68,16.68,0,0,0,.66-2.09,2.16,2.16,0,0,0-.14-.81c-.43.1-1.11.06-1.25.32C254.89,110.1,254.92,110.76,255.89,110.09ZM195,31.94c-.52-.43-.69-.69-.85-.68a8.26,8.26,0,0,0-1.28.23c.06.22.11.62.17.62.53,0,1.06-.08,2.16-3.25a12.49,12.49,0,0,0-.58,1.46,4.12,4.12,0,0,0,0,.92c.33-.23.84-.39.94-.7S195.44,29.73,195,31.94ZM19.21,5.27c-.52-.43-.69-.69-.85-.68a8.26,8.26,0,0,0-1.28.23c.06.22.11.62.17.62.53,0,1.06-.08,2.58-1.93l-1,.6c.15.15.35.46.45.43A13,13,0,0,0,20.71,4C20.46,3.85,20.21,3.72,19.21,5.27ZM166.6,196.79a12.47,12.47,0,0,0-.58,1.46,4.12,4.12,0,0,0,0,.92c.33-.23.84-.39.94-.7s-.14-.81-.75,1.59l-.65-.89c-.18.23-.51.46-.49.68a4.83,4.83,0,0,0,.38,1.21C165.65,200.76,165.88,200.46,166.6,196.79ZM46.87,22.06c-.52-.43-.69-.69-.85-.68a8.26,8.26,0,0,0-1.28.23c.06.22.11.62.17.62.53,0,1.06-.08,2.58-1.93l-1,.6c.15.15.35.46.45.43a13,13,0,0,0,1.44-.55C48.12,20.64,47.87,20.51,46.87,22.06ZM29,124.48c.43-.52.69-.69.68-.85a8.26,8.26,0,0,0-.23-1.28c-.22.06-.62.11-.62.17,0,.53.08,1.06,2.28,2.28-.7-.35-1.27-.76-1.37-.67a7.77,7.77,0,0,0-1,1.41c.37.18.82.58,1.08.48C30.24,125.85,30.54,125.35,29,124.48ZM99,200.3l1.69-.56c-.34-.19-.68-.55-1-.54a10.09,10.09,0,0,0-1.88.43c.37.21.74.42-1.36-.47h1.36l-1.28-1.77c-.23.23-.69.52-.65.68C96,198.53,96.35,198.93,99,200.3ZM235.6,155.66a3.42,3.42,0,0,0-.42,1.09c0,.31.33.89.42.88a8,8,0,0,0,1.43-.54c-.43-.43-.87-.87-1.89.58-1.48.08-.84,1.23-1,2l-1.89.58c.06-2.09,0-4.19.22-6.27.06-.7.64-1.91,1-1.92a4.31,4.31,0,0,1,2.36,1c1.37,1,2.35,1,2.19-.06-.51-3.28,1-6.29,1.08-9.47.09-2.51-.76-5.18,1-7.49q0-8.39,0-16.79a2,2,0,0,0-.31-.85,5.1,5.1,0,0,1,0-5.38c.23-.4-.11-1.13-.18-1.71,3.26,0,1.53-2,1.5-3.43q-.12-5.92,0-11.85c.07-4-1.7-7.86-1-11.94a10.55,10.55,0,0,0-1-6,2.62,2.62,0,0,0-.92-1.32c-3-1.44-3.44-2.47-2.11-5.39a10.58,10.58,0,0,0,1-2.53c.14-.84.49-2.08-1.2-2-.23,0-.75-.88-.68-1,.35-.39.9-1,1.28-.92,2.59.45.22-1.95,1.46-2.5.53-.24.08-1.08-.87-1.59-2.28-1.21-2.18-1.38-.55-3.78.18-.26.27-.87.12-1-.37-.33-1.21-.76-1.32-.65-1.06,1.13-1.34-.21-1.77-.58-.86-.73-.24-1.33.29-2,1.8-2.38,1.77-3.86.16-6.39a14,14,0,0,1-.84-2.12,12,12,0,0,0-.57-1.07,7.85,7.85,0,0,0-.4.82c-.49,1.38-1.57,2.41-.46,4.33.8,1.39.12,3.66,0,5.54,0,.57-.59,1.45-.39,1.64,1.46,1.38.81,3.11.75,4.63-.07,1.69.89,3.62-.81,5.07,1.45,1.64.77,3.62.86,5.47s0,4,0,5.92-1.12,3.49-1.1,5.52c.16,17.11.08,34.23.11,51.35,0,1.38-.52,2.94.92,4-1.77,1.31-.82,2.69-.12,4.07-1.64,1.84-.52,4.06-.81,6.08s.35,4.12-.52,6.21c-.79,1.89,1.06,3.78.53,5.82a2.36,2.36,0,0,0,.92,2.53c-1.4,1-1.85,2.18-.93,3.73-2,2.28-.77,5-.94,7.49a80.24,80.24,0,0,0,0,8.39c0,.53.61,1,.94,1.57l-1,.75,1,1.23c-.52,1.12-1.45,2.15-1,3.52a3,3,0,0,0,.87,1.36c.17.13.88-.25,1.17-.56,1.33-1.41,1.26-4-.09-6.3.12-.61,0-1.45.38-1.79,2-1.84,2.09-2.64.13-4.1a9.69,9.69,0,0,0-1.33-.71c.48-.44.89-1.1,1.45-1.25a15.43,15.43,0,0,1,2.45-.07,1,1,0,0,0,.56-1.73c-1.3-1.13-2.74-2.11-4.1-3.17-.91-.7,0-1,.35-1.39.53-.66,1-.77,1.09.29.07.66.12,1.39,1,.57a3.66,3.66,0,0,0,.59-4.35c-1.58-2.13-1.58-2.14-.7-3.43a1.13,1.13,0,0,1,.35-.35c1.64-.93-.65-1.45-.23-2.24l1.71-.23c-.24-.43-.5-.85-.72-1.3C235.09,158,235.14,157.83,235.6,155.66ZM29.1,220a1.89,1.89,0,0,0-.36.37,4.7,4.7,0,0,0,.94,3.49.5.5,0,0,0,.47,0c.21-.22.53-.56.48-.75a21.1,21.1,0,0,0-1-2.54c-.1-.22-.37-.37.21,4.2l-.65-.89c-.18.23-.51.46-.49.68a4.83,4.83,0,0,0,.38,1.21C29.33,225.45,29.56,225.16,29.1,220Zm134.21-20.07c-.77-.77-1.18-1.44-1.77-1.68-.35-.15-1,.37-1.48.59.28.44.49,1.17.86,1.26.66.16,1.41-.07,3.17-4.06-.63.51-1.35,1.07-2,1.67-.08.07,0,.46,0,.46a2,2,0,0,0,1,0,8.13,8.13,0,0,0,1.53-1,1,1,0,0,0,.19-.68C164.75,196.37,164.51,196.28,163.32,199.92ZM30.77,64l.89-.65c-.23-.18-.46-.51-.68-.49a4.83,4.83,0,0,0-1.21.38,9.77,9.77,0,0,0,2.85,1.29l-1-.72c.66,1.84-.92,1.89-1.92,2.41a9.86,9.86,0,0,0,1.55.54C32.8,67,32.69,66,30.77,64ZM9.93,42h0a12.4,12.4,0,0,0-.06-2.36c0-.23-.8-.51-1.16-.43s-.5.6-.74.93c1.91.54.59,2.1,1,3.11a7,7,0,0,0,.42.78c.19-.2.49-.37.53-.6.08-.46,0-.95-1.76-2.4l-.65-.89c-.18.23-.51.46-.49.68A4.83,4.83,0,0,0,7.37,42C7.6,41.72,7.83,41.43,9.93,42ZM7.55,117.08a7.44,7.44,0,0,0-1.17,1.22c-.1.16.22.81.32.81,1.15-.05,1.33.59,1.27,1.53,0,.15.3.32.46.49.17-.58.59-1.24.44-1.72-.24-.81-.85-1.52-.87,2.16-.19-.16-.39-.44-.53-.42a19.72,19.72,0,0,0-2.49.62c-.08,0,0,.58,0,.88,0,.13.26.34.31.32C6.23,122.53,7.09,122.06,7.55,117.08Zm225.64-87L232,27.58a8,8,0,0,0-1.69,1.18,1.53,1.53,0,0,0,.22,1.23c.87.12,1.77.06,2.84-2.54-.06.42-.29.93-.15,1.31.36,1,2.61,1.88,3.44,1.44a.93.93,0,0,0,.24-.64C235.76,28.86,234.61,28.19,233.19,30.06Zm-115.6.41V29.26a3.66,3.66,0,0,1-2.6-.87c-.36-.22-1.49.83-2.28,1.3.53.19,1.06.39,1.59.56a23.07,23.07,0,0,0,2.61.76c.21,0,.52-.41,1.69-2.81l-1,.6c.15.15.35.46.45.43a13,13,0,0,0,1.44-.55C119.24,28.55,119,28.41,117.6,30.47ZM10,29.58c-1.24-.77-1.65-1.24-2.09-1.26-.62,0-1.64.09-1.82.46-.35.73-.07,1.59,1.08,1.45.64-.08,1.27-.29-1.23-2a2.45,2.45,0,0,0-.27-.77A13.4,13.4,0,0,1,4.1,25.73c-.19-.32,1.84-1,0-1.32-.52-.1-1.48.63-1.8,1.22S4.53,28.39,10,29.58ZM227.24,203.39c0,.49,0,1,0,1.48a1.82,1.82,0,0,0,2.48,1.14c.1-.07-.07-.86-.16-.87-1.92-.2-1.76-1-.71-2.17a1.2,1.2,0,0,0,.33-.83,3.46,3.46,0,0,0-.46-1c-.49.26-1.14.41-1.44.81s0,.95,2.94-1.87l-1,.6c.15.15.35.46.45.43a13,13,0,0,0,1.44-.55C230.86,200.42,230.61,200.29,227.24,203.39Zm25.68-188a19.22,19.22,0,0,0-3-.94c-.66-.1-1.72-.5-1.94.7s.56,1.43,1.45,1.21c1.39-.35,2.37.49,3.47,3.95,0,.65,0,1.31,0,2s.33,1.38,1,.49c.42-.6,3.33,0,1.07-2.14-.7-.64-.8-1.92-1.2-2.9a.81.81,0,0,0-.33-.33c-.19.13-.47.3-.48.47,0,.81,0,1.63,0-.49a5.07,5.07,0,0,1,1-3l-1,.6c.15.15.35.46.45.43a13,13,0,0,0,1.44-.55C254.57,14.72,254.32,14.58,252.92,15.43ZM43.81,206l-2.14.4c.8.23,1.62.41,2.4.69,1.13.41,2.23.93,3.36,1.35a3.39,3.39,0,0,0,1,0,7.6,7.6,0,0,0-.5-1.46c-.83-1.42-2.25-.94,2.09-1.25l-1.58,1.24c.51.31,1.1,1,1.51.86s.95-.84,1.41-1.31C51,206.4,50.64,206.18,43.81,206ZM251.88,42.51c-.38-1.41-.71-2.73-1.11-4-.06-.18-.71-.39-.77-.32-.38.46-1.05,1.17-.91,1.46a19.32,19.32,0,0,0,2,3.05c.09.13.44.11.67.08s.13-.25-2.23-4.56a4.57,4.57,0,0,0,.45-.55c1-1.7,2-3.39,2.91-5.14.11-.22-.56-1.2-.88-1.21-.67,0-1.9.32-1.94.64-.23,1.84.21,3.79-1,5.46C248.94,37.49,249.31,37.9,251.88,42.51ZM184.22,201.15c1.87.79,2.91-.93,4.14-2.18.11-.11-.14-.74-.37-1s-.57-1.18-1.27-.13c-2.09,3.12-2.28,3.09-4.51.24a1.61,1.61,0,0,0-.35-.35c-.22-.15-.46-.27-.69-.4a3.38,3.38,0,0,0-.33.84c-.21,2,.65,2.87.23,2.3-.84-.48-1.54-.95-2.3-1.29-.18-.08-.53.23-.8.36.7.53,1.37,1.08,2.11,1.55A14.49,14.49,0,0,1,184.22,201.15ZM30.44,47c2.4,0,2.77-.53,1.88-2.79a5.15,5.15,0,0,0-.69-1.63,8.8,8.8,0,0,0-2-1.47c-.15-.09-.78.28-.76.32.2.68.27,1.61.75,2,1.48,1.08.6,1.71-.24,2.45-.47.42-1.11.9.1,1.16.31.07.64,0,3.32-6.12l-.56-1.69c-.19.34-.55.68-.54,1a10.09,10.09,0,0,0,.43,1.88C32.34,41.73,32.55,41.36,30.44,47ZM222.3,220.89l-.75-1-1.23,1-1.74.26a6.35,6.35,0,0,0,.85,1.29,22.24,22.24,0,0,1,3,3l-1.55-1.55c-.18.23-.55.54-.49.67a2.83,2.83,0,0,0,.84,1.26c.19.14.73-.22.11-1.93a2.71,2.71,0,0,1,2.52.9c.15.16,1.35-.44,1.87-.9,1.08-.94-.28-1.32-.66-1.6A15.21,15.21,0,0,0,222.3,220.89ZM235.5,13.73l.63-.76c-.78-.49-1.54-1-2.34-1.46-.05,0-.34.37-.52.56a6.6,6.6,0,0,0,2.86,1.38,4.06,4.06,0,0,0,.39,1.69c-.52-.43-.69-.69-.85-.68a8.26,8.26,0,0,0-1.28.23c.06.22.11.62.17.62a1.63,1.63,0,0,0,1.57-.87c1.81-.39,3.19.83,4.76,1.3,0,2.14,2.26,1.57,4.2,3.66l-.6-1c-.15.15-.46.35-.43.45a13,13,0,0,0,.55,1.44c.14-.25.27-.5-.58-1.89-.25-3.62-1.39-4.86-4.58-4.93A20.33,20.33,0,0,0,235.5,13.73Zm-45.39-.66a12.49,12.49,0,0,0-1.46-.58,4.12,4.12,0,0,0-.92,0c.23.33.39.84.7.94s.81-.14-6.66,0v.13a36.69,36.69,0,0,0,4.75-.51c.41-.09,1.48-.45,1.23-1.59-.4-1.79-.89-.23-1.41-.14-.94.16-2.38.53-2.81.07-2.18-2.34-4.1.55-6.13.13a1.75,1.75,0,0,0-.49,1.14,1.25,1.25,0,0,0,.93.74C179.16,13.51,180.47,13.46,190.11,13.07Zm-40.8-2.38.89-.65c-.23-.18-.46-.51-.68-.49a4.83,4.83,0,0,0-1.21.38c.3.23.59.46,10.21,3.54,1.3,0,2.61.06,3.91,0,1.54-.08,4-2.16,3.46-3.18-.67-1.32-1.81.7-3,.29a9.27,9.27,0,0,0-2.91-.06c-3.1,0-6.19,0-9.29,0-.17,0-.5.65-.45.93s.53,1,.7,1c1-.22,2-.67,3-.9.31-.07.72.34,1.09.52-1.06.91-1.2,1.48.51,1.42C156.55,13.43,157.53,13.46,149.31,10.69ZM24.75,59.88l-1,2c0,.33-.13.75,0,1,1.23,1.8,1.53,3.45-.47,5a1,1,0,0,0,0,1c.51.64,1.18,1.15,1.71,1.78.81,1,1.15,6.58.32,6.91-1.88.75-2.21-1.47-3.41-2.12-.14-.07-.22-.28-.36-.33-1.12-.41-2.24-.8-3.37-1.2-.13.93-.33,1.86-.38,2.8a34.69,34.69,0,0,0,0,3.95c.44,6.82-.51,13.56-1,20.33-.07.87-1,1.75-.89,2.55.39,3.07-1.54,6.61,1.71,9.18.2.15-.1,1.13-.37,1.62-.37.68-1.42,1.35-1.33,1.87.54,3-2.63,6.05-.08,9.07,0,2.63-.13,5.28,0,7.9s.73,5.32.92,8c.16,2.29,0,4.61,0,6.91a6.92,6.92,0,0,0,.68,3.18c.7,1.4.69,1.72,1.92.5s1.26-1.07,2.41.55A4,4,0,0,1,22,157a7,7,0,0,0-1.1,3.91c.15,1,1.2,1.81-.75,1.85a1.61,1.61,0,0,0,0,.67c.14.56,2.6-.51,1,1.46-.31.38.59,1.6.41,2.3-.13.5-1.5.67-1.66,1.18-.46,1.54,1.45.8,1.79,1.59a1.73,1.73,0,0,1-.18,1.31c-.27.48-1.21.94.07,1.2.79.16,1.71-.18,2.45.08.92.32,1.79,1.68,1.76-.69-.08-8.56.08-17.12-.09-25.68-.07-3.63.92-7.37-.78-10.89,2.17-2.36-.29-5.65,1.69-8.23a3.71,3.71,0,0,0-.47-4.11c-.27-.31-.51-1.11-.35-1.27,2-2,.66-4.37.9-6.55a52.68,52.68,0,0,0,0-5.92V75.14c0-1.81-.5-3.82.13-5.38.77-1.92-.63-3.45-.14-5.16a7,7,0,0,0,.46-2.74c-.21-1.41.58-2.59.55-3.93,0-2.47.43-5.06-.21-7.35-.3-1.07.79-3.1-1.32-3.51-.4-.08-.88.22-1.32.34,2.08,1-.19,2.44.44,3.84,1.08,2.36.7,2.6-1.92,2.71-.66,0-1.32,0-2,0-.19,0-.36.36-.5.59,0,0,.19.26.33.33a15,15,0,0,0,2,1C25.9,56.81,26.08,57.26,24.75,59.88ZM177.44,213c.16,0,.33,0,.49,0l4.77-.4a24.17,24.17,0,0,1-1.83-3.61c-.27-.82-.41-2.06,1.26-1.93,1.15.09,2.3,0,3.45,0s3.08-.35,3.75.33c1.41,1.44,1.79-1.26,2.86-.36.57.48,1.46.59,2,1.1,1,1,1.22,1.1,1.57-.52.2-.91,1.44-1,1.9.46A7.12,7.12,0,0,0,199,210l.55-2.14c.33-1.28.83-.1,1.19-.15a2.81,2.81,0,0,0,1.71-1.13c.47-.7-.6-2.23.83-2.36.72-.06,1.52,1,2.3,1.47a3.68,3.68,0,0,0,.82.39c1.33.46,2.38-.36,2-1.69s-.55-2.77-2.7-1.4c-.82.52-3-1.06-3.78-.53-1.47,1-2.85.64-4.21.59-1.72-.06-3.41.28-5.24-.38-1.52-.54-3.6,0-5.28.51-2.76.86-5.32-2.46-8-.19-1.64-1.85-3.66.15-5-.32-2.14-.74-4.15-.44-6.18-.49-4.93-.13-9.87,0-14.81-.07-1.3,0-2.65-.74-3.87-.53a29.42,29.42,0,0,1-12.3-.07c-1.06-.26-2.75.37-4.09.5-1.79.18-3.65-.68-5.51-.8-.83-.05-1.83,1-2.52.84-2-.59-4-1.63-6-.11-3.4-1.69-7-.53-10.54-.74-3.77-.22-7.57,0-11.35-.06a10.19,10.19,0,0,0-2.61.8,5.61,5.61,0,0,1-3.93-.87c-1.52-1-2.38,2-3.81.33-.2-.23-1.07.14-1.64.23.67.69,1.76,1.57-.37,1.46-1.71-.08-3.36,2.43-5.17.11a3.63,3.63,0,0,0-1.92,1c-.93,1.21-2.41,2.7-2.25,3.89.26,2,2.42.45,3.66.92.14.05.38-.06.48,0a2,2,0,0,1,.49.61s-.21.31-.33.32c-.65,0-1.31,0-2,.05s-1.56.2-2.34.31a10.18,10.18,0,0,0,2.44,1.59,10.45,10.45,0,0,0,2.94.06c4.77,0,9.56.26,14.31-.06,7.33-.49,14.52,1.13,21.81,1.05a2.92,2.92,0,0,1,1.41.16c3.14,1.82,5.74.77,8.07-1.49.93-.9,1.56-.83,2.42.05a10,10,0,0,0,2.74,2.2c.94.44,2.1-.14,3.18.7,1.6,1.24,2-.92,3-1.43a3.24,3.24,0,0,1,1.4-.19c3.95,0,7.92-.26,11.84.06s7.6-1.23,11.44-1a18.33,18.33,0,0,1,6,1c1.57.65,2.49-1.77,4.28-.24,1,.81,3.17.14-40.81,1.84-.52-.43-.69-.69-.85-.68a8.26,8.26,0,0,0-1.28.23c.06.22.11.62.17.62C130.39,214.85,130.92,214.77,177.44,213ZM47.46,24.32c1.26,0,2.55-.31,3.55,1S53.6,27.72,55,27a6.5,6.5,0,0,1,3.19-.66c1,0,2.36-.24,2.78.28,1.3,1.6,2.13-1.44,2.74-.26.81,1.58,2-.25,3,.68.63.59,2.16.24,3.29.27,1.32,0,2.63,0,3.95,0q22.45,0,44.9,0c1.84,0,3.75-.39,5.43.78.79-1.27,2.13-.45,3.11-.84,1.25-.5,1.95,1.27,3.33.45.86-.52,2.17-.38,3.27-.39,4.61,0,9.21,0,13.82,0,1,0,2.45-.4,2.87.08,1.53,1.78,3.08.23,4.57.31,2.53.13,5.28-.72,7.55,0s4.86,1.07,6.56.33c2-.86,3.77-.44,5.61-.75,1.46-.24,2.73.64,4.05.85s3-.66,4.51-.82c1.35-.15,2.8-.32,4,.77a2.91,2.91,0,0,1,4.31-.18c1.54,1.41,3.24-2.37,4.49.35,2.19.61,4.37-1.21,6.6,0a1.43,1.43,0,0,0,1.35-.17c1-1.32,2.49-.43,3.63-.83s1.8,1.65,3.28.18c.74-.74,2.83-.11,4.31-.15a2.7,2.7,0,0,0,.84-.33,5,5,0,0,0-.76-1c-.34-.28-.9-.32-1.21-.62-1.59-1.58-4-.21-5.38-1.24-2-1.45-3-.28-3.26,1-.52,2.31-1.13.67-1.62.19-.29-.29-.33-.84-.46-1.27-.63-2.06-.65-2.09-2.28-.79-.85.67-1.77,2.14-2.67.54-1.18-2.11-2.38-.19-3.53-.34-1.35-.17-2.69,2-4.17,0-.2-.27-1.31-.11-1.82.17a23.27,23.27,0,0,0-2.24,1.75c-.8.58-.91-1.18-2.34-.44-2.44,1.27-3.17.38-2.39-2.27.14-.47,1.22-.87,0-1.21a13.53,13.53,0,0,0-1.47,0c-.9-.13-1.8-.33-2.69-.51.81-.81,1.5-1.95,2.48-2.35s2.27-.07,3.42-.11a2.76,2.76,0,0,0,.84-.33c-.31-.21-.61-.6-.92-.62-11-.4-22.12.7-33.17-.85-2.2-.31-4.6-1.66-7-.37-1.18-1.4-2.73-1-4-.45-1.59.68-2.78-1-4.26-.35-.56.24-1.29.12-1.79.42-3.05,1.82-3,1.87-7.45,1.7-.18,0-.34.71-.59,1s-.72.53-.77.48c-1.26-1.24-2.81-.41-4.2-.62-1-.15-1-.46-.36-1.09a3.08,3.08,0,0,0,.68-.7c.28-.53.47-1.12.7-1.68-.59-.16-1.27-.6-1.76-.44-2.19.7-4.85-2.12-6.73.91-.14.22-.94,0-1.43,0-2.36.1-4.69-.18-7,.87-1.47.66-3.61-.37-4.76,1.59a36.94,36.94,0,0,0,4.73.45c1.54,0,3.29.72,4.56-.85,3,.06,5.84-1.75,8.92-1,.26.06.47.76.52,1.18a.88.88,0,0,1-.49.72c-1.42.18-3.27-.24-4.2.51-1.73,1.39-2.93,2-5,.61a4.75,4.75,0,0,0-3.85,0c-4.09,1.78-8.31.61-12.45.88-3.11.2-6.44-.62-9.32.23s-6.36.11-8.75,2.73c-.3.33-1.33.22-1.91,0-2.39-.84-4.72-1.87-7.11,0a.93.93,0,0,1-.87-.16c-1-2.51-2.87-.59-4.3-.8L60,20.56a12.78,12.78,0,0,0-1.33,1c-.19.18-.23.53-.34.8-.58,1.29-2.83.09-3.1,2.32-.14,1.16-1.82,1-2.77.18-2.34-1.93-2.5-2-3.72,1.22C48,25.3,47.55,24.63,47,24.39c-.35-.15-1,.37-1.48.59.28.44.49,1.17.86,1.26C47,26.39,47.76,26.16,47.46,24.32ZM42.53,38.15c-1.55,1-2.95,1.65-4.61-.08-1.31-1.36-1.26-1-2.42.54a4.65,4.65,0,0,0-.87,3.12,39.49,39.49,0,0,1-.07,5.91c-.28,1.75,2.3,3.4.11,5.16A1.74,1.74,0,0,0,35.2,54c1.48.86.7,1.78.52,3a55.79,55.79,0,0,0-.11,7.88c0,2.47.09,4.94,0,7.41s1.33,4.65.18,7c1.81.5-.87,1.75.45,2.47,1.55.84-1.36,1.88,0,3.15.6.54.3,2.14.32,3.26,0,2.3,0,4.61,0,6.91s.51,4.77-.14,6.87.69,4.09.17,6.15c-.2.77.29,2.11-.09,2.38-1.37.93.69,2.59-.88,3.28,2,1.08-.59,2-.15,3.19s.1,2.93.1,4.41v6.42c0,2,.52,4.14-.13,5.88-.78,2.08.25,3.78.23,5.65,0,2.9-1.42,5.49-1.18,8.49a133.6,133.6,0,0,1,.06,13.82c0,1.38.43,2.77-.54,4.23-.55.83.11,2.41.1,3.65,0,.89-.61,2.33-.27,2.58,1.7,1.23-1.07,1.83-.24,2.8,2,2.28.6,5,1,7.49-2,2.36,1,4.71,0,7.1-.05.14.56.72.9.77a14.21,14.21,0,0,0,2.46,0c1.81-.05,2,.65,1,2-.86,1.11.47,1.31.87,1.69s1.2.24,1.84.25c2.14,0,4.28,0,6.42,0h6.42c1.87-2.41,3.71.82,5.61,0,1.26-.53,3-.51,3.8-1.41,1.42-1.71,3.07-1.57,4.84-1.57H88.09c1.81,0,3.62,0,5.43,0a4.85,4.85,0,0,1,1.3.42c-.54.18-1.09.36-1.63.55s-.85.33-1.27.49c.35.35.66.93,1.06,1a24.26,24.26,0,0,0,4.26.46c24.85,0,49.71,0,74.56.07,3,0,6.14-.92,9,.91a1.52,1.52,0,0,0,1.42,0c1.46-1.72,3.37-.8,5.06-.92,2.13-.14,4.32.23,6.41-.1,2.37-.38,4.26,1.13,6.52,1.09,5.1-.09,10.2,0,15.31,0a7.15,7.15,0,0,0,2,0c1.31-.39,2.57-.95,3.84-1.44-.57-.91-1.2-1.8-1.7-2.75a1.6,1.6,0,0,1-.12-1.3,7.44,7.44,0,0,1,1.36-1.38,5,5,0,0,0,.5,1.26,1.39,1.39,0,0,0,.86.24,10.88,10.88,0,0,0,1-3c.06-.8.75-2.2-.72-2.38-.64-.08-2.25-2.44-2.29.52-.29-.12-.83-.24-.84-.36,0-1.42-.43-3,1.18-3.95.6-.36.6-.66.2-1.43-.71-1.33,1.08-.39,1.23-1,0-.2-.32-.7-.55-.74-1.54-.28-1.53-1.46-.58-1.87s1.55-.13.7-1.58c-.64-1.09-.2-2.8-2.16-3,1.58-1.24.7-3,1-4.5.05-.29.54-.77.66-.72.45.16,1.12,1.26,1.21,0a52.26,52.26,0,0,0,0-8.38c-.08-1-1.15-2.31-2.39-1.67-1.07.55-1.52,1.28-1.49-.56,0-2.63,0-2.6,2.78-3.55a2.93,2.93,0,0,0,1.13-1c-1.4-1.91.27-3.74.16-5.65-.31-5.41,0-10.86-.16-16.29a39.28,39.28,0,0,0-1-6c0-.21-.38-.36-.58-.54a4.34,4.34,0,0,0-.38.83c-.14.61-.25,1.77-.31,1.77-1.34-.09-.26-1.34-.71-1.7-1.67-1.35-.29-3.17-.79-4.78-.57-1.83.23-4.07.34-6.14,0-.45-.48-.94-.45-1.39.05-.86-.7-2.25.68-2.38.56-.05,2.26-2.66,2.3.45a2.73,2.73,0,0,0,1-.25c.86-.66.57-1.35.46-2.38-.25-2.3-3-4.77.07-7.16.39-.31,0-1.71-.14-2.59-.06-.44-.56-.89-.48-1.25.2-.94,1.82-1.65.39-2.82-1.77-1.45.85-2,.67-3.38a62.69,62.69,0,0,1-.1-8.38c0-1.46.18-3-1.37-3.88-.91-.54-.25-1,.19-1.39.24-.23.64-.44.67-.7.44-3.21,1.49-6.53,1-9.61-.36-2.25-1-4.8-.26-6.56a14,14,0,0,0,.72-5.12c.12-3.62,0-7.24,0-10.86,0-1,.33-2.22-.15-2.87s-1.76-.3-2.66-.56a3.7,3.7,0,0,1-1.57-.93c-1.19-1.23-2.2-.92-3.78-.46-2,.59-4.37.06-6.58,0-1.94-2.77-4.83-1.09-7.26-1.55-1,1.57-2.69.06-3.41.46-1.65.91-3.21.54-4.74.46-2.33-.12-4.84.92-7-.84-2.32,1.55-4.67,1.17-7,.12-4.08,1.71-8.39.16-12.49.92-1.21.22-1.54-1.82-2.85-.51-.68.68-1.94.83-3,1.08-.74.18-1.94.5-2.25.15-1.76-2-3.79-.94-5.79-.89-1.13,0-2.54-.93-3.35-.51a3,3,0,0,1-3.85-.4,1.54,1.54,0,0,0-1.43,0c-3,1.93-6.33.75-9.49.88-2.32.09-4.6.69-7,.42-1.12-.13-4.11,0-4.82-.49-.34-.22-1-.65-1-.59-1.37,1.53-3.57-.06-4.56.85-1.73,1.59-2.71-.94-4.24-.16-3.78,1.93-7.93.78-11.91,1-1.41.09-2.89.31-4.07-.93-.24-.25-1,.06-1.44-.06s-1-.59-1.49-.7c-.3-.06-.72.46-1,.41-.58-.1-1.42-.8-1.64-.61-2.35,1.87-5,.83-7.54.85s-4.6,2.22-7.13.14c-1.26-1-2.82,1.19-4.63.05a5.87,5.87,0,0,0-4.74-.61c-2.1,1-3.56.09-5.34-.42-.81-.23-1.6,1.86-2.81.39-1.41-1.71-2.07.73-3.36.61C54,37,51,37.3,48,37.11a6.92,6.92,0,0,0-3.54,1l-.75-1ZM193.87,225.83c4.11,0,8.23.07,12.34,0a12.27,12.27,0,0,0,3.54-1c1.32-.46.25-1.85.8-2.48.93-1.05,1.17-1.5-.56-1.47-2.14,0-4.28,0-6.42,0s-4.29-.13-6.42,0-4.54-.76-6.64.63c-1.88-.95-3.9-.65-5.88-.66-5.27,0-10.54-.13-15.8,0-7.27.21-14.55.48-21.8,1a12.69,12.69,0,0,0-7.18,2.86c-.18.15-.24.46-.36.69.28.11.61.36.85.3,1-.27,2.05-1,3.05-.91,5,.21,9.93.6,14.9,1,.27,0,.5.38.79.46.55.15,1.31.49,1.65.26,2.36-1.57,5.34-.11,7.73-1.66.5-.32,1.61,0,2.28.29a5.66,5.66,0,0,0,5.4,0c.91-.45,2.61-.66,3.19-.14,1.36,1.22,2.78.73,4.16.77C187,225.9,190.41,225.83,193.87,225.83Zm-125-4.57a19.25,19.25,0,0,0-3,.65c-.85.33-.89,1.74-.08,1.86,1.1.17,2.45,1.71,3.46-.37.41-.84,1.79-.84,1.85,0,.12,1.52.88,1.46,1.91,1.44,1.48,0,3.37-.58,4.34.12,1.56,1.13,2.49-.69,3.72-.15.56.24,1.71.16,1.75.37.27,1.58.68,2,1.83.55a2.13,2.13,0,0,1,3.36-.4c1,.83,1.94.21,3,0a25.9,25.9,0,0,1,8.54-.14,10.9,10.9,0,0,0,5.4,0c1.74-.48,3.73-.15,5.6,0,.91,0,1.82.61,2.7.54,1-.08,2-.86,3-.86s2,.76,3,.86c.77.07,2.29.67,2.12-1-.07-.7-1.11-1.39-1.83-1.9-.33-.23-1-.1-1.45,0-1.69.25-3.35-.42-5.09.87s-2.8-1.66-4.53-1.86c-.32,0-.66,0-1,0-5.29-.2-10.6.42-15.88-.88a17.93,17.93,0,0,0-7.84,0c-2.48.54-4.76-.15-7.09-.29-1.12-.07-1.58,1.92-2.81.53-1-1.14-1.6.41-2.39.55A7.87,7.87,0,0,1,68.85,221.27ZM161.12,219c2-.63,4.47.9,6.4-1.07a5.44,5.44,0,0,1,1.22-.72c-.63-.15-.63-1.67-1.74-.8-.2.16-.53.39-.68.32-5.19-2.48-10.31.58-15.47.23-.23,0-.56.31-.73.55-.35.5-.62,1-.92,1.58a5.7,5.7,0,0,0,1.45.78C154.21,220.6,157.49,218.29,161.12,219ZM253.91,84.78c0-1.8,0-3.59,0-5.39,0-.24-.32-.48-.49-.72-.16.26-.32.52-.47.78a3.34,3.34,0,0,0-.16,3.16c.3.82-1.06,2-.89,3.46.22,1.77,0,3.59.08,5.38.11,1.52-.76,3.3,1,4.49-1.7,1.53.88,3,0,4.59-.08.14.26.52.41.78.18-.38.52-.75.53-1.13.05-2,0-3.92,0-5.88,0-1.32-.53-3,1.75-3.16.48,0,.23-.64-.95-1-.29-.08-.77-.32-.77-.5C253.89,88.05,253.91,86.42,253.91,84.78ZM246,78.3c0,2.36-.13,4.34,0,6.3a34.34,34.34,0,0,0,1,5.49c.42,1.66,1.31,3.2,1,5a2.64,2.64,0,0,0,1.15,3,1.19,1.19,0,0,0,.66,0,11.13,11.13,0,0,0-.11-3.29c-.8-2.51-2-5-1.65-7.65.38-3-1.08-5.59-1.08-8.46,0-2.58-.2-5.16-.31-7.74C245.23,73.4,246.45,76.12,246,78.3ZM180.07,216c-2.36,0-4.33,0-6.3,0-.27,0-.74.25-.76.42a2.1,2.1,0,0,0,.22,1.31c.82,1.2,2.07,1.75,3.3,1,.92-.59,1.4-1,2.47-.2a3.06,3.06,0,0,0,2.7.37c2-1.15,4-.85,6-.92a2.72,2.72,0,0,0,.84-.34c-.31-.21-.63-.41-.93-.64C185.18,215.11,182.33,216.33,180.07,216ZM131.58,4.46c-.36,2.64.29,3.73,2.32,4.13,1.3.25,2.43,1.28,3.73,1.63A61.05,61.05,0,0,0,144,11.45c.39.06.84-.3,1.26-.46a13.55,13.55,0,0,0-.7-1.67c-.64-1.11-1.2-.48-1.73.15l-1-1.92c-.6,1-1.53,1-2.54,1-2.88,0-5.17-.84-6.22-3.82-.15-.42-.67-.7-1-1.05ZM9.93,170.43c0,1.89,0,3.38,0,4.85,0,.36.36.71.55,1.07.35-.35.89-.64,1-1.06a11.18,11.18,0,0,0,.37-2.81c0-3.95-.19-7.92.15-11.84.09-1.12.57-2.1-.13-3.14-.17-.25-.31-.53-.47-.79-.17.24-.53.5-.5.71C11.6,162,9.37,166.31,9.93,170.43ZM122.35,8.52c1.26,0,1.83.16,2.22,0a12.93,12.93,0,0,0,1.88-1.42c-.59-.5-1.12-1.24-1.8-1.45a2.07,2.07,0,0,0-2.56.88c-.73-.46-1.39-1.7-2.36-.56-1.15,1.37-1.89-1.51-2.73-.23-1.45,2.21-3.6,1.77-5.68,1.86a5.54,5.54,0,0,0-1.55.56c.44.13.9.43,1.31.38,2.33-.33,4.83.86,7-.9.42-.33,1.51.11,2.27.3S122.16,8.46,122.35,8.52Zm86.22,208.72c-.6-.12-1-.25-1.49-.29-2.83-.25-5.72.53-8.52-.91-1-.53-2.59-.11-3.9-.07a1.53,1.53,0,0,0-.83.34,13.08,13.08,0,0,0-1.06,1c.36.19.71.55,1.07.55,3.62,0,7.24,0,10.86,0,1,1.52,2.09.05,3.13,0C208,217.89,208.22,217.56,208.57,217.24ZM87,215.83c-.17-.21-.42-.81-.69-.82-2.26-.08-4.52-.07-6.79,0a18,18,0,0,0-2.28.33A2.44,2.44,0,0,0,79.67,217c.54,0,1.09.45,1.63.7,2.17,1,3.64-1.3,5.62-1.19C86.93,216.49,87,216.21,87,215.83Zm-75.1-67a48.6,48.6,0,0,0,0-4.89,49.21,49.21,0,0,0-1-5,5.6,5.6,0,0,0-.32-.84c-.22.29-.62.57-.63.86a42.91,42.91,0,0,0,0,5.38c.16,1.67.71,3.31.93,5s.24,3.49.35,5.24c1.37-1.61.33-3.52.66-5.26A2.66,2.66,0,0,0,11.9,148.79ZM4.35,58.44,3.16,59.53c1.69,1,0,2.07.16,3.05.38,3.37.45,3.34-1.22,6.66a1.45,1.45,0,0,0,.27,1.28A16.9,16.9,0,0,0,4,71.76c.2.18.25.54.36.82.21-.3.56-.58.62-.91.33-1.81-.7-3.84.93-5.44-1.83-1.77-.53-4-.92-6A15.31,15.31,0,0,0,4.35,58.44Zm134,163.65a31,31,0,0,1,3-1.17c1-.28,2-2,3.18-.23l1.39-1c-.34-.26-.71-.78-1-.75-3,.26-5.94.61-8.91,1-.2,0-.54.47-.49.56a1.58,1.58,0,0,0,.67.69C136.86,221.52,137.57,221.77,138.35,222.09ZM254.9,25.37l-.65-.88-.33,1.32-.33,1.32a5.3,5.3,0,0,0-.71-1.31c-.15-.16-.72-.08-1,.09s-.66.73-1.06,1c-1.11.76-1.12,1.15,0,1.76.27.15.46.45.73.59.64.33,1.66,1,1.9.81a5.41,5.41,0,0,0,1.39-2.29A8.72,8.72,0,0,0,254.9,25.37ZM6.12,91.31c-.23-.33-.33-.57-.41-.56-.24,0-.58.07-.68.24a7.48,7.48,0,0,0-1,2c-.45,2,.78,4.13-.92,6.05-.33.38.62,1.9,1,2.88,0,0,.56-.19.86-.29-.54-.91,1.29-1.28.28-2.78S4.92,95.09,5,93.16C5.09,92.49,5.78,91.87,6.12,91.31Zm54.1,132.14c-.19-.19-.38-.55-.57-.56-1.29,0-3-.47-3.79.18-1.55,1.25-2.5-1.2-3.71-.2-.58.48-1.08,1-1.62,1.57a13.45,13.45,0,0,0,1.79.39c.81.07,1.65-.1,2.44,0,1.38.24,2.71-2.44,4.08,0ZM10.92,87.6c0,1.46,0,2.93,0,4.39,0,.12.26.35.32.32.23-.09.61-.26.62-.4,0-1.62,0-3.25,0-4.88,0-1.1-.13-2.39.39-3.23a4.41,4.41,0,0,0,.22-4s-.3,0-.32.06A24.71,24.71,0,0,0,11,83.71,23.34,23.34,0,0,0,10.92,87.6ZM76.6,12.47a1.81,1.81,0,0,0,.49,0c1.24-.36,2.74.76,3.8-.65-1.28-.44-2.56-.9-3.85-1.31a1.83,1.83,0,0,0-1,0c-1.29.34-3.7-.82-3.72.76,0,2.24,2.45.78,3.76,1.2A1.68,1.68,0,0,0,76.6,12.47ZM231.68,198.32l3.32-.49a3.4,3.4,0,0,0-.41-.69c-1-1.09-2.14-1.8-3.79-1.1a10.3,10.3,0,0,1-2.4.18,3.71,3.71,0,0,0-1.07.56c.35.35.64.9,1.06,1A30.82,30.82,0,0,0,231.68,198.32ZM226.68,26l-.43-.16a6.49,6.49,0,0,0,0-1.44c-.08-.32-.4-.59-.62-.88l-.68.68c-.22.23-.57.44-.63.7-.42,1.94.93,4.18-1,5.87a2.51,2.51,0,0,0,.76.47c.28.05.8,0,.86-.16C225.54,29.38,226.1,27.67,226.68,26Zm-11,194.37.16-.43a6.71,6.71,0,0,0,1.44,0,3.31,3.31,0,0,0,.94-.6l-.68-.68c-.23-.23-.43-.59-.69-.65-1.94-.44-4.18,1-5.88-1-.17.23-.44.44-.5.7s0,.81.13.87C212.28,219.18,214,219.75,215.68,220.34ZM235.86,226a23.66,23.66,0,0,1,2.43-1.09,5,5,0,0,0,3.76-5,2.42,2.42,0,0,0-.36-.82c-.23.15-.57.25-.67.46-.61,1.21-1.11,2.47-1.74,3.67-.77,1.47-3-.12-3.68,1.71,0,.14-.34.3-.32.34A6.23,6.23,0,0,0,235.86,226ZM5,78.69c0-1.35,0-1.68,0-2-.1-.94-.23-1.88-.34-2.82a20.67,20.67,0,0,0-1.57,3,2.09,2.09,0,0,0,.44,1.73c.95,1.06.34,1.66-.34,2.45-.2.23,0,.86.08,1.3.47-.29,1.24-.5,1.34-.89A17.64,17.64,0,0,0,5,78.69Zm227.4-46.46a4.87,4.87,0,0,1-1,0c-1.45-.3-2.37.47-3.16,1.53.9.15,1.8.29,2.7.46a13.73,13.73,0,0,1,2.2.5c1.89.7.52-1.75,1.69-1.7a3.8,3.8,0,0,0-1-.75A5.22,5.22,0,0,0,232.39,32.23ZM4.51,109.88c3.63,1.07,4.17-1,5-2.71.1-.19.13-.62.05-.66a1.3,1.3,0,0,0-.89-.18c-1.3.47-1.77,2.42-3.64,2-.26-.06-.7.73-1.05,1.13ZM95.85,216.94a4.15,4.15,0,0,0,1,0c1.6-.4,3.39.8,4.85-.61-1.57-.12-3.15-.18-4.71-.41-.55-.08-1.1-.94-1.55-.86a37,37,0,0,0-4.32,1.24.74.74,0,0,0,0,.32c1.09.12,2.18.24,3.28.32C94.87,217,95.36,216.94,95.85,216.94ZM128.74,1.62c-1.27-.07-4.42,1.9-4.1,2.35a5.34,5.34,0,0,0,2.2,1.42c.82.36,1.51.31,1.65-.9.08-.74.53-1.43.69-2.17C129.23,2.09,128.85,1.78,128.74,1.62Zm118.4,54.2-.47-5.65c-1.41,1.79-.5,3.86-.61,5.78a50.73,50.73,0,0,0,.28,5.75C247.76,59.91,246.54,57.82,247.14,55.82ZM29.81,206.25l-.41-1.94a10,10,0,0,1-2,.6,9.05,9.05,0,0,1-1.68-.35,2.87,2.87,0,0,0-.93.21c.16.43.24,1.18.48,1.23.79.16,1.63,0,2.44.1,1.8.21.48.83.19,1.37,0,.09.27.5.48.56s.83.07.91-.08A10.42,10.42,0,0,0,29.81,206.25ZM227.5,225.83c1.95,0,1.92,0,1.73-2-.08-.81.06-1.65,0-2.45a4.58,4.58,0,0,0-.65-1.32c-.29.58-1,1.49-.79,1.68.9,1,.43,1.69-.34,2.44a7.55,7.55,0,0,0-.9,1.37ZM253.65,213c-.5-.26-1.22-.85-1.42-.71-.68.49-1.23,1.11-2.06.37s-1.65-1.38-2.13.11c-.36,1.12,1,.87,1.42,1.29,1.58,1.46,2.72-.92,4.11-.25ZM29.57,110.47c-.36,1-.62,1.34-.54,1.57.36,1,1.45,2.36,1.13,3-.81,1.61.51,1.28.89,1.09.59-.31,1.47-1.31,1.34-1.55A37.9,37.9,0,0,0,29.57,110.47Zm112.7,85.73c-.81,0-1.79-.29-2.37.07a5.94,5.94,0,0,0-1.53,2.2c-.06.1.3.62.52.66,1,.2,1.43-.17,1.5-1.24,0-.26.92-.57,1.46-.68a14.57,14.57,0,0,1,1.93,0c.12,0,.34-.25.32-.32-.08-.23-.21-.59-.38-.62A8.21,8.21,0,0,0,142.27,196.2ZM3.94,224.09l1.9-.86L4,220.89l-2,2.22ZM251.5,119.15c.22-.12,1.18-.33,1.34-.8s-.24-1.43-.4-2.16c-.66.33-1.35.62-2,1a4.62,4.62,0,0,0-1,1,2.14,2.14,0,0,0-.24.67,5.49,5.49,0,0,0,.85.26A13.47,13.47,0,0,0,251.5,119.15ZM60,11.61l4.09-.46c-1.24-1.53-2.87-.46-4.31-.6a24.81,24.81,0,0,0-4.26.28C56.76,12.37,58.43,11.05,60,11.61Zm165.26,192,.35-.11c-.45-1.47-1-2.93-1.31-4.42-.24-1-.58-.94-1.12-.29a11.59,11.59,0,0,0-.7,1c1.86,1.08,2,2.82,1.83,4.68,0,.13.39.32.62.41.06,0,.3-.2.32-.33A6.64,6.64,0,0,0,225.27,203.61ZM80.82,194.22c.81,0,1.62,0,2.42,0,.27,0,.51-.3.77-.47-.25-.17-.49-.45-.76-.48a19.2,19.2,0,0,1-2.42-.06c-.56-.12-1-.83-1.55-.87-.37,0-1.18.66-1.14.94C78.39,195.17,79.92,193.86,80.82,194.22ZM31.61,81.09c-.39-1.59-.64-2.75-1-3.88,0-.17-.41-.28-.64-.34-.07,0-.3.2-.31.32,0,.64.26,1.56-.06,1.86-1.65,1.56-.1,2,.85,2.51C30.76,81.71,31.38,81.19,31.61,81.09Zm172.55,126.6c2.06.73,3.66,1.33,5.28,1.84.14,0,.51-.4.66-.67s0-.64,0-.66c-1.48-.4-3-.8-4.48-1.1C205.29,207,204.92,207.36,204.16,207.69Zm18.14-93.51a1.24,1.24,0,0,0,0-.48,7.25,7.25,0,0,0-.78-1.44c-.09-.11-.81.05-.82.15a2.74,2.74,0,0,0,0,1.62c.34.57.91.91-.2,1.18a5.91,5.91,0,0,0-1.12.53,2.7,2.7,0,0,0,.78.43C222,116.46,222.29,116.15,222.3,114.18ZM36.61,205.09a5.71,5.71,0,0,0,1,0,4.58,4.58,0,0,0,.83-.31c-.22-.34-.37-.79-.69-1a9.67,9.67,0,0,0-1.63-.69l-1.36-.58a3.5,3.5,0,0,0-.07,1.38,2.91,2.91,0,0,0,1,1.17C35.88,205.22,36.29,205.09,36.61,205.09Zm36.94-4.79c-1,1-1.43,1.46-1.9,1.81a8.35,8.35,0,0,1-1.31.67c.61.44,1.53,1.38,1.77,1.23a7.14,7.14,0,0,0,2-2.17C74.23,201.62,73.82,201,73.55,200.3Zm177.62-8c-.45-1.13-1-2.5-1.58-3.87,0,0-.3,0-.31.07-.38,1.52-.81,3,.67,4.3a4.37,4.37,0,0,1,.71,1.21ZM21.44,46.23c-1.25.79-2.45,1.52-3.59,2.32a1,1,0,0,0,0,.92c.33.28,1,.63,1.21.48a26.7,26.7,0,0,0,2.69-2.7c.13-.14-.06-.6-.16-.89C21.55,46.26,21.37,46.18,21.44,46.23Zm-10.52,5.9c0,1.94-.06,3.09.05,4.21,0,.23.72.44,1.13.53.1,0,.48-.71.44-.74-1.08-.89-.43-2.11-.66-3.15s.7-2.14-.64-2.81Zm235.19,94.53c-.41-1.41.53-2.75-.74-3.66a18,18,0,0,0-.3,3.27c.09,1.12-.67,2.43.6,3.35ZM31.66,135.74a4.68,4.68,0,0,1,0-.48c.11-1.07-.51-1.6-1.39-1.24-1.07.44.15.84.19,1.27a2.66,2.66,0,0,1-.33,1.62c-.23.36-.83.47-1.27.69a3.51,3.51,0,0,0,1.3.29,2.47,2.47,0,0,0,1.44-.73C31.85,136.85,31.66,136.22,31.66,135.74ZM20.79,178.95l-.62-1.39a12.77,12.77,0,0,0-1.93,1c-.08.06.3.88.58,1.28a5.34,5.34,0,0,0,1,1,2.79,2.79,0,0,0,.66.31,4.64,4.64,0,0,0,.3-.82A11.34,11.34,0,0,0,20.79,178.95Zm171.38,20.22a3.55,3.55,0,0,0,1.28-.38,1.28,1.28,0,0,0,0-1.23c-.85-.88-3.43-.15-3.59,1a.74.74,0,0,0,.37.61A12.88,12.88,0,0,0,192.18,199.16ZM243.81,6.54a1.62,1.62,0,0,0-.48,0c-.42.14-.83.31-1.25.47.4.17.79.37,1.2.5A6.5,6.5,0,0,1,245,8a2.23,2.23,0,0,0,3,0c-.91-.5-1.78-1.06-2.73-1.47A3.9,3.9,0,0,0,243.81,6.54ZM19.18,226.77c.57-.34,1.07-.65,1.59-.93a6.73,6.73,0,0,1,.82-.32,8,8,0,0,0-.78-.67,3.75,3.75,0,0,0-1.16-.62,4.77,4.77,0,0,0-1.62,0,1,1,0,0,0-.17.81A20.35,20.35,0,0,0,19.18,226.77ZM23.33,34.19c-.07.23-.28.55-.23.81a25.2,25.2,0,0,0,.66,2.59,14.58,14.58,0,0,0,.6,1.43c.22-.55.43-1.1.66-1.64C25.5,36.22,24.6,34.25,23.33,34.19ZM121.67,3.58l1.69-.66c-.76-.11-1.53-.17-2.28-.35-.57-.14-1.1-.48-1.68-.6a1.12,1.12,0,0,0-.78.39c.09.42.23,1.08.51,1.16A10.79,10.79,0,0,0,121.67,3.58ZM26,179l-.92-2.39-2.3,1.34c.11.11.24.33.34.32,1.47-.13,1.53,1.11,2,2Zm-1.92,36.77a12.81,12.81,0,0,0-1.26.67c.36.9,2.48.07,1.92,2,.33,0,.81.17,1,0,.42-.44,1.63-.86.33-1.65C25.41,216.38,24.73,216.09,24.08,215.76ZM33.17,93.31a9.85,9.85,0,0,0-1.5-.81,8,8,0,0,0-1.81,2.58c.19.19.65.42.77.33C31.43,94.83,32.16,94.17,33.17,93.31Zm-.52-34.87L32,57.08a6.5,6.5,0,0,1-.37,1.78c-.22.43-.76.7-1.18,1-.24.19-.51.33-.76.5a2.71,2.71,0,0,0,.77.48C32.13,61.22,32.63,60.76,32.65,58.44Zm62.74-40c1.06-.31,2.39.64,3.27-.66-1.09-.11-2.18-.24-3.28-.32a11,11,0,0,0-1.95,0c-.14,0-.28.4-.35.64,0,.07.21.3.33.31C94.07,18.41,94.72,18.4,95.39,18.4ZM8.78,99.1l.63,2.25c.5-.57,1.47-1.2,1.4-1.7-.1-.78-.9-1.47-1.4-2.2ZM220.66,224.72c-1.81-.51-2.45-.86-3.05-.8-.44,0-1.14.58-1.18.95-.13,1.31,1,1,1.67.94A12.18,12.18,0,0,0,220.66,224.72ZM217.18,8.83a12.93,12.93,0,0,0-2.54-.28c-.79.11-2-.66-2.21.95,0,.16-.07.38,0,.47.91,1.05,1.56.38,2.33-.28A9.55,9.55,0,0,1,217.18,8.83Zm-85,217c.81,0,1.63,0,2.44,0,.27,0,.52-.31.77-.47-.26-.16-.51-.46-.77-.47q-2.19-.07-4.38,0c-.26,0-.51.31-.77.47.26.16.5.44.77.47A18,18,0,0,0,132.17,225.83ZM29,182l.55,1a5.63,5.63,0,0,0-.81.35,9.39,9.39,0,0,0-.84.65,3.26,3.26,0,0,0,.82.32c1.77.17,2.64-1,1.82-2.55-.15-.28-.81-.34-1.24-.36C29.15,181.42,29,181.93,29,182ZM168.82,11.16c-.12-.23-.19-.57-.36-.64s-.81-.15-.91,0c-.31.48-.34,1.19-.72,1.56-1.11,1.1-.82,1.24.59,1.43C170.06,13.86,167.28,11.31,168.82,11.16Zm-148,194.71c-.63.46-1,.59-1,.76-.13,1.11-.2,2.26,1,2.89.24.13.63,0,1-.07Zm107.77-6.23c.81-.65,1.8-1.16,1.73-1.43a6.15,6.15,0,0,0-1.23-1.86,14.91,14.91,0,0,0-1.28,2C127.75,198.58,128.22,199,128.61,199.64Zm112.82,12.19a27.24,27.24,0,0,0-1.3,2.42c0,.09.78.74.89.67a19.19,19.19,0,0,0,1.87-1.59Zm2-187.65-1.21.46L244,27.29a9.53,9.53,0,0,0,1-.69C244.5,25.74,243.94,24.92,243.45,24.17ZM229,101a11.5,11.5,0,0,0-1.67,2.13c-.1.22.58.79.91,1.2.33-.4.85-.76,1-1.21A7.41,7.41,0,0,0,229,101Zm19.44,105.64,1-.42c.18-.78.4-1.56.5-2.35,0-.23-.29-.5-.45-.76a16.31,16.31,0,0,0-1.45,2.25C247.89,205.68,248.27,206.22,248.42,206.65ZM28.41,6.16c.72-.76,1.29-1.21,1.22-1.33a23.1,23.1,0,0,0-1.47-2.2,3.36,3.36,0,0,0-.42,1.24A13.33,13.33,0,0,0,28.41,6.16Zm166.18,6.31c.64-.19,1.28-.4,1.92-.6a5.75,5.75,0,0,1-1.61-.68c-.52-.44-.86-.86-1.38-.07-.22.34-.46.68-.7,1,.43.11.86.23,1.29.33A1,1,0,0,0,194.59,12.46ZM38.81,25.54,40.39,25a21.57,21.57,0,0,0-1.92-1.59c-.09-.06-.58.49-.89.76Zm175,173-2.89-1.31c-.16.41-.52.85-.46,1.23.2,1.19,1.21.68,1.91.72C212.7,199.15,213,198.86,213.83,198.5ZM31.62,48c-1.09,0-1.73,0-2.36,0-.16,0-.45.52-.41.58.41.49,1,1.36,1.31,1.28a9,9,0,0,0,2.33-1.24ZM245,153.83l.64,1.72c.11-.76.27-1.52.33-2.29a10,10,0,0,0,0-1.94c0-.16-.39-.31-.62-.39-.07,0-.31.2-.32.32C245,151.9,245,152.55,245,153.83ZM228.87,22.77l1.33-2.87c-.4-.17-.83-.54-1.2-.49-1.22.16-.71,1.18-.75,1.88C228.24,21.62,228.52,22,228.87,22.77ZM173,198.22c-.19-.31-.42-1-.65-1a29.71,29.71,0,0,0-3.23.29c.13.22.27.62.39.62,1.12,0,2.21-.09,3,1Zm-49,21.54-.93-.35c-.16.41-.57.94-.45,1.21a16.35,16.35,0,0,0,1.46,2.21,3.37,3.37,0,0,0,.43-1.24A9.26,9.26,0,0,0,124,219.77ZM19.31,13.22a12.76,12.76,0,0,0-1.43,1.27,3.25,3.25,0,0,0,.69.89c.76-.44,1.48-1,2.2-1.47Zm-16,7c.11,0,.31.05.32,0,.46-1.08.9-2.17,1.31-3.27,0,0-.46-.39-.61-.33-.83.31-1.63,2.31-1.33,3.24C3.07,20,3.22,20.08,3.33,20.19Zm225.58,8.5,1.29-2.89c-.41-.16-.86-.52-1.23-.45-1.18.21-.67,1.22-.71,1.92C228.24,27.57,228.53,27.9,228.91,28.69Zm-2.65,63.75a2.85,2.85,0,0,0,0,1,2.38,2.38,0,0,0,.69,1c.17.13.59,0,.89-.09-.09-.34-.21-.68-.27-1-.13-.75-.2-1.52-.37-2.26,0-.17-.39-.3-.63-.37-.07,0-.31.2-.32.32C226.23,91.48,226.25,92,226.25,92.44ZM24.75,209a8.41,8.41,0,0,0,0-1.45c0-.15-.42-.23-.64-.34v3.61c.22-.12.6-.22.63-.37A8.31,8.31,0,0,0,24.75,209Zm-4-188.67a8.41,8.41,0,0,0,0-1.45c0-.15-.42-.23-.64-.34v3.61c.22-.12.6-.22.63-.37A8.31,8.31,0,0,0,20.79,20.36ZM257,51.31c-.25-.61-.35-.88-.49-1.14a.35.35,0,0,0-.31,0A16.83,16.83,0,0,0,254.93,52c-.09.16.18.53.32.78,0,0,.26,0,.31,0C256.09,52.27,256.6,51.74,257,51.31ZM185.56,2.14c-.07-.11-.21-.52-.32-.51A12.65,12.65,0,0,0,183,2c-.12,0-.21.57-.16.84a2,2,0,0,0,.44.73C184,3.1,184.78,2.63,185.56,2.14ZM257,118.79l-1.8-1.44c-.11.27-.38.67-.29.79.49.65,1.08,1.22,1.63,1.82ZM60.8,216.94a18,18,0,0,0,1.93,0c.14,0,.25-.41.37-.63H59.5c.11.22.17.58.35.64A2.82,2.82,0,0,0,60.8,216.94Zm74.59-19.76a8.41,8.41,0,0,0,1.45,0c.15,0,.23-.42.34-.64h-3.61c.12.22.22.6.37.63A8.31,8.31,0,0,0,135.39,197.19ZM237.66,16.29c-.56.78-1.08,1.43-1.5,2.14-.09.15.19.52.31.79.55-.61,1.13-1.2,1.61-1.86C238.17,17.25,237.89,16.85,237.66,16.29ZM202.34,200.67c.64-.69,1.21-1.09,1.14-1.26a2.76,2.76,0,0,0-1-1.19c-.1-.07-.89.46-.88.71A5.77,5.77,0,0,0,202.34,200.67ZM257,218c-.15-.43-.17-.66-.25-.69s-.54-.14-.65,0a7.36,7.36,0,0,0-1.15,1.41c-.12.2.07.57.12.87.33-.1.76-.11,1-.32A8.53,8.53,0,0,0,257,218ZM150.34,196.63c-.61-.22-1-.49-1.13-.4-.64.5-1.2,1.09-1.79,1.64.27.1.65.37.8.28C148.91,197.73,149.54,197.22,150.34,196.63ZM107.26,9.3a5.83,5.83,0,0,0-1.74-.72c-.25,0-.78.79-.71.88a2.76,2.76,0,0,0,1.19,1C106.16,10.5,106.57,9.94,107.26,9.3Zm-5.92,1.2a18.73,18.73,0,0,0,1.93,0c.12,0,.2-.43.31-.65l-3.61,0c.13.22.22.55.41.62A2.9,2.9,0,0,0,101.34,10.49Zm96.79,187.84c-.7-.53-1.08-1-1.53-1.09-.25-.06-.64.45-1,.7a4.72,4.72,0,0,0,1,1.17C196.84,199.22,197.34,198.77,198.13,198.33ZM32.18,103.19c-.78-.44-1.29-.89-1.46-.78a4.72,4.72,0,0,0-1,1.17c.33.25.71.76,1,.7C31.1,104.17,31.48,103.72,32.18,103.19Zm43.47,95.19c-.69-.64-1.09-1.21-1.26-1.14a2.76,2.76,0,0,0-1.19,1c-.07.1.46.89.71.88A5.77,5.77,0,0,0,75.65,198.39ZM232.32,15c-.8-.58-1.43-1.1-2.13-1.51-.15-.09-.52.18-.8.29.6.55,1.18,1.14,1.82,1.63C231.34,15.5,231.74,15.22,232.32,15ZM156.65,197.19a18.72,18.72,0,0,0,1.93,0c.12,0,.2-.43.31-.65l-3.61,0c.13.22.22.55.41.62A2.9,2.9,0,0,0,156.65,197.19ZM9.54,116.36c.49-.85,1-1.6,1.34-2.39.07-.14-.29-.48-.45-.73-.5.73-1,1.44-1.46,2.2C8.9,115.56,9.26,115.92,9.54,116.36ZM246,164.06a18.73,18.73,0,0,0,0-1.93c0-.12-.43-.2-.65-.31l0,3.61c.22-.13.55-.22.62-.41A2.9,2.9,0,0,0,246,164.06Zm4.73,62.3c.64-.69,1.21-1.09,1.14-1.26a2.76,2.76,0,0,0-1-1.19c-.1-.07-.89.46-.88.71A5.77,5.77,0,0,0,250.74,226.36ZM247,65.32a18,18,0,0,0,0-1.93c0-.14-.41-.25-.63-.37v3.61c.22-.11.58-.17.64-.35A2.82,2.82,0,0,0,247,65.32ZM19.35,216a18.73,18.73,0,0,0,1.93,0c.12,0,.2-.43.31-.65l-3.61,0c.13.22.22.55.41.62A2.9,2.9,0,0,0,19.35,216Zm12.51-67.83L31,147a3.75,3.75,0,0,0-.31,1.3,5,5,0,0,0,.61,1.36Zm0,5.93L31,152.89a3.75,3.75,0,0,0-.31,1.3,5,5,0,0,0,.61,1.36ZM254.78,164.4a7,7,0,0,0-.83,1.21c-.08.19.19.53.3.8l1.6-1.36Zm-226.28,9,.69,1,1.29-1.68c-.28-.1-.63-.36-.81-.27A7,7,0,0,0,28.5,173.43Zm1.87,4.82-1.67.66a3.48,3.48,0,0,0,1.24.46,7.86,7.86,0,0,0,1.72-.46Zm218.49,5.48-1.36-1.36c-.16.41-.58,1-.45,1.18a3.64,3.64,0,0,0,1.39.77C248.49,184.34,248.71,183.93,248.85,183.73ZM85.5,197.45l2.31-.6c-.29-.22-.58-.61-.87-.61a9.07,9.07,0,0,0-1.79.3Zm123.14,1.4-.66-1.67a3.48,3.48,0,0,0-.46,1.24,7.86,7.86,0,0,0,.46,1.72ZM34.69,200.35a7,7,0,0,0,.89-1.18c.09-.18-.17-.53-.28-.81l-1.66,1.3ZM64.94,198l-1.67.66a3.48,3.48,0,0,0,1.24.46,7.86,7.86,0,0,0,1.72-.46ZM228.74,1.57c-.19.29-.55.64-.48.78a4.17,4.17,0,0,0,1,1.2c.05,0,.54-.39.83-.61Zm26.32,1.7-.66-1.67a3.48,3.48,0,0,0-.46,1.24,7.86,7.86,0,0,0,.46,1.72ZM221.38,205.56l-1.7-1.3c-.11.27-.39.67-.3.79a4,4,0,0,0,1.17,1C220.67,206.11,221,205.77,221.38,205.56ZM8.1,3.17a6.88,6.88,0,0,0-1.37-.55c-.21,0-.49.29-.74.45l1.66,1.3ZM134.48,2.4l-1.06.67,1.64,1.32c.11-.27.37-.62.29-.8A7,7,0,0,0,134.48,2.4ZM216,4.73l1.18-.49-1.36-1.6c-.15.25-.47.54-.42.75A6.82,6.82,0,0,0,216,4.73Zm34.35,1a6.83,6.83,0,0,0,.55-1.37c0-.21-.29-.49-.45-.74l-1.3,1.66Zm-37.31,1,1.18-.49-1.36-1.6c-.15.25-.47.54-.42.75A6.83,6.83,0,0,0,213.06,6.7Zm5.49-.07-.67-1.06-1.32,1.64c.27.11.62.37.8.29A7,7,0,0,0,218.55,6.63Zm-.92,205.86-.6-2.31c-.22.29-.61.58-.61.87a9.07,9.07,0,0,0,.3,1.79ZM232.23,5.36l-1,.69,1.68,1.29c.1-.28.36-.63.27-.81A7,7,0,0,0,232.23,5.36Zm19.4,1L250,7a3.48,3.48,0,0,0,1.24.46A7.86,7.86,0,0,0,252.92,7Zm-15,208.85,2.31-.6c-.29-.22-.58-.61-.87-.61a9.07,9.07,0,0,0-1.79.3ZM93.18,11.67l1.53-.52a4.79,4.79,0,0,0-1.32-.63,3.78,3.78,0,0,0-1.31.29Zm81.43-.38-1.53.52a4.79,4.79,0,0,0,1.32.63,3.78,3.78,0,0,0,1.31-.29ZM118.74,198.56l-.47-1.2-1.64,1.32c.25.16.53.48.75.44A6.83,6.83,0,0,0,118.74,198.56ZM41.61,16.62a7,7,0,0,0,.89-1.18c.09-.18-.17-.53-.28-.81l-1.66,1.3ZM232,18.7l.66,1.67a3.48,3.48,0,0,0,.46-1.24,7.86,7.86,0,0,0-.46-1.72Zm-10.45,7.45c.52-1.27.8-1.67.71-1.78a8.1,8.1,0,0,0-1.15-1c-.17.26-.52.58-.46.78A14.36,14.36,0,0,0,221.56,26.15ZM171.8,217.31,170.44,216c-.16.41-.58,1-.45,1.18a3.64,3.64,0,0,0,1.39.77C171.44,217.92,171.66,217.52,171.8,217.31ZM34.32,24.16l-1.67.66a3.48,3.48,0,0,0,1.24.46,7.86,7.86,0,0,0,1.72-.46Zm.38,5.56-1.4-1.28c-.22.28-.66.75-.62.8a4.28,4.28,0,0,0,1.19,1C34,30.28,34.35,29.93,34.7,29.72Zm40.84-1.58-1.21.44,1.29,1.68c.16-.25.5-.53.46-.74A6.84,6.84,0,0,0,75.54,28.13Zm59.71-.05a7,7,0,0,0-.83,1.21c-.08.19.19.53.3.8l1.6-1.36ZM115.31,218.75l-1.67.66a3.48,3.48,0,0,0,1.24.46,7.86,7.86,0,0,0,1.72-.46Zm24.05-189c-.29-.19-.64-.55-.78-.48a4.17,4.17,0,0,0-1.2,1c0,.05.39.54.61.83Zm44.56.07a6.83,6.83,0,0,0-1.37-.55c-.21,0-.49.29-.74.45l1.66,1.3Zm-159.66,190c-.19.29-.55.64-.48.78a4.17,4.17,0,0,0,1,1.2c.05,0,.54-.39.83-.61ZM203.08,31l1.42-1.3c-.41-.16-1-.56-1.18-.43a3.85,3.85,0,0,0-.74,1.42S203,31,203.08,31ZM8.5,34.68A14.91,14.91,0,0,0,7.27,33a7.19,7.19,0,0,0-1-.63c-.1.43-.41,1.1-.25,1.25A10,10,0,0,0,8.5,34.68Zm9.64,4.63,1.67-.66a3.48,3.48,0,0,0-1.24-.46,7.86,7.86,0,0,0-1.72.46ZM38.65,223.07a7,7,0,0,0,.89-1.18c.09-.18-.17-.53-.28-.81l-1.66,1.3ZM256.15,48.52l-.6-2.31c-.22.29-.61.58-.61.87a9.07,9.07,0,0,0,.3,1.79ZM214.9,222.14l2.31-.6c-.29-.22-.58-.61-.87-.61a9.07,9.07,0,0,0-1.79.3ZM32.82,51.67,32.15,50a3.48,3.48,0,0,0-.46,1.24A7.86,7.86,0,0,0,32.15,53Zm215,171.66-1.3-1.44c-.16.41-.56,1-.43,1.18a3.85,3.85,0,0,0,1.42.74S247.72,223.43,247.78,223.34ZM31.8,97.84l-.44-1.21-1.68,1.29c.25.16.53.5.74.46A6.84,6.84,0,0,0,31.8,97.84Zm221.16,7c-.29-.19-.64-.55-.78-.48a4.17,4.17,0,0,0-1.2,1c0,.05.39.54.61.83Zm-1.81,3.37a7,7,0,0,0-1.18-.89c-.18-.09-.53.17-.81.28l1.3,1.66ZM30.3,110.14l1.36-1.36c-.41-.16-1-.58-1.18-.45a3.64,3.64,0,0,0-.77,1.39C29.69,109.78,30.1,110,30.3,110.14ZM230.49,229l1.53-.52a4.79,4.79,0,0,0-1.32-.63,3.78,3.78,0,0,0-1.31.29ZM30.63,166.77a7.52,7.52,0,0,0-1.41-.17c-.14,0-.25.4-.37.62a7.15,7.15,0,0,0,1.29.3C30.26,167.53,30.41,167.13,30.63,166.77Zm.62,2.62c-.25.39-.57.65-.55.88a5,5,0,0,0,.46,1.23c.16-.25.47-.5.46-.75A6,6,0,0,0,31.26,169.39ZM8.74,123.14c-.36.23-.76.37-.75.49a7.15,7.15,0,0,0,.3,1.29c.22-.12.61-.24.62-.37A7.51,7.51,0,0,0,8.74,123.14Zm20.74,52.35c-.36.23-.76.37-.75.49a7.15,7.15,0,0,0,.3,1.29c.22-.12.61-.24.62-.37A7.51,7.51,0,0,0,29.48,175.49ZM95,28.86c-.39-.25-.65-.57-.88-.55a5,5,0,0,0-1.23.46c.25.16.5.47.75.46A6,6,0,0,0,95,28.86ZM36.48,28.2l-.87.57a5,5,0,0,0,1.23.46c.23,0,.5-.3.75-.46ZM31.62,87.74a7.47,7.47,0,0,0-1.41-.17c-.14,0-.25.4-.37.62a7.15,7.15,0,0,0,1.29.3C31.25,88.5,31.4,88.11,31.62,87.74Zm-18-59.51a3.57,3.57,0,0,0-.08-.76,6.44,6.44,0,0,0-1.3,0,2.06,2.06,0,0,0,0,.62A12.52,12.52,0,0,0,13.62,28.23ZM228.11,183.44l1.11-.57c-.25-.16-.52-.49-.75-.46a5,5,0,0,0-1.23.46Zm2.18-97.75-.57-1.11c-.16.25-.49.52-.46.75a5,5,0,0,0,.46,1.23ZM20.76,24.53a7.47,7.47,0,0,0-1.41-.17c-.14,0-.25.4-.37.62a7.15,7.15,0,0,0,1.29.3C20.39,25.29,20.53,24.89,20.76,24.53ZM252.14,184.81l-.54-1.3a2.93,2.93,0,0,0-.62.86c-.06.23.19.53.3.81ZM211,21.56l1.3-.54a2.93,2.93,0,0,0-.86-.62c-.23-.06-.53.19-.81.3Zm24.31,173.24c-.39-.25-.65-.57-.88-.55a5,5,0,0,0-1.23.46c.25.16.5.47.75.46A6,6,0,0,0,235.28,194.81ZM51.38,20.57A7.51,7.51,0,0,0,50,20.4c-.14,0-.25.4-.37.62a7.15,7.15,0,0,0,1.29.3C51,21.33,51.15,20.94,51.38,20.57ZM5.07,85.44l-.57-.87A5,5,0,0,0,4,85.81c0,.23.3.5.46.75ZM91.13,196.72l-.85-.37c-.11.27-.36.58-.3.81a2.93,2.93,0,0,0,.62.86Zm29.31.54,1.11-.57c-.25-.16-.52-.49-.75-.46a5,5,0,0,0-1.23.46ZM13.09,18.86l-.54-1.3a2.93,2.93,0,0,0-.62.86c-.06.23.19.53.3.81Zm212.05-2.52-.87.57a5,5,0,0,0,1.23.46c.23,0,.5-.3.75-.46ZM48.66,198.64l-.54-1.3a2.93,2.93,0,0,0-.62.86c-.06.23.19.53.3.81ZM9,14.32l-.57-.87A5,5,0,0,0,8,14.69c0,.23.3.5.46.75Zm218.1,101.94,1.11-.57c-.25-.16-.52-.49-.75-.46a5,5,0,0,0-1.23.46Zm-101.7,82,.57.87a5,5,0,0,0,.46-1.23c0-.23-.3-.5-.46-.75Zm-55.7-188-.37.85c.27.11.58.36.81.3a2.93,2.93,0,0,0,.86-.62ZM7.87,11.36l.57,1.11c.16-.25.49-.52.46-.75a5,5,0,0,0-.46-1.23ZM228,126a7.51,7.51,0,0,0,.17-1.41c0-.14-.4-.25-.62-.37a7.15,7.15,0,0,0-.3,1.29C227.27,125.66,227.67,125.8,228,126ZM147,9.54c-.36.23-.76.37-.75.49a7.15,7.15,0,0,0,.3,1.29c.22-.12.61-.24.62-.37A7.52,7.52,0,0,0,147,9.54Zm98.51,188.83,1.3-.54a2.93,2.93,0,0,0-.86-.62c-.23-.06-.53.19-.81.3Zm6.35-.4c-.23-.36-.37-.76-.49-.75a7.15,7.15,0,0,0-1.29.3c.12.22.24.61.37.62A7.52,7.52,0,0,0,251.9,198ZM29.48,127.09c-.36.23-.76.37-.75.49a7.15,7.15,0,0,0,.3,1.29c.22-.12.61-.24.62-.37A7.51,7.51,0,0,0,29.48,127.09Zm-19.48,3L9.43,129c-.16.25-.49.52-.46.75A5,5,0,0,0,9.43,131ZM79.66,198c-.25.39-.57.65-.55.88a5,5,0,0,0,.46,1.23c.16-.25.47-.5.46-.75A6,6,0,0,0,79.66,198ZM225,4.52a3.57,3.57,0,0,0-.08-.76,6.44,6.44,0,0,0-1.3,0,2.06,2.06,0,0,0,0,.62A12.52,12.52,0,0,0,225,4.52ZM30.21,129.81l-.37.85c.27.11.58.36.81.3a2.93,2.93,0,0,0,.86-.62ZM11.5,3.44c-.25.39-.57.65-.55.88a5,5,0,0,0,.46,1.23c.16-.25.47-.5.46-.75A6,6,0,0,0,11.5,3.44Zm237-.65,1.3-.54a2.93,2.93,0,0,0-.86-.62c-.23-.06-.53.19-.81.3Zm5.61,200.78-.54-1.3a2.93,2.93,0,0,0-.62.86c-.06.23.19.53.3.81ZM18.7,203l-.87.57a5,5,0,0,0,1.23.46c.23,0,.5-.3.75-.46ZM211,204.3l1.3-.54a2.93,2.93,0,0,0-.86-.62c-.23-.06-.53.19-.81.3ZM195.6,1.81a7.51,7.51,0,0,0-1.41-.17c-.14,0-.25.4-.37.62a7.15,7.15,0,0,0,1.29.3C195.22,2.57,195.37,2.17,195.6,1.81Zm-79,0a7.51,7.51,0,0,0-1.41-.17c-.14,0-.25.4-.37.62a7.15,7.15,0,0,0,1.29.3C116.2,2.57,116.35,2.17,116.57,1.81ZM30.88,85l-.54-1.3a2.93,2.93,0,0,0-.62.86c-.06.23.19.53.3.81Zm1.57-6.43a7.51,7.51,0,0,0,.17-1.41c0-.14-.4-.25-.62-.37a7.15,7.15,0,0,0-.3,1.29C31.69,78.24,32.08,78.39,32.45,78.61Zm-9.71-6.67a7.47,7.47,0,0,0-1.41-.17c-.14,0-.25.4-.37.62a7.15,7.15,0,0,0,1.29.3C22.36,72.7,22.51,72.3,22.73,71.94Zm230,64a7.47,7.47,0,0,0,.17-1.41c0-.14-.4-.25-.62-.37a7.15,7.15,0,0,0-.3,1.29C252,135.54,252.36,135.68,252.72,135.91Zm.79-67.27c-.25.39-.57.65-.55.88a5,5,0,0,0,.46,1.23c.16-.25.47-.5.46-.75A6,6,0,0,0,253.51,68.64ZM31.8,69.36c-.39-.25-.65-.57-.88-.55a5,5,0,0,0-1.23.46c.25.16.5.47.75.46A6,6,0,0,0,31.8,69.36Zm215.28-.71-.57-.87A5,5,0,0,0,246,69c0,.23.3.5.46.75Zm-19.31,139.6,1.3-.54a2.93,2.93,0,0,0-.86-.62c-.23-.06-.53.19-.81.3Zm6.6,3.26a3.68,3.68,0,0,0-.87-.31,1.11,1.11,0,0,0-.3.77,2.93,2.93,0,0,0,.62.86ZM256.09,57.39l-.54-1.3a2.93,2.93,0,0,0-.62.86c-.06.23.19.53.3.81Zm-251.3.48A7.47,7.47,0,0,0,5,56.46c0-.14-.4-.25-.62-.37A7.15,7.15,0,0,0,4,57.38C4,57.5,4.43,57.64,4.79,57.87Zm25.76-4-.87.57a5,5,0,0,0,1.23.46c.23,0,.5-.3.75-.46ZM21,51.52l-.85-.37c-.11.27-.36.58-.3.81a2.93,2.93,0,0,0,.62.86Zm1.57.43a7.52,7.52,0,0,0,.17-1.41c0-.14-.4-.25-.62-.37a7.15,7.15,0,0,0-.3,1.29C21.81,51.57,22.21,51.72,22.57,51.94Zm204.75-5.77-.57-1.11c-.16.25-.49.52-.46.75a5,5,0,0,0,.46,1.23ZM26.8,42l-.57-.87a5,5,0,0,0-.46,1.23c0,.23.3.5.46.75Zm153-9.55a7.52,7.52,0,0,0-1.41-.17c-.14,0-.25.4-.37.62a7.15,7.15,0,0,0,1.29.3C179.42,33.19,179.56,32.79,179.79,32.43Zm-9.11.74a3.57,3.57,0,0,0-.08-.76,6.44,6.44,0,0,0-1.3,0,2.06,2.06,0,0,0,0,.62A12.52,12.52,0,0,0,170.68,33.17ZM28.66,33c-.23-.36-.37-.76-.49-.75a7.15,7.15,0,0,0-1.29.3c.12.22.24.61.37.62A7.52,7.52,0,0,0,28.66,33ZM237.08,216.16a7.51,7.51,0,0,0-1.41-.17c-.14,0-.25.4-.37.62a7.15,7.15,0,0,0,1.29.3C236.71,216.92,236.86,216.52,237.08,216.16ZM30.47,218.88a7.52,7.52,0,0,0,.17-1.41c0-.14-.4-.25-.62-.37a7.15,7.15,0,0,0-.3,1.29C29.71,218.51,30.11,218.65,30.47,218.88Zm218-2.14-.37.85c.27.11.58.36.81.3a2.93,2.93,0,0,0,.86-.62ZM20.76,32.43a7.47,7.47,0,0,0-1.41-.17c-.14,0-.25.4-.37.62a7.15,7.15,0,0,0,1.29.3C20.39,33.19,20.53,32.79,20.76,32.43Zm-17,80.84c-.36.23-.76.37-.75.49a7.15,7.15,0,0,0,.3,1.29c.22-.12.61-.24.62-.37A7.51,7.51,0,0,0,3.8,113.26ZM232.38,219.44l-.85-.37c-.11.27-.36.58-.3.81a2.93,2.93,0,0,0,.62.86ZM256.67,30.29c-.36.23-.76.37-.75.49a7.15,7.15,0,0,0,.3,1.29c.22-.12.61-.24.62-.37A7.51,7.51,0,0,0,256.67,30.29Zm-80.07.9a3.57,3.57,0,0,0-.08-.76,6.44,6.44,0,0,0-1.3,0,2.06,2.06,0,0,0,0,.62A12.52,12.52,0,0,0,176.6,31.19ZM251,112.36l-.57-1.11c-.16.25-.49.52-.46.75a5,5,0,0,0,.46,1.23ZM32.45,70.79c-.36.23-.76.37-.75.49a7.15,7.15,0,0,0,.3,1.29c.22-.12.61-.24.62-.37A7.51,7.51,0,0,0,32.45,70.79ZM256.1,146.32a3.68,3.68,0,0,0-.87-.31,1.11,1.11,0,0,0-.3.77,2.93,2.93,0,0,0,.62.86ZM5.19,105.79l-.54-1.3a2.93,2.93,0,0,0-.62.86c-.06.23.19.53.3.81ZM169.48,30.45l1.3-.54a2.93,2.93,0,0,0-.86-.62c-.23-.06-.53.19-.81.3Zm80,73.1,1.3-.54a2.93,2.93,0,0,0-.86-.62c-.23-.06-.53.19-.81.3Zm-219.73,51-.57-.87a5,5,0,0,0-.46,1.23c0,.23.3.5.46.75Zm34.46,68.48a7.47,7.47,0,0,0-1.41-.17c-.14,0-.25.4-.37.62a7.15,7.15,0,0,0,1.29.3C63.85,223.83,64,223.43,64.22,223.07ZM129.53,30.13l-.57-.87a5,5,0,0,0-.46,1.23c0,.23.3.5.46.75ZM30.63,158.46c-.23-.36-.37-.76-.49-.75a7.15,7.15,0,0,0-1.29.3c.12.22.24.61.37.62A7.51,7.51,0,0,0,30.63,158.46ZM257,159.53l-.57-.87a5,5,0,0,0-.46,1.23c0,.23.3.5.46.75ZM157.83,29.22a3.57,3.57,0,0,0-.08-.76,6.44,6.44,0,0,0-1.3,0,2.06,2.06,0,0,0,0,.62A12.52,12.52,0,0,0,157.83,29.22ZM30.63,163.8a7.52,7.52,0,0,0-1.41-.17c-.14,0-.25.4-.37.62a7.15,7.15,0,0,0,1.29.3C30.26,164.56,30.41,164.17,30.63,163.8Zm195.82.32-.85-.37c-.11.27-.36.58-.3.81a2.93,2.93,0,0,0,.62.86Zm15.2,60.58c-.25.39-.57.65-.55.88a5,5,0,0,0,.46,1.23c.16-.25.47-.5.46-.75A6,6,0,0,0,241.66,224.71Zm-7,1.91-.37.85c.27.11.58.36.81.3a2.93,2.93,0,0,0,.86-.62Zm20.74,0-.37.85c.27.11.58.36.81.3a2.93,2.93,0,0,0,.86-.62Zm-67.73,2c-.23-.36-.37-.76-.49-.75a7.15,7.15,0,0,0-1.29.3c.12.22.24.61.37.62A7.51,7.51,0,0,0,187.69,228.59Zm2.54.4,1.3-.54a2.93,2.93,0,0,0-.86-.62c-.23-.06-.53.19-.81.3Zm13.43-.12.87-.57a5,5,0,0,0-1.23-.46c-.23,0-.5.3-.75.46Zm13.67-.86a7.47,7.47,0,0,0-1.41-.17c-.14,0-.25.4-.37.62a7.15,7.15,0,0,0,1.29.3C217,228.77,217.1,228.37,217.33,228ZM89.9,215.17a7.47,7.47,0,0,0-1.41-.17c-.14,0-.25.4-.37.62a7.15,7.15,0,0,0,1.29.3C89.53,215.93,89.68,215.53,89.9,215.17Z"/><path class="a" d="M50.43,3.58l1-1c.33,0,.81.14,1,0,2.11-2.26,4.83-2,7.55-2,3.43.06,6.87,0,10.3,0,.24,0,.48.45.72.69-.29.09-.59.16-.87.27s-.54.28-.81.42c.2.19.39.52.61.54.63,0,1.64.19,1.85-.13,1.58-2.38,4-1.8,6.16-1.81,3.93,0,7.85,0,11.78,0,.43,0,.84.62,1.27.94-.75.15-1.89-.49-2,1-1.7-.2-3.34,1.73-5.15.06A1.1,1.1,0,0,0,82,3.53c0,.76-.16,1.24-1,.54a2.32,2.32,0,0,0-1.22-.46c-1.43,2.21-2.91.15-4.12-.17-1-.27-1.5-1.2-2.83-.18a7.68,7.68,0,0,1-5.35,1.35c-2.29-.18-4.6,0-6.9-.08A8.15,8.15,0,0,1,58,3.7c-.7-.29-1.49-1.19-2-1-1.4.47.58,1,.15,1.56-.16.2-.72.4-.81.31-1.41-1.38-2.76-.58-4.16,0C51.08,4.56,50.69,3.91,50.43,3.58Z"/><path class="a" d="M90.93,1.6A8.28,8.28,0,0,1,93.46.66c4.73-.09,9.47,0,14.2,0a2.92,2.92,0,0,1,.86.28,3.94,3.94,0,0,1-.8.68,11.93,11.93,0,0,0-2.47,1.08c-.94.76-1.53,1.39-1.51-.49a1.83,1.83,0,0,0-.93-.08,19.22,19.22,0,0,0-3.34,1.39c-1.08.65-2.12-1.84-3.08.06a10.24,10.24,0,0,0-5.46-1Z"/><path class="a" d="M165,2.59c.72-.56,1.42-1.17,2.19-1.66a3.38,3.38,0,0,1,1.24-.28c.84,3.48,3.17-.12,4.48,1-1.47,3.22-4.38,3.07-7.17,2.92C164.57,4.46,165.14,3.29,165,2.59Z"/><path class="a" d="M108.59,3.66l-.87-.57a5,5,0,0,1,1.23-.46c.23,0,.5.3.75.46Z"/><path class="a" d="M90.93,2.59l-1.23,1-.75-1Z"/><path class="a" d="M24.75,59.88c.33.41,1,.87.93,1.23-.16,1.19-1.22.61-1.92.74Z"/><path class="a" d="M105.74,97.42c1.87.65.41,3,2,3.83.44,3.25,2.54,5.6,4.47,8,.92,1.15,2.12,2.07,3.11,3.17,2,2.16,4.33,3.14,8.43,3.08.42,0,.09-.2-.27-.29a4.12,4.12,0,0,0-.92,0c.23.33.39.84.7.94s.81-.14.49-.64a20.91,20.91,0,0,1-4.61-3.24,7.13,7.13,0,0,1-2.51-5.87,9.89,9.89,0,0,0,0-2c-.66-4.61,1.2-7.49,6.46-10,.28-.13.48-.67.7-.65,3.85.22,3.65-3.14,4.66-5.34.43-.94,0-2,.7-3.19.87-1.39-1-3.77-2.68-3.58-5,.56-10,1.26-15,2-.56.08-1,.73-1.58.93-1.61.57-3.2,1.62-3,3.22.13,1,1.89,1.94,3.11,2.48,2.08.92,4.31,1.5,6.48,2.22l2,.62a6.17,6.17,0,0,1-1.82.34c-4.06-.49-8.14-.93-11-4.48-1.16-1.45-1.14-2.3-.1-3.74,2.35-3.26,6.24-3.24,9.5-4.51,1.29-.5,2.94,0,4.41-.12s2.68-.8,4-.92c3.87-.34,14,1.14,19.49,3a18.2,18.2,0,0,1,3.66,1.89c1.62,1,1.81,2.58,1.55,4.27,0,.25-.34.45-.52.68-.15-.27-.41-.52-.43-.8-.26-2.6-1.81-3.37-4.21-4.27a22.53,22.53,0,0,0-9.61-1.78,3.13,3.13,0,0,0-.85.32c.3.22.57.56.9.63a17.39,17.39,0,0,1,2.77.48c.36.14,2.31,1.13-.09,1.58-.33.06-.58.92-.76,1.45-.29.87-.4,1.81-.74,2.65-1.24,3.1-1.6,5.65,1.59,8.26s2.63,6.67,1.6,10.2c-.81,2.78-2.12,5.56-5.65,6-.26,0-.49.33-.73.5a3.67,3.67,0,0,0,1.28.45c2.84-.18,5.16-2.06,6.71-3.82,3.88-4.38,7-9.41,7.78-15.47,0-.16,0-.35,0-.49.46-1.29.94-2.57,1.42-3.85.91,1.49.15,2.76-.1,4.28a36.49,36.49,0,0,1-2.92,9.7c-1.75,3.73-4.6,6.45-7.39,9.28a7.71,7.71,0,0,0-.74,1,5.87,5.87,0,0,0,1.34.32q29.62,0,59.23,0c2,0,4,0,5.92,0,.45,0,.88.42,1.31.65-.48.43-.91,1.14-1.45,1.23a20.51,20.51,0,0,1-3.45.06H58.76a32.34,32.34,0,0,0-3.45,0c-.78.08-1.34-1.84-2.22-.22l-1.4-1c.37-.26.74-.73,1.11-.74q20.24-.06,40.48,0,10.86,0,21.72,0a7.93,7.93,0,0,0,1.38-.24c-.3-.47-.5-1.12-.93-1.36-2.23-1.25-3.67-3.23-5.17-5.2C107.55,105.83,105.67,102,105.74,97.42Zm21,16.79c1.23.16,5.28-1.53,6.45-2.22,3-1.75,3-5,4.05-7.68.15-.39-.71-1.53-1.32-1.78a3.74,3.74,0,0,0-2.82-.1c-1.18.68-1.7,1.09-1.89-.7-.05-.48-.9-1.27-1.32-1.23s-1.1.75-1.37,1.3c-1.18,2.46-1.8,3-3.66,2.38s-3.4-1.27-5.13-1.82c-1.38-.44-2.11.14-2.16,1.54C117.41,108.56,121.9,113.59,126.77,114.21Zm.18-15.4-1.67-1.39a6.4,6.4,0,0,0-.74,1.47c-.19.88.05,1.7,1.17,1.44C126.12,100.23,126.39,99.53,126.94,98.81ZM130.26,95c.53-.67,1-1,1.12-1.48a5.64,5.64,0,0,0-.25-1.78,16.24,16.24,0,0,0-1.64,1.81C129.39,93.66,129.84,94.19,130.26,95Zm-6.94,6.37a7.52,7.52,0,0,0,.17-1.41c0-.14-.4-.25-.62-.37a7.15,7.15,0,0,0-.3,1.29C122.56,101,123,101.11,123.32,101.33Zm5.93-3a7.51,7.51,0,0,0,.17-1.41c0-.14-.4-.25-.62-.37a7.15,7.15,0,0,0-.3,1.29C128.49,98,128.89,98.14,129.25,98.37Z"/><path class="a" d="M194.65,129.46c0-1.31,0-2.62,0-3.92.07-1.75-.42-4.21.51-5.06s3.38-.29,5.16-.34c.49,0,1,0,1.47,0,1.79.12,2.69.87,2.71,2.55.06,4.9,0,9.8,0,14.71,0,1.58-.95,2.21-2.3,2.49a2.34,2.34,0,0,1-.49,0c-7.12,0-7.29.91-7.1-6.52C194.67,132.07,194.65,130.76,194.65,129.46Zm4-4.13c0,.49,0,1,0,1.46-.09,1.14.54,1.28,1.49,1.28s1.56-.13,1.49-1.28a20,20,0,0,0-.08-2.91c-.07-.34-.92-.72-1.41-.72a2,2,0,0,0-1.43.74C198.41,124.21,198.6,124.84,198.6,125.33Zm3,8.41c.09-1.07,0-1.78-1.47-1.81-2,0-1.42,1.25-1.49,2.27s0,1.78,1.47,1.8C202.05,136,201.48,134.76,201.56,133.74Z"/><path class="a" d="M75.12,129.77c0,2.63,0,5.27,0,7.9,0,1.18-.62,1.24-1.54,1.26s-1.56-.24-1.45-1.34a8.26,8.26,0,0,0,0-1C72,130.94,72,131,70.55,131c-2.12-.07-1.23,1.48-1.33,2.41a33.07,33.07,0,0,0,0,3.45c0,.33,0,.66,0,1,0,1.31-.94,1.14-1.69,1s-2.22.7-2.24-1q-.09-8.39,0-16.79c0-1.66,1.43-.84,2.24-1s1.72-.27,1.69,1c0,.49,0,1,0,1.48.07,5.3.07,5.3,1.36,5.35,1.54.06,1.54.06,1.6-5.1a14.53,14.53,0,0,0,0-1.48c-.1-1.1.44-1.37,1.45-1.34s1.56.08,1.54,1.26C75.09,124.17,75.12,127,75.12,129.77Z"/><path class="a" d="M181.8,130.27c0-2.47,0-4.94,0-7.41,0-1.79.87-2.63,2.58-2.7a42,42,0,0,1,4.94,0,2.26,2.26,0,0,1,2.35,2.44c0,5.1,0,10.21-.06,15.31,0,.34-.76.86-1.23.94-.73.13-1.7.29-1.69-1q0-2.47,0-4.94A2.29,2.29,0,0,0,185.4,131a1.5,1.5,0,0,0-.61,1.12c-.06,1.81-.07,3.62,0,5.43,0,1.1-.45,1.37-1.46,1.34s-1.56-.08-1.54-1.26C181.84,135.2,181.8,132.73,181.8,130.27Zm7.55-4.7c-1-1-1.68-2.21-2.51-2.36-1.18-.21-2,.82-2.08,2.11s1.15,3,2.07,2.64S188.31,126.61,189.35,125.57Z"/><path class="a" d="M118.59,128.91c0,1.81.06,3.62,0,5.43a2.37,2.37,0,0,1-2.7,2.58c-7.23,0-7.34.92-7.17-6.52.06-2.63-.07-5.27,0-7.9a2.23,2.23,0,0,1,2.44-2.35h4.94a2.24,2.24,0,0,1,2.44,2.35C118.67,124.62,118.59,126.77,118.59,128.91Zm-4-.39c0-1.47.08-3-.06-4.41,0-.37-.74-.88-1.21-1-.71-.12-1.71-.33-1.7,1,0,2.94,0,5.89.06,8.83,0,.35.75.87,1.21,1,.71.12,1.71.33,1.7-1C114.63,131.46,114.63,130,114.63,128.52Z"/><path class="a" d="M94.88,128.36v-3.44a11.86,11.86,0,0,1,0-1.47c.27-2.11,2.28-3.31,5.5-3.31s5.11,1.18,5.31,3.47A2.54,2.54,0,0,1,105,125c-1.11-.4-3.16,1.24-3.34-1.45,0-.2-1.44-.47-2.16-.38-.28,0-.63,1-.64,1.52-.06,3.11-.05,6.22,0,9.34,0,1,.43.91,1.09.34s1.75-.72,1.77-1.13c.13-2.12,1.71-1.25,2.54-1.15.56.06,1.5,1.23,1.4,1.71a6.06,6.06,0,0,1-1.66,3.06,6.74,6.74,0,0,1-3,1,5.23,5.23,0,0,1-6.11-4.63C94.79,131.64,94.88,130,94.88,128.36Z"/><path class="a" d="M159.37,120.14c.49,0,1,0,1.47,0,1.19-.09,1.19.66,1.23,1.55s-.26,1.47-1.35,1.44c-1.38,0-3-.51-2.7,2.07.18,1.43.44,2.11,1.93,1.86.16,0,.33,0,.49,0,1.3-.2,1.68.38,1.64,1.64,0,1.07-.45,1.28-1.44,1.37-2.57.22-2.38.3-2.59,2.62-.19,2.12.73,2.55,2.48,2.28,1.45-.23,1.54.6,1.54,1.72s-.58,1.34-1.52,1.25a10.46,10.46,0,0,1-4.09-.83c-1.76-.88-2.36-1.77-2.33-3.55.06-2.78,0-5.57,0-8.35C154.18,121.34,155.44,120.13,159.37,120.14Z"/><path class="a" d="M79.07,128.72c0-2-.05-3.93,0-5.89a2.41,2.41,0,0,1,2.59-2.67c1.31-.07,2.62,0,3.93,0,1.05-.05,1.44.35,1.39,1.39,0,.84.05,1.66-1.18,1.59-.65,0-1.31,0-2,0-1,0-2-.15-1.82,1.43.16,1.14-.64,2.86,1.7,2.53a5.36,5.36,0,0,1,1,0c1.31.06,2.26.84,2.19,2a2.19,2.19,0,0,1-2.31,2c-.9.06-2.4-.93-2.57,1.13-.19,2.45-.07,2.65,2.45,2.77,1.18.05,2.89-.57,2.47,1.71-.09.46-.62.85-1,1.24-.08.08-.31,0-.48,0-5.94-.06-6.67,1-6.41-6.25C79.1,130.68,79.07,129.7,79.07,128.72Z"/><path class="a" d="M55.37,131.53c0-2.29-.08-4.59,0-6.87.07-1.39-.54-1.69-1.71-1.56s-1.32-.49-1.31-1.46.11-1.54,1.27-1.51q3.68.08,7.36,0c1.14,0,1.3.53,1.3,1.49s-.14,1.65-1.28,1.48c-1.73-.26-1.74.75-1.73,2,.05,4.42-.06,8.84.06,13.26.06,2-1.21,1.44-2.25,1.52s-1.86,0-1.78-1.5C55.46,136.12,55.37,133.82,55.37,131.53Z"/><path class="a" d="M143.28,128.29c0-2,0-3.95,0-5.92a2.09,2.09,0,0,1,2.08-2.2,32.4,32.4,0,0,1,4.92,0c.33,0,.81.84.83,1.32s-.29,1.42-.64,1.51c-.91.25-2-.07-2.86.27a2.42,2.42,0,0,0-1.29,1.82,2.6,2.6,0,0,0,1.36,1.81,5.75,5.75,0,0,0,2.41.12c1.31,0,1.15,1,1,1.69a1.84,1.84,0,0,1-1,1.23c-.58.21-1.33-.08-1.94.09a6.73,6.73,0,0,0-1.55,1c-1,.65,1.39,1.48-.11,2.09.16.27.31.77.5.78a24,24,0,0,0,3,0c1.24-.05,1.14.76,1.18,1.6.06,1.06-.35,1.41-1.4,1.39-6-.1-6.8,1-6.52-6.2C143.31,129.93,143.28,129.11,143.28,128.29Z"/><path class="a" d="M132.41,129q0-3.2,0-6.4a2.26,2.26,0,0,1,2.35-2.43,26.57,26.57,0,0,1,4.42,0,1.6,1.6,0,0,1,1.07,1.09c.1.67.46,1.73-.86,1.82a5.1,5.1,0,0,0-1,0c-.69.19-1.83.32-2,.72a4.19,4.19,0,0,0,.15,2.82c.19.4,1.44.38,2.21.37,1,0,1.51.14,1.52,1.28s-.14,1.87-1.57,1.74a4.08,4.08,0,0,0-2.26.41c-.42.24-1.64.62-.54,1.73.44.45.36,1.49.39,2.27.08,2.61-.09,2.68-2.73,2.5-1.18-.08-1.24-.67-1.22-1.57C132.44,133.26,132.41,131.13,132.41,129Z"/><path class="a" d="M121.55,129q0-3.2,0-6.4a2.26,2.26,0,0,1,2.35-2.43,26.57,26.57,0,0,1,4.42,0,1.6,1.6,0,0,1,1.07,1.09c.1.67.46,1.75-.87,1.81a7.62,7.62,0,0,0-2.43.07c-.65.28-1.56,1.2-1.47,1.69A3.88,3.88,0,0,0,126.2,127c.43.31,1.27.1,1.93,0,1.09-.09,1.38.42,1.35,1.44s0,1.63-1.24,1.54c-.49,0-1,0-1.48,0-1.15-.1-1.34.54-1.28,1.5s0,2,0,3c0,2.58-.2,2.67-2.74,2.5-1.18-.08-1.24-.67-1.22-1.57C121.57,133.26,121.55,131.13,121.55,129Z"/><path class="a" d="M173.9,127c0,1.31,0,2.62,0,3.92,0,3.52,0,3.64,3.66,4,1.63.17,1.29,1.12,1.24,2,0,.35-.46,1-.71,1-2.27,0-4.54-.05-6.81-.1-.12-1.91-.3-3.83-.33-5.74-.05-3.43,0-6.87,0-10.3,0-1.32.44-1.66,1.67-1.62,1.08,0,1.37.44,1.34,1.45C173.86,123.36,173.9,125.16,173.9,127Z"/><path class="a" d="M158.17,98.67c.24-2.22-1.35-3.25-2.79-4.16a14.87,14.87,0,0,0-3.48-1.06c-.26-.08-.45-.34-.68-.52a2.55,2.55,0,0,1,.8-.44c3.13-.39,5.34,1,7.06,4.27,1.54,3,1.29,4.47-1,7.11a17.39,17.39,0,0,1-8.56,5.43,33.11,33.11,0,0,0-4.11,1.91c-.22.1-.6-.1-.86-.24a.89.89,0,0,1,.18-.65,28.15,28.15,0,0,1,3.08-2c2-1.05,4-2.08,6.14-3C157,104.07,157.81,101.54,158.17,98.67Z"/><path class="a" d="M112.66,146.6c1.36,1.19,1.37,1.18,1-1.69,0-.33-.4-.62-.61-.93-.12.28-.38.59-.33.83a2.22,2.22,0,0,1-1.41,2.76,10.23,10.23,0,0,1-4.58-.4,1.28,1.28,0,0,1-.5-2.28,13.76,13.76,0,0,1,2.31-2c.91-.54,1.87.19,2.18,1.49.11.44.24.88.37,1.32.21-.48.38-1,.63-1.45s.54-1.29.86-1.32c.8-.07,2.08-.61,2.1,1.05a10.52,10.52,0,0,0,0,1.47,8.08,8.08,0,0,0,.41,1.29c.19-.37.54-.74.53-1.1,0-1.75.8-2.59,2.51-2.83a8.14,8.14,0,0,0,2-.88c-.18.62-.4,1.23-.54,1.86a6.55,6.55,0,0,0,0,1c-.21,3-.21,3-6.91,1.83-4-1.71-4.24-2.23-4.47-2.76-.16.31-.47.65-.44.93a13.29,13.29,0,0,0,.54,1.95C108.47,146.33,108.64,145.94,112.66,146.6Zm6.07-1.42c-.24-.62-.34-.89-.47-1.15a.34.34,0,0,0-.31,0,16.84,16.84,0,0,0-1.3,1.83c-.09.16.17.53.3.79a.34.34,0,0,0,.31,0C117.79,146.13,118.31,145.6,118.72,145.18Z"/><path class="a" d="M144.27,146.81c-1.27,1.84-3,.85-4.62.75-.13,0-.21-.84-.32-1.28s-.24-.88-.37-1.32a6.79,6.79,0,0,0-.61,1,2.67,2.67,0,0,1-2.93,1.9c-1.71-.14-3.52.3-5-1l1-3a14.36,14.36,0,0,1,.75-2.13c.14-.27.66-.35,1-.51.07.3.3.77.2.86-1.29,1.13-.94,2.62-.94,4,0,.26.3.52.47.77.17-.25.5-.53.47-.76-.21-1.47.65-3.23,1.58-3,1.67.39,3.13-.5,4.59-.12s.45,1.93.78,2.9c.09.29.22.56.33.84a4,4,0,0,0,.63-.89c.11-.29,0-.65,0-1a1.35,1.35,0,0,1,.37-.81c.62-.43,1.53-1.23,1.93-1,1.39.67-.54,1-.34,1.63S142.63,146.64,144.27,146.81Zm-7.07-1.4c-.1-.16-.32-.56-.36-.55a3.74,3.74,0,0,0-1.41.76c-.13.14.28.77.44,1.18Z"/><path class="a" d="M81.24,140.89c4.1,0,4.15,0,4.76,4.59a6.76,6.76,0,0,0,.44,1.29c.18-.4.34-.8.53-1.19a16.42,16.42,0,0,1,1.25-2.43,1.28,1.28,0,0,1,1.26-.17,1.32,1.32,0,0,1,.41,1.22c-.6.93-1.74,1.69-.27,2.81.09.07,0,.64-.08.65a13.49,13.49,0,0,1-3.87,0c-.4-.1-.44-1.62-.67-2.49-.12-.44-.29-.86-.44-1.3-.18.39-.38.77-.53,1.17-.06.14,0,.34,0,.49-.23.79.59,2.45-1,2.16-1.92-.36-.65-1.36-.16-2.34a6.41,6.41,0,0,0,.12-2.89c0-.17-.37-.35-.6-.47,0,0-.31.2-.32.33a7.73,7.73,0,0,1-.06,1.46c-.4,1.31-.89,2.59-1.35,3.88-1.32-1.34-.91-3.19-.38-4.36.6-1.33.81-1.55-.72-1.46h-.49c.12-.28.19-.78.35-.81A14.92,14.92,0,0,1,81.24,140.89Z"/><path class="a" d="M196.11,146.81c-.65,0-1.31,0-2,0-3-.07-6,.25-8.95-.9-1.56-.6-3.47-.31-5.22-.43,1.64-1.34,3.55-.45,5.32-.61a33.34,33.34,0,0,1,5.39,0c3,.21,6-.52,9,.85,1.63.74,3.78.34,5.7.45-2,1.5-4.21.27-6.31.62A18,18,0,0,1,196.11,146.81Z"/><path class="a" d="M61.74,146.81c-2.13,0-3.27,0-4.42,0-1.92-.08-3.83-.22-5.75-.33,1.8-1.38,3.91-.21,5.79-.67,5.7-1.38,11.5-.89,17.26-1,.65,0,1.31,0,2,0,.12,0,.35.25.33.32-.08.23-.25.63-.38.63C71.25,145.75,66.1,147.78,61.74,146.81Z"/><path class="a" d="M166,143.85c.66-.23,1.55-.28,1.91-.74s.27-2,.5-2.06a29,29,0,0,1,4.18,0,8.33,8.33,0,0,0-.36,1c-.13.59-.21,1.19-.31,1.78-.33.41-.85.78-.95,1.24-.23,1,0,2-.73,3.11s-.87,1.82-2.23,1.6c-.92-.15-1.85-.19-2.78-.28a14.56,14.56,0,0,0,1.55-2.06c.38-.73.43-1.56-.8-1.63Zm4,.3a10.19,10.19,0,0,0,0-1.42,2.7,2.7,0,0,0-.4-.78c-.19.18-.54.36-.55.55a26.57,26.57,0,0,0,0,2.84c0,.17.29.32.45.48a2.86,2.86,0,0,0,.49-.73c.09-.29,0-.63-.77,1.62l-.65-.89c-.18.23-.51.46-.49.68a4.83,4.83,0,0,0,.38,1.21C168.61,147.42,168.84,147.12,170,144.15Z"/><path class="a" d="M103.77,145.64a15.43,15.43,0,0,1-.21,1.84c0,.16-.53.31-.81.3s-.77-.19-.79-.35c-.12-.79-.06-1.61-.18-2.4a4,4,0,0,0-.54-1.1,4.86,4.86,0,0,0-1,1.05c-.43.85-.71,1.77-1.06,2.66-.11-.94-.2-1.88-.34-2.81a3.65,3.65,0,0,0-.35-.84c-.21.32-.55.61-.6.95-.1.64.14,1.37-.08,1.94-.16.41-.84.63-1.29.93-.21-.38-.67-.84-.58-1.12.4-1.3,2.38-2.55,0-3.82A11.27,11.27,0,0,1,97.29,141a1.66,1.66,0,0,1,1.24.12c.31,2.59,2.28,1.61,3.68,1.67.57,0,1.45-2.06,1.56.32C103.79,143.79,103.77,144.44,103.77,145.64Z"/><path class="a" d="M130.44,146.81c0,.16.06.44,0,.47-.41.2-1,.61-1.24.47-2.06-1.07-4.08.46-6.08,0-.31-.07-.49-1.05-.56-1.63-.2-1.68,1.07-1.2,2.66-.91,0,0-.57-.41-.66-.32a7.77,7.77,0,0,0-1,1.41c.37.18.82.58,1.08.48.43-.17.73-.66.58-1.57-.5-1.39-2.75-1.79-1.34-3.25a3,3,0,0,1,3-1c.27.06.61.75.57,1.11-.14,1.22-.65.61-1.14.17-.12-.11-.44,0-.68,0a13.19,13.19,0,0,0,.8,2c.55.92.94.15,1.37-.22a9.83,9.83,0,0,1,1.49-1.14c.19-.11.6.07.86.21.06,0,0,.49-.13.65-.3.38-.73.67-1,1.06C127.88,146.33,128,146.43,130.44,146.81Z"/><path class="a" d="M177.85,144.83c.43.8-1.88,1.29-.25,2.22-.38.25-1,.79-1.11.7a8.69,8.69,0,0,1-1.59-1.71c-.25-.35.17-1.5-.86-.78-.41.29-1.72.71-.54,1.71a1.77,1.77,0,0,1-.35.79c-.43-.1-1.16-.28-1.18-.49a32.66,32.66,0,0,1-.06-3.42c1.17-.48,2.3-2,3.55,0,.14.22.91,0,1.39,0Z"/><path class="a" d="M153.16,143.85c2.06.51,2.09-.75,2-2.23,0-.23.62-.68,1-.7.91-.06.8.22.47,1-.44,1.13-.28,2.47-.53,3.7a20.7,20.7,0,0,1-1,3c-.15.39-.43,1-.65,1a12.18,12.18,0,0,1-2.26-.39l.94-1.53,1-.75-1-1.23Z"/><path class="a" d="M159.08,144.91a4.17,4.17,0,0,1,0-1.44,4.91,4.91,0,0,1,1.3-2.32,2,2,0,0,1,2.93.54c.26.37.46.78.68,1.17a6.76,6.76,0,0,1-1.45,0,7.56,7.56,0,0,1-1.38-.6c-.3,1.11-.63,2.21-.86,3.33,0,.18.46.42.64.68.29.43.51.91.77,1.36a3.49,3.49,0,0,1-1.36.15,2,2,0,0,1-1.24-.93A5.75,5.75,0,0,1,159.08,144.91Z"/><path class="a" d="M153.16,147.8c-1-.25-2.34.7-2.93-.65a3.67,3.67,0,0,1,1.33-4.12c.69-.39,1.54-.37,1.59.82l-1.78,1.67,1.78.3Z"/><path class="a" d="M147.72,142.84a3.2,3.2,0,0,1,.47,1.08c.05,1.29-2.73,1.71-1.11,3.53-.43.12-1,.46-1.27.3-.59-.34-1.55-1.2-1.46-1.38a23.38,23.38,0,0,1,2.3-3.38C146.78,142.82,147.24,142.89,147.72,142.84Z"/><path class="a" d="M95.87,143.22l-1.31,5.39c-.23-.12-.55-.17-.67-.36-.25-.42-.68-1.13-.53-1.32.57-.72.84-1.32.1-2s-.5-.89.39-1.08a9.74,9.74,0,0,0,2-1Z"/><path class="a" d="M156.39,97.81c-.51.12-.83.3-1.09.24-.58-.14-1.11-.45-1.68-.62-1.38-.42-3,.9-4.24-.67,1.41-.11,2.83-.23,4.24-.32a5.93,5.93,0,0,1,1.93,0C155.86,96.57,156,97.18,156.39,97.81Z"/><path class="a" d="M164,142.86c.75.15,1.89-.49,2,1a6.59,6.59,0,0,0-1.78,1.37c-.43.66-.42,1.54.79,1.6l-1.23,1c-.25-.33-.66-.64-.71-1A5,5,0,0,1,164,142.86Z"/><path class="a" d="M177.85,144.83l-1-1c.26-1.4,1.17-1.33,1.83-.53C179.13,143.84,179,144.81,177.85,144.83Z"/><path class="a" d="M104.59,95.86l.58-1.32a13.29,13.29,0,0,1,.54,1.95c0,.29-.28.62-.44.93Z"/><path class="a" d="M60.43,191.18l.87.57a5,5,0,0,1-1.23.46c-.23,0-.5-.3-.75-.46Z"/><path class="a" d="M220.29,133.77a7.51,7.51,0,0,1-1.41.17c-.14,0-.25-.4-.37-.62a7.15,7.15,0,0,1,1.29-.3C219.92,133,220.06,133.4,220.29,133.77Z"/><path class="a" d="M79.27,142.76l-.77,1a4.83,4.83,0,0,1-.38-1.21c0-.22.32-.45.49-.68Z"/><path class="a" d="M42.53,38.15h2l-1.23,1Z"/><path class="a" d="M58.33,22.35h2l-1.23,1Z"/><path class="a" d="M102.92,210c-2.16-.23-4.81.66-7.14-1a6.06,6.06,0,0,0-.82-.41c.29-.35.51-.85.88-1,2-.89,3.92-.62,6-.1a22.49,22.49,0,0,0,5.62.26c.41,0,1-1.25,1.18,0,.13.72.74,2.14-.92,2.23C106.24,210.1,104.76,210,102.92,210Z"/><path class="a" d="M195.75,206.33c-.71-.34-1.65-.75-2.55-1.23-.19-.1-.25-.43-.37-.66a4.82,4.82,0,0,0,.81-.34c1.17-.77,2.32,1.95,3.49,0a2.54,2.54,0,0,1,.46.76c.05.27,0,.73-.17.85A7.86,7.86,0,0,1,195.75,206.33Z"/><path class="a" d="M122.24,206.23l-1.65-.63c.73-.5,1.42-1.3,2.2-1.4.5-.07,1.13.9,1.7,1.4Z"/><path class="a" d="M176.4,205.24c-.78.44-1.29.89-1.46.78a4.72,4.72,0,0,1-1-1.17c.33-.25.71-.76,1-.7C175.32,204.27,175.69,204.72,176.4,205.24Z"/><path class="a" d="M237.12,119.14c0,.48,0,1,0,1.44,0,.13-.21.35-.29.34-.24,0-.56-.12-.67-.3a8.62,8.62,0,0,1-1-2,1.88,1.88,0,0,1,.34-1.27.86.86,0,0,1,.84-.14,2.28,2.28,0,0,1,.73,1A2.65,2.65,0,0,1,237.12,119.14Z"/><path class="a" d="M235.14,145.58a3.74,3.74,0,0,1,0-1,3.14,3.14,0,0,1,.48-.77c.16.25.44.5.47.77a8.27,8.27,0,0,1,0,1.93,5.56,5.56,0,0,1-.47,1.25,10.17,10.17,0,0,1-.48-1.25A4.11,4.11,0,0,1,235.14,145.58Z"/><path class="a" d="M231.19,185.33v-2h1C232,184.11,232.67,185.25,231.19,185.33Z"/><path class="a" d="M173.44,4.77l-.37-.85c.27-.11.58-.36.81-.3a2.93,2.93,0,0,1,.86.62Z"/><path class="a" d="M157.07,223.86c1.18,0,1.83,0,2.47,0,.14,0,.27.4.33.64,0,.07-.21.3-.33.3a6.53,6.53,0,0,1-1.94,0c-.77-.2-1.88.77-2.31-.63Z"/><path class="a" d="M166,223.07c-.23.36-.37.76-.49.75a7.15,7.15,0,0,1-1.29-.3c.12-.22.24-.61.37-.62A7.46,7.46,0,0,1,166,223.07Z"/><path class="a" d="M220.33,220.89h2l-1.23,1Z"/></svg>