<svg xmlns="http://www.w3.org/2000/svg" viewBox="0 0 305.77 230"><defs><style>.a{fill:#a6aebf;}</style></defs><title>logo-hot-black</title><path class="a" d="M223.72,66c-2.71-.25-5.41.91-8.19.51-1.43.91-3.06.66-4.55.48-4.07-.49-8.22-.6-12.12-2.08-3.19-1.21-6.05-2.81-7.42-6.24a3.43,3.43,0,0,1,0-2.89c1.15-2.61,3.72-3.94,6.21-4.71a13.8,13.8,0,0,1,6.15-.38,27.06,27.06,0,0,1,6.41,1.77c3.74,1.56,7.44,3.14,10.63,5.77.92.76,1.88,1.47,2.73,2.31a2.89,2.89,0,0,0,3.28.72,50.83,50.83,0,0,0,11.5-4.9A61.5,61.5,0,0,0,245,51.76a88,88,0,0,0,9.25-8.93,59.74,59.74,0,0,0,6.95-9.29,106.74,106.74,0,0,0,7-13,56,56,0,0,0,3.65-11c.42-1.92,1-3.81,1.59-5.71.15-.53.73-.94,1.15-1.37,3.79-3.9,8.93-2.1,11.05,1.57a23.87,23.87,0,0,1,2.06,6c1.45,5.43,1.37,11,1,16.52-.25,3.52-.47,7.2-2,10.54-.59,5-2.7,9.48-4.83,13.91a38.15,38.15,0,0,1-6.09,9.69c-.18.19-.17.56-.38,1.31a36.52,36.52,0,0,0,6-6.87c1.19-1.75,2.61-3.34,3.86-5,.68-.93,1.17-2,1.83-3a46.58,46.58,0,0,0,3.29-6.05,36.09,36.09,0,0,1,4-6.29,4.4,4.4,0,0,1,2.94-1.76c4.35-.45,5,.64,6.86,3.69a7.32,7.32,0,0,1,1.14,3.51c0,1.08.39,2.15.48,3.23a14.18,14.18,0,0,1,0,3.18,77,77,0,0,1-1.41,8.94c-.68,2.55-1.49,5.06-2.34,7.54a42.12,42.12,0,0,1-3.43,7.06c-1.36,2.38-3,4.62-4.47,6.91-.6.91-1.2,1.82-1.89,2.67-3.71,4.58-8.06,8.55-12.2,12.72a11.9,11.9,0,0,1-1.9,1.29c.94.82,1.64-.13,2-.44,2.26-1.78,4.78-3.17,7-5.11,1.82-1.61,3.6-3.27,5.3-5,.92-.93,1.49-2.12,2.77-2.83a4.63,4.63,0,0,1,2.13-.67,3.91,3.91,0,0,1,2.91.63c.78.71,2,1.22,1.85,2.66,1.61,2.7,1.23,5.56.5,8.35a25.22,25.22,0,0,1-2.63,6.86c-2.1,3.43-4,7-6.82,9.94a49.79,49.79,0,0,1-3.45,3.83c-3.22,2.72-6.3,5.58-10.09,7.62-2.31,1.25-4.5,2.78-6.85,4a33,33,0,0,0-4.5,2.33c1.18-.27,2.39-.45,3.54-.82a64.05,64.05,0,0,0,10.5-4.11,11.93,11.93,0,0,1,2-.92c1.33-.41,3.3,1.26,3.47,2.88.46,4.45-1.09,8.23-3.71,11.74a37.25,37.25,0,0,1-2.85,3.32,39.51,39.51,0,0,1-11.29,8,34.31,34.31,0,0,1-6.3,2.73c-2.13.58-4.2,1.42-6.33,2-1.62.43-3.47.14-5,.69-2.51.89-5,.24-7.5.44-1.13.09-1.55-.43-1.57-1.53s.38-1.59,1.49-1.62,2.65.37,3.68-.09c1.87-.84,3.82-.3,5.73-.87,2.39-.71,7.1-1.68,9.5-2.72a62.06,62.06,0,0,0,10-5.36,24.49,24.49,0,0,0,9.18-11.2,25.94,25.94,0,0,0,.9-3.67,7.62,7.62,0,0,0-1.75.33,44.9,44.9,0,0,1-10.52,3.44c-2,.39-4,.69-5.92,1.1-3,.65-6.07.19-9.08.48-1.69.16-3.2-.51-4.82-.6-.34,0-.65-.5-.94-.74.23-2.43,2.37-2.62,3.83-2.83a56,56,0,0,0,8.83-2.46,56.09,56.09,0,0,0,7.06-2.8,80.44,80.44,0,0,0,9.18-5.4,54.13,54.13,0,0,0,10.93-10c3.58-4,5.76-9,7.45-14.13a16.9,16.9,0,0,0,.45-5.63c0-.56-.52-1.12-.94-1.93-2.1,2.1-3.94,4.09-5.95,5.91A45.19,45.19,0,0,1,283,95.7c-2.22,1.24-4.42,2.56-6.72,3.64a69.24,69.24,0,0,1-10.11,3.77,58.26,58.26,0,0,1-7,1.7,19.8,19.8,0,0,1-3.24.44c-2.17,0-2.17,0-2.15-2.42,2.24-1.49,4.94-1.71,7.35-2.8a65.33,65.33,0,0,0,8.08-4.18,73.18,73.18,0,0,0,15.4-13.36,71.41,71.41,0,0,0,9.59-13.25,50,50,0,0,0,4.72-10.51c.6-2.16,1.19-4.3,1.58-6.53a46.55,46.55,0,0,0,.44-6.43c.12-3.35,0-6.64-2.47-9.34-1.85,1.3-2.8,3.48-3.87,5.51a91.64,91.64,0,0,1-8.69,13.92c-1.48,1.87-3,3.7-4.47,5.59a50.15,50.15,0,0,1-5.71,6.09,67.16,67.16,0,0,1-12.1,9.15A53,53,0,0,1,251.22,82a4.69,4.69,0,0,1-2.37-.44,1.14,1.14,0,0,1-.14-1.79,15.14,15.14,0,0,1,2.59-2.06,56.48,56.48,0,0,0,10.91-8.26c1.35-1.33,3-2.39,4.25-3.79,4.94-5.41,9.39-11.14,12.25-18a63.49,63.49,0,0,0,3.64-11c.77-3.54,1.88-7,1.6-10.75.84-1.72.53-3.56.5-5.35a26.74,26.74,0,0,0-.5-3.49c-.18-1.16.45-2.45-.53-3.49A14.43,14.43,0,0,0,282.36,8a10.92,10.92,0,0,0-1.81-3.5A1.89,1.89,0,0,0,278.38,4c-.5.12-.71.79-.86,1.46a86.89,86.89,0,0,1-4,12.94c-1.23,3.13-2.53,6.22-4.05,9.2a81.38,81.38,0,0,1-7.6,12,74.67,74.67,0,0,1-8.7,10.16c-5.38,5-11.18,9.37-18,12.21-2.26.94-4.58,1.76-7,2.69.95.95,1.85,1.86,2.76,2.76a50.68,50.68,0,0,1,10.82,16.21,49.54,49.54,0,0,1,3.53,11c.17,1,.06,2.18.54,2.92.68,1,.12,2.08.46,3,.76,2.11.19,4.32.59,6.41a13.52,13.52,0,0,1,.41,4.3c-.35,2.58-.39,5.16-.59,7.74a28.56,28.56,0,0,0-.42,3.24,14.37,14.37,0,0,1-.63,2.95,70.91,70.91,0,0,1-2.76,10.24,70,70,0,0,1-3.72,9.07c-1.19,2.4-2.23,4.88-3.36,7.38a12.81,12.81,0,0,1,7.14,3.53,6.35,6.35,0,0,1,2.32,4.85c0,3.65-.2,4.86-2.93,9.15-1.65,2.6-3.31,5.2-5.11,7.69-1.44,2-3.19,3.78-4.61,5.8-1.76,2.5-4,4.59-5.66,7.2a1.42,1.42,0,0,1-.19.19q-3.56,3.83-7.12,7.66a1.8,1.8,0,0,1-1.57.71c-1.08-.09-1.63-.53-1.49-1.61a11.32,11.32,0,0,1,.76-3.13c.66-1.49.17-2.83-.28-4.17-.36-1.09-1.32-1.64-2.23-2.3-1.29-.93-2.79-1-4.17-1.48a3.4,3.4,0,0,0-3.48,1.1,84.77,84.77,0,0,1-9.69,8c-2.51,1.9-5.3,3.42-7.93,5.15a132.08,132.08,0,0,1-15.46,8.17c-3.16,1.52-6.49,2.69-9.77,3.95a2.15,2.15,0,0,1-1.73-.1c-.58-.41-1.38-.84-1.24-1.85.12-.85.73-1,1.4-1.25,2.6-1,5.17-2,7.74-3.09A89.32,89.32,0,0,0,181.17,201c3.14-1.81,6.21-3.75,9.35-5.57a32,32,0,0,0,4.33-3c3.23-2.67,6.6-5.17,9.75-8a101.35,101.35,0,0,0,7.54-7.25,111.11,111.11,0,0,0,9.49-11.42c1.44-2.06,3.09-4,4.41-6.16s2.75-4.31,4-6.54c1.51-2.65,2.91-5.34,4.25-8.07.76-1.54,1.4-3.13,2.07-4.71a43.75,43.75,0,0,0,1.84-4.54,41.07,41.07,0,0,0,1.57-4.9c.46-2.9,1.89-5.6,1.69-8.61,1-1.28.09-2.91.73-4.2s.2-2.75.3-4.11,0-3,0-4.51a22,22,0,0,0,0-4.24c-.64-3.22-.64-6.53-1.55-9.7a86.73,86.73,0,0,0-2.71-9,84.52,84.52,0,0,0-4.34-8.28C231.32,73.57,227.6,69.76,223.72,66Zm9.67,89.66a126.46,126.46,0,0,1-20.58,26.28c5.13.89,8.16,3.63,8.7,8.82a5.37,5.37,0,0,0,.72-.73,48.84,48.84,0,0,1,4.19-5.12q3.49-4.09,6.68-8.39c2-2.7,4.2-5.29,5.93-8.15,1.39-2.3,3.18-4.65,2.36-7.66C239.45,158,236.54,156.69,233.39,155.67ZM219.61,62.32a7.88,7.88,0,0,1-1.44-.85,39.12,39.12,0,0,0-8.42-5.27c-3.56-1.85-7.31-2.12-11.15-1.84a2.72,2.72,0,0,0-1.83,4.8c1.07,1.37,2.66,1.92,4.21,2.61,2.78,1.23,5.81.72,8.65,1.5a12.27,12.27,0,0,0,3.43,0c1.13,0,2.43.23,3.34-.24,1.12-.58,2.27.17,3.25-.48C219.68,62.6,219.64,62.49,219.61,62.32Z"/><path class="a" d="M80.7,61.7c3.11-2.29,6-4.77,9.27-6.71a21.52,21.52,0,0,1,8.69-3.33c.95-1.13,2.4-.25,3.6-.95.93-.54,2.45-.29,3.64-.07a16.58,16.58,0,0,1,5.48,1.49,7.27,7.27,0,0,1,3.21,4.31,3.7,3.7,0,0,1-1.07,3.47,16.53,16.53,0,0,1-3.64,3.36,29.9,29.9,0,0,1-6.06,2.62,12.24,12.24,0,0,1-4.52.57c-1.94-.14-3.74.46-5.62.64-1.35.13-2.48-.62-3.76-.58a23.79,23.79,0,0,1-4,0c-.61-.09-1.18-.57-1.91-.49a19.3,19.3,0,0,1-2,0c-2.23,2.23-4.73,4.37-6.78,6.88A46.78,46.78,0,0,0,69,83a60.68,60.68,0,0,0-4.23,12.58c-.51,2.13-.71,4.31-1.12,6.45-.93,4.88-.21,9.77-.45,14.65a7.49,7.49,0,0,0,.46,3.52c.45,1,0,2.28.47,3.52a19.47,19.47,0,0,1,.61,3.72c.34,2.06,1,4,1.44,6,1.65,6.84,4.73,13.09,8.11,19.19A84,84,0,0,0,79,160c1.46,2.1,3.24,4,4.79,6a47.43,47.43,0,0,0,6.49,6.81,96.78,96.78,0,0,0,7.67,6.34,75.48,75.48,0,0,0,9.05,5.75,12,12,0,0,1,1.82,1.53c0,.24.13,1.1-.23,1.49a5.53,5.53,0,0,1-2.14,1.14c-.22.09-.6-.2-.89-.34a61.9,61.9,0,0,1-8.06-4.88c-2.48-1.63-4.73-3.57-7.07-5.39a77.23,77.23,0,0,1-10-9.68,83.48,83.48,0,0,1-9.85-13.65,84.68,84.68,0,0,1-4.65-9c-1.52-3.52-3.4-7-3.79-10.9A27.3,27.3,0,0,1,60,126.58c-1.11-1.31-.28-3-.78-4.45s0-3-.33-4.39a34.53,34.53,0,0,1-.49-7.49c0-2.68.92-5.3.53-8,.73-1.17.4-2.5.56-3.76s.55-2.24.8-3.37.42-2.47.78-3.66c.55-1.8,1.18-3.58,1.86-5.33a74.87,74.87,0,0,1,3.4-7.35,32.14,32.14,0,0,1,3.55-5.42c2.43-3,5-5.92,7.39-8.81a61.85,61.85,0,0,1-13.11-5.69c-2.76-1.62-5.22-3.59-7.82-5.39-1.79-1.24-3.12-3.11-4.74-4.62a56,56,0,0,1-8.19-9.37,79,79,0,0,1-5.37-8.37c-1.12-2.18-2.45-4.28-3.51-6.51a87,87,0,0,1-4.26-11,35.89,35.89,0,0,1-1.67-6.5c-.13-1-.38-2.42-1.59-3a1.61,1.61,0,0,0-1.39,0,5.33,5.33,0,0,0-2.23,3c-.31,1.72-1.45,3.27-1.08,5.13C21.21,14,22,16.06,21.4,18s-.18,3.86-.1,5.8a32.53,32.53,0,0,0,.51,3.5c.18,1.16-.44,2.45.53,3.49-.16,2.75.95,5.24,1.59,7.83.36,1.44.44,3,1.14,4.3,1.29,2.31,1.78,4.94,3.11,7.21a90.79,90.79,0,0,0,6.72,10.23,110.7,110.7,0,0,0,8.7,9.1,59.92,59.92,0,0,0,10.06,7.7c1.18.77,2.35,1.56,3.66,2.44,0,.82.37,1.82-1,2.38-.92.37-1.67.82-2.5,0-2.89-.41-5.43-1.85-8.06-2.95a45,45,0,0,1-8.07-4.85,43.69,43.69,0,0,1-6.16-5c-.84-.84-2-1.37-2.73-2.29-1.89-2.46-4.22-4.51-6.1-7-1.27-1.69-2.58-3.37-3.91-5a63,63,0,0,1-6-9.47c-1.42-2.6-2.85-5.19-4.32-7.76a6.69,6.69,0,0,0-1.15-1.18c-1.7.8-1.94,2.6-2.41,4.05a12.28,12.28,0,0,0-.54,5.05A63.11,63.11,0,0,0,6.25,56.61a53.44,53.44,0,0,0,4.36,10.67,86.07,86.07,0,0,0,5.28,8.42c1.46,2,3.06,3.88,4.64,5.8,1.38,1.68,2.83,3.28,4.37,4.8a67.11,67.11,0,0,0,13,10.24,44.86,44.86,0,0,0,11.18,5c.47.13.91.37,1.38.52,1.49.47,1.76.72,1.6,1.52a2.34,2.34,0,0,1-2,1.65,17,17,0,0,1-3.79-.4c-1.59-.41-3.22-.84-4.85-1.12a52.1,52.1,0,0,1-7.78-2.4,79.06,79.06,0,0,1-8-3.69,60.55,60.55,0,0,1-7.14-4.52,49.07,49.07,0,0,1-8.39-7.29c-.65-.68-1.36-1.3-2.15-2.05-.7,1-.31,1.87-.42,2.68-.44,3.41.9,6.48,2.19,9.44a37.37,37.37,0,0,0,5.47,8.9A74.19,74.19,0,0,0,23.38,113c4.45,3.92,9.64,6.49,14.91,8.9a43.61,43.61,0,0,0,11,3.54c1.46.24,2.82,1,4.34,1.05a1.15,1.15,0,0,1,1.08,1.23c0,.72.08,1.53-.71,1.81a9.72,9.72,0,0,1-2.91.63,59.8,59.8,0,0,1-8.75,0,60,60,0,0,1-10.08-1.85c-2-.59-3.94-1.17-5.89-1.82-1.3-.43-2.53-1.07-4-1.71a9.58,9.58,0,0,0,.92,4,32.58,32.58,0,0,0,3.29,5.55c1.84,2.84,4.95,4.13,7.13,6.49,2.78,1,5,3.31,8,3.76,1.79,1.27,3.92,1.63,6,2.26a18.8,18.8,0,0,0,3.59.94c1,.1,2,.41,3,.5s2.05-.26,2.89.08c1.6.64,3.22.35,4.79.51L63.09,150c-.16.41-.22,1-.53,1.23a3.55,3.55,0,0,1-1.8.71,29,29,0,0,1-6.09,0,56.4,56.4,0,0,1-6.2-1c-2-.57-3.92-1.23-5.89-1.78a38.65,38.65,0,0,1-8.3-3.65,32.84,32.84,0,0,1-6.91-4.56A39.64,39.64,0,0,1,24.09,138c-2.39-2.79-4.62-5.68-5.66-9.32-.58-2-1-4.05-.27-6a4.56,4.56,0,0,1,2.63-2.32,2.92,2.92,0,0,1,2.62.28c1.86.86,3.56,2,5.49,2.75,2.16.84,4.39,1.36,6.58,2,.19.06.45-.12.76-.21-4.21-2.14-8.46-4-12.21-6.68-2.05-1.49-4.07-3-6-4.64-1-.84-1.87-1.88-2.83-2.79a43.32,43.32,0,0,1-9.84-14C3.7,93.53,2.41,89.94,2.74,86c.21-2.51,1-4.79,3.63-5.86a4.81,4.81,0,0,1,4.82.48A5.55,5.55,0,0,1,13,82.48a12,12,0,0,0,3.26,3.67c2.47,2.15,4.95,4.34,8.12,5.69a5.26,5.26,0,0,0-.45-.59c-1.43-1.44-2.86-2.89-4.31-4.32A77.6,77.6,0,0,1,8.85,73.34a33.85,33.85,0,0,1-4.63-9.22c-.35-1.3-1.38-2.4-1.65-3.82-.18-1-.76-1.85-.87-2.8s-.5-1.95-.67-2.94c-.3-1.8-.69-3.61-.91-5.42a51.13,51.13,0,0,1-.05-5.57,23.32,23.32,0,0,1,1.12-5.91c.53-2.1,3.3-4.48,5.45-5,1.85-.45,3.26.65,4.5,1.75,2,1.75,3.08,4.15,4.3,6.43,1.36,2.55,2.84,5,4.31,7.51,1.62,2.74,3.63,5.19,5.35,7.85a42.71,42.71,0,0,0,4.18,4.74,4.38,4.38,0,0,0-.32-1.31c-2.7-3.61-4.78-8.1-7.22-13.46-1.28-2.8-1.68-5.83-3-8.58a10.05,10.05,0,0,1-.51-2.94c-.42-3.29-1.36-6.51-1.18-9.9s-.13-6.73.09-10.08a32.24,32.24,0,0,1,2.3-9.11A9,9,0,0,1,25.33.27,5.38,5.38,0,0,1,30.78,1.6a8.22,8.22,0,0,1,2.1,4.11,77.42,77.42,0,0,0,2.48,8.81,79.13,79.13,0,0,0,6,13.44,98.29,98.29,0,0,0,5.29,8.41,64.46,64.46,0,0,0,4.23,5.44c1.34,1.6,2.75,3.1,4.19,4.61a57.49,57.49,0,0,0,17,12.13,63.1,63.1,0,0,0,7.39,2.66C79.9,61.37,80.36,61.57,80.7,61.7Zm5.12,1c2.81,0,5.29.92,7.9.63,1-.11,1.95.05,2.91,0s2-.41,3-.5c4-.35,7.65-1.27,10.31-4.56.12-1.77-.45-3-2.37-3.47-.43-.11-.84-.48-1.39-.48-3.23,0-6.33.11-9.46,1.5C92.75,57.55,89,59.44,85.82,62.72Z"/><path class="a" d="M138.84,156.66a28.74,28.74,0,0,0,2.62-6.28c0-.15.25-.27.27-.41a52.76,52.76,0,0,0,.51-5.35c0-4.36.79-8.67.6-13a101.66,101.66,0,0,1,.06-13.25c.22-2.51.11-5.22,1.46-7.59.17-.3,0-.81,0-1.25-1.62.39-3.1.61-4.49,1.1a34.72,34.72,0,0,0-9.16,4.83,46.17,46.17,0,0,0-6.26,5.91c-2.21,2.38-3.41,5.43-4.42,8.49a17.8,17.8,0,0,0-1,7.77,20.83,20.83,0,0,0,1.73,6.69,14.84,14.84,0,0,0,3.89,4.47,8.88,8.88,0,0,0,5.46,2.13c.62,0,1.24,0,1.84,0,1,.71,1.86,1.67,1.32,2.84a2.76,2.76,0,0,1-3,1.39c-3.41-.54-6.76-1.29-9.19-4.05a24.57,24.57,0,0,1-2.86-3.31,17.41,17.41,0,0,1-2.88-8.89c0-1.33,0-2.65,0-4a27.7,27.7,0,0,1,2.08-8.68,29.48,29.48,0,0,1,2.07-4.19,26.14,26.14,0,0,1,2.84-3.87c3.49-4,3.51-4,9.24-7.69a23.54,23.54,0,0,1,5.49-2.78c.15,0,.25-.24.54-.52a10.21,10.21,0,0,1-1.78-2.74,12.11,12.11,0,0,1-.28-3.57c-.08-4.14,0-8.28,0-12.62a8.46,8.46,0,0,0-1.55.31c-1.21.5-2.37,1.09-3.61,1.54-2.14.79-4.11,2-6.22,2.92a52.23,52.23,0,0,0-5,2.13c-.46.26-1.3.1-1.52.71a5.84,5.84,0,0,0-.75,2.36c.11,2.91.17,5.84,0,8.75-.12,2-.57,4-.87,6a24.54,24.54,0,0,1-1.71,5.68c-.77,1.88-3.49,5.82-5.17,6.81-1.84,1.08-3.52,2.44-5.61,3.11A16.49,16.49,0,0,1,97,129.63a8,8,0,0,1-5.51-3.29c-.57-.72.39-2.32,1.51-2.48a2,2,0,0,1,1.46.24,4.62,4.62,0,0,0,3.18,1.35c2.79,0,3,0,5.13-1.08a15.25,15.25,0,0,0,5-3.38,20.21,20.21,0,0,0,4.37-8.55c.34-1.45.14-2.94.52-4.29.94-3.37.17-6.75.54-10.35a7.24,7.24,0,0,0-1,.23,2.1,2.1,0,0,1-2.74-1,2.91,2.91,0,0,1,1-2.36c.86-.46,1.76-.86,2.75-1.33-.49-3.71.92-7.37.46-11.12-.3-2.46.78-4.77.58-7.21,0-.41.37-.86.57-1.29-1.42-.93-2.56.21-3.77.34a28.82,28.82,0,0,0-5.32,1.18,20,20,0,0,0-6.86,3.86c-2.68,2.23-5.24,4.7-6.64,8.08a23.54,23.54,0,0,0-2,6.64c-.13,1.24-.34,2.5-.46,3.77a20.65,20.65,0,0,0,.54,4.29,12.22,12.22,0,0,0,1.19,3.75,19.88,19.88,0,0,0,2.07,3.64,12.51,12.51,0,0,0,3.8,2.94,14,14,0,0,0,8.57,2.06c.18.18.43.4.65.65a2.2,2.2,0,0,1-1.19,3.61,4.75,4.75,0,0,1-1.59,0,20.7,20.7,0,0,1-10.16-3.7c-3.56-2.65-5.37-6.26-6.81-10.18a10.4,10.4,0,0,1-.8-4.19,51.6,51.6,0,0,0,0-5.3c-.15-3.37,1.13-6.37,2.29-9.4,1.56-4,4.53-7.06,7.72-9.77a25.68,25.68,0,0,1,11.07-5.27,72.15,72.15,0,0,1,7.85-1.5,1.59,1.59,0,0,0,1.33-1,15.49,15.49,0,0,1,1.67-3c2-2.28,4.4-3.83,7.57-3.39,1,.14,2.15.36,2.46,1.75a11.54,11.54,0,0,0,1,2.21c-1.07.56,0,1.87-.92,2.55s-1,1.79-2.21,2.25c-1.92.76-3.68,1.92-5.88,1.84-.43,0-.88.39-1.37.62-.5,2.08-.41,4.36-.84,6.48-.79,3.93,0,7.83-.57,12.08l18.19-8V80.35c0-1.59-.07-3.19,0-4.77a20.91,20.91,0,0,1,.26-4.38c.39-1.48,0-3.17.3-4.67.68-3,1-6,2.52-8.77,1.37-2.47,3.06-4.7,5.51-5.8,2.83-1.27,5.85-2.3,9.15-.44,2.2,1.24,4.16,5.51,3.35,7.29-.47,1,0,2.56-1.41,3.13-.2,1.41-1.49,1.73-2.41,2.4-1.34,1-2.59.47-3-1.22a5.46,5.46,0,0,1,0-1.11l2.62-2.51V56.22a4.12,4.12,0,0,0-.28-.36,3.66,3.66,0,0,0-2.8-1.52,7.48,7.48,0,0,0-3.7,1.27,12.74,12.74,0,0,0-4.84,6.94,19.19,19.19,0,0,0-1.09,6.19c0,2.74,0,5.48,0,8.22,0,4.26-.74,8.49-.57,12.78s0,8.66,0,13l3.05,3.42c.12-.06.41-.35.7-.36a52.68,52.68,0,0,1,7.95.06,16.18,16.18,0,0,1,7.76,3,14.4,14.4,0,0,1,4.58,5.81,8.55,8.55,0,0,1,.93,3.07c0,.91.6,1.85.45,2.69a20.56,20.56,0,0,1-1.72,6.44c-.31.58-.63,1.16-.92,1.68.65,1.52,2.19,2,3.12,3.23a10.3,10.3,0,0,1,2,3.72,16,16,0,0,1,.72,3.66c0,1.16.5,2.45-.48,3.49,0,3.52-1.89,6.27-3.69,9.09a16.45,16.45,0,0,1-5.75,5.4,19.16,19.16,0,0,1-5.15,2.29,37.17,37.17,0,0,1-4.63.94,11.31,11.31,0,0,1-3.17,0c-2.59-.48-4.4.82-6.21,2.36a17,17,0,0,1-7.85,4.12c-1.18.23-2.33.33-3.51.47-1.38.17-2.4-.59-3.54-1.09s-.75-1.75-1.54-2.42c-.17-.14.26-.9.29-1.39.13-1.78,1.54-2.67,2.68-3.64a8.58,8.58,0,0,1,3.3-1.61C131.87,156.25,135.37,157,138.84,156.66Zm20.43-24.42c-2.32,1.52-4.28,3.31-7,3.87a5.29,5.29,0,0,1-2.8.07,4.79,4.79,0,0,1-2.39-1.54,9,9,0,0,1,0-2c.17-.7.38-1.64.9-2,1.17-.74,2.17-1.77,3.62-2.12a23.82,23.82,0,0,1,6.34-1.05c.56-1.11,1.08-2.13,1.57-3.17a7.46,7.46,0,0,0,.73-5c-.38-1.56-.5-3.23-1.71-4.61-.77-.88-1.62-1.61-2.39-2.42-1.84-2-4.36-2-6.56-2.83a1.28,1.28,0,0,0-1.1.43,4.32,4.32,0,0,0-.89,1.74,57.43,57.43,0,0,0-1,8.84c-.16,4.06,0,8.13-.06,12.19s.49,8-.47,12a20.76,20.76,0,0,0-.05,2.91c-.09,1-.35,2-.51,3a15,15,0,0,1-1.27,4.51,7.16,7.16,0,0,0-.35,1.76l6.42-.68a2.14,2.14,0,0,0,.45-.2c4.92-1.85,9.24-4.41,11.24-9.65,1.18-1,1.16-2.61,1.43-3.89a10.43,10.43,0,0,0-.16-4.89A9.06,9.06,0,0,0,159.27,132.24Zm-33.35,31.31c1.58.07,2.59.18,3.64-.43.82-.48,1.86-.57,2.74-1s1.66-1,2.93-1.71C131.57,160.46,128.38,160,125.92,163.56Z"/><path class="a" d="M93.32,206.85c1.16.93,2.17,1.72,3.16,2.52,3,2.42,5,5.61,7,8.78a25.8,25.8,0,0,0,6.63,7,5.33,5.33,0,0,0,2.5,1,12.32,12.32,0,0,0,7.41-1.22,64.44,64.44,0,0,0,9.17-6c3-2.3,5.81-4.76,8.72-7.12a185.17,185.17,0,0,1,17.72-12.92A111.5,111.5,0,0,1,170.41,191a66.84,66.84,0,0,1,10.11-3.74c2.48-.63,4.86-1.61,7.45-1.91,2.16-.25,4.23-1.13,6.46-1,.95-.95,2.15-.34,3.19-.56a2.25,2.25,0,0,1,.24.19c.58.62,1.58,1.12,1.14,2.15a2.46,2.46,0,0,1-2.27,1.36c-2.5,0-4.86.76-7.23,1.22a75.2,75.2,0,0,0-9.46,2.71A94.41,94.41,0,0,0,171,195.1a118.2,118.2,0,0,0-16.07,9.22q-5.57,3.87-11.05,7.89c-1.45,1.07-2.74,2.37-4.11,3.54a118,118,0,0,1-14.09,10.83,19.71,19.71,0,0,1-7.57,2.84,20.91,20.91,0,0,1-2.43.57,17.23,17.23,0,0,1-6.18-1.14,10.78,10.78,0,0,1-3.22-1.79,32,32,0,0,1-7.56-9,23.73,23.73,0,0,0-6.59-7.37c-2.25-1.63-4.65-2.87-7-4.26-3.32-2-5.45-4.61-5.51-8.82-.06-4.49,1.58-8.3,3.81-12a3.1,3.1,0,0,1,2.35-1.32,12,12,0,0,1,1.71,0l13.39,9.93c0,.8.26,1.68-1.09,2.35a3.07,3.07,0,0,1-3.48-.27c-1.14-.87-2.3-1.68-3.48-2.5-2.09-1.45-4-3.11-6.24-4.83a6.21,6.21,0,0,0-1,1.13,11.34,11.34,0,0,0-1.63,6.49,8.55,8.55,0,0,0,3.49,6.23,3.75,3.75,0,0,0,1.88.55c3.8.42,7-1.14,10.13-3,1.92-1.18,4-2.16,5.59-3.83a13.29,13.29,0,0,1,1.8-1.39c.61-.45,1.27-.83,1.83-1.32,1.76-1.54,3.44-3.17,5.24-4.67A149.62,149.62,0,0,1,130.3,177a98.61,98.61,0,0,1,12.91-7.22c1.35-.59,2.51-1.64,3.86-2.2,4.84-2,9.56-4.22,14.4-6.21,6.07-2.5,12.35-4.33,18.51-6.53,2.24-.8,4.61-1.25,6.93-1.85,1.44-.37,2.9-.66,4.33-1.08s2.93-.45,4.37-1c1.14-.41,2.47-.17,3.75-.54,1.61-.46,3.43-.21,5-.65,2-.54,4-.15,5.88-.53,5.05-1,10.12-.17,15.17-.49a2,2,0,0,1,1.59.67c.48.47.91,1.05.59,1.58a4.74,4.74,0,0,1-1.69,1.44c-.33.19-.86,0-1.31,0-2.56,0-5.14.15-7.69,0-3.77-.27-7.47.36-11.18.66a85,85,0,0,0-9.94,1.56,29.41,29.41,0,0,0-5.08,1.16c-1.55.62-3.31.42-4.71,1.43-3.29.13-6.21,1.66-9.32,2.47s-6,1.81-8.89,2.86c-2.61.94-5.13,2.14-7.74,3.08-6,2.17-11.66,5.18-17.34,8.08-3.3,1.68-6.43,3.7-9.6,5.64-2.42,1.49-4.75,3.11-7,4.82q-3,2.27-6.08,4.52c-2.74,2-5.16,4.44-7.93,6.43-1.18.84-2.21,1.9-3.32,2.84a49.53,49.53,0,0,1-12.51,7.63C95.39,206,94.48,206.37,93.32,206.85Z"/><path class="a" d="M214.18,80.41c1.56.53,2,1.77,1.85,3.33-.18,1.87-.43,3.74-.51,5.62s0,3.89,0,5.83v1.64c1.35-.78,1.93-2,3.49-2.35,2.72-.57,5.19.41,6.06,3a12.56,12.56,0,0,1-.6,9.12,19.85,19.85,0,0,1-3.15,4.81,1.88,1.88,0,0,0-.47,1.11,5.31,5.31,0,0,0,2.85,4.31,1.92,1.92,0,0,0,1.23-.08,5.51,5.51,0,0,0,3.28-3.61c.25-1,.82-1.86.61-3a2.72,2.72,0,0,1,.4-1.4,1.81,1.81,0,0,1,2.18-1.2,1.89,1.89,0,0,1,1.22,2.56c-.34,1.22-.06,2.47-.6,3.73-1,2.32-2,4.46-4.23,5.9s-6.06,1.33-8-.62a12.83,12.83,0,0,1-3.18-5.8c-.09-.33.08-.85-.1-1a1.68,1.68,0,0,1-.37-1.94c.13-.43.91-.61,1.31-1,2-2,3.74-4.12,3.95-7.11,0-.43.27-.85.27-1.28a7.78,7.78,0,0,0-.28-1.47,1.3,1.3,0,0,0-2.07-1,5.21,5.21,0,0,0-2.82,2.76,7.73,7.73,0,0,0-.94,3.58c.39,4.72-.74,9.38-.59,14.1a6.78,6.78,0,0,1-.89,2.79,15,15,0,0,1-1.89,3.45c-1.77,2.12-4,3.73-6.86,3.84-.87,0-1.53,1.19-2.6.29a6.81,6.81,0,0,0-2.28-.79c-.64,1.17-1.2,2.37-1.93,3.46a4.35,4.35,0,0,1-2.34,1.36c-1.44.53-2.71,1.63-4.42.54-.61-.39-1.39.13-1.67.84a5.33,5.33,0,0,1-2.22,2.33c-1.94,1.36-4,1.1-6.15.89-.14,0-.25-.24-.43-.41-1.12,3.3-3.57,4.72-6.89,4.79a5.37,5.37,0,0,1-4.47-3.57,12.64,12.64,0,0,1-.48-4.53c.79-4,.35-8,.44-12s0-8.13,0-12.2c0-1.63.78-3.13.58-4.82a41.82,41.82,0,0,1,0-5c.68-.63,1.13-1.55,2.36-1.37a1.41,1.41,0,0,1,1.35,1.26,4.19,4.19,0,0,1,0,.79v1.33c0,5.57.44,11.18-.12,16.69s-.14,10.83-.4,16.23a14.46,14.46,0,0,0,0,1.59,1.33,1.33,0,0,0,1.45,1.4,2.51,2.51,0,0,0,2.52-1.55,7.5,7.5,0,0,0,.84-3.11,65.14,65.14,0,0,0,.52-7.21,38.38,38.38,0,0,1,0-7.15c.33-2.33.66-4.73,2-6.84s4.25-3.74,6.61-3.31c.29.05.53.38,1,.7a5.39,5.39,0,0,1,.73-1.26,3.31,3.31,0,0,1,1.46-.9c.37-.08.83.34,1.41.61v14.43c0,1.77,0,3.54,0,5.3,0,2.24,0,2.24,2.41,2.33a14.8,14.8,0,0,0,1.45-1.51,3.77,3.77,0,0,0,.87-1.74,12.58,12.58,0,0,1,.53-2.71,5.86,5.86,0,0,0-.21-2c-.11-1.11-.58-2.4-.18-3.29a8,8,0,0,0,.41-3.27c.07-1.68,0-3.36,0-5a10.36,10.36,0,0,1,4.09-8.62,5.07,5.07,0,0,1,4.8-.83,4.48,4.48,0,0,1,3.31,4.35,5.3,5.3,0,0,0,0,1.05c.51,2.3.14,3.26-1.85,4.43-.13-.11-.29-.33-.47-.36-1.22-.17-1.52-.93-1.43-2a7,7,0,0,0,0-1.85,6.94,6.94,0,0,0-.76-1.53c-.49.05-1.31-.1-1.75.24a4.75,4.75,0,0,0-1.65,2.19,17.16,17.16,0,0,0-.57,4.27c-.08,3.09,0,6.19,0,9.28a4.7,4.7,0,0,0,1.8,4.07,4.57,4.57,0,0,0,3.86-.56,10.69,10.69,0,0,0,4.47-8.74,58,58,0,0,1,0-8.48c.92-7.91.27-15.83.47-23.74A3.43,3.43,0,0,1,214.18,80.41Zm-27.35,32a22.52,22.52,0,0,0-2.93,2.48,4.12,4.12,0,0,0-.74,2.3,43.8,43.8,0,0,0,0,5c.09,1.73-.8,3.31-.58,5.07a32.31,32.31,0,0,1,0,4,5.55,5.55,0,0,0,0,1.32c.5,2,2.42,2.53,3.76.95a7.43,7.43,0,0,0,1.48-3.06,24.22,24.22,0,0,0,.07-3.42c.08-1.08.46-2.14.49-3.21.07-2.64,0-5.28,0-7.92A4.25,4.25,0,0,0,186.83,112.43Z"/><path class="a" d="M157.65,85.5c0,2.12.06,4.23,0,6.35a14.87,14.87,0,0,1-2.11,7.58c-1.38,2.42-5.21,3.94-7.76,3.11a6,6,0,0,1-3.37-4.9c0-4.32-.3-8.66.1-12.95.24-2.64.31-5.43,2-7.9a6.8,6.8,0,0,1,5.5-3.37c.61,0,1.24.06,1.85,0a3,3,0,0,1,2.7,1.5,5.17,5.17,0,0,1,1.2,3.46C157.53,80.73,157.65,83.12,157.65,85.5ZM149.51,99c.65-.3,1.16-.56,1.69-.77a3.62,3.62,0,0,0,2.13-3.27c.22-2.65.83-5.26.65-8s0-5.63,0-8.62a4.84,4.84,0,0,0-1.1-.93c-.41-.19-1.1-.32-1.39-.11a6.07,6.07,0,0,0-2.8,4.62c-.08,2.29-.07,4.58,0,6.86s-.8,4.37-.6,6.65A4.9,4.9,0,0,0,149.51,99Z"/><path class="a" d="M160.84,74.06a3.31,3.31,0,0,0-.68-.1c-.84.1-1.62,0-2-.89a2.44,2.44,0,0,1,1.06-2.82,5.18,5.18,0,0,0,.63-.39c.33-.29.63-.62.94-.93,0-1.77,0-3.54,0-5.3,0-1.55,0-1.55,1.25-3.45h2.22c1.48,2.27.38,4.88.89,7.35.37-.16.7-.32,1-.45a3.79,3.79,0,0,1,1.32-.39c.37,0,.72.36,1.16.59V70a14.68,14.68,0,0,1-2.4,1.27A2.54,2.54,0,0,0,164.58,74c-.06,4.95,0,9.9,0,14.85a2.92,2.92,0,0,0,1,2.21c.44.39,1.25.37,1.81.52A12.65,12.65,0,0,0,169,89.93a3.89,3.89,0,0,0,.85-2c0-1.15.5-2.17.53-3.23a2.42,2.42,0,0,1,1.51-2.21c1-.49,1.48.64,2.25,1.21A15.81,15.81,0,0,1,172,92a7.2,7.2,0,0,1-5.72,3.69,4.81,4.81,0,0,1-5.4-4.75c-.07-2.3,0-4.6,0-6.89Z"/><path class="a" d="M143.33,193.62c.14,3.27-1,5.52-3.74,6.9-3.49,1.79-8.57,1-10.07-4.1-.57-1.92-.71-1.94,0-4.58a6.42,6.42,0,0,1,2.78-3.39c1.2-.84,2.55-.76,3.66-1.48l3.82,1c1.43.28,2.08,1.54,2.92,2.47S143.36,192.71,143.33,193.62Zm-8.63-4c-.8.61-1.42,1.06-2,1.56a3.27,3.27,0,0,0-.51.71c-1,1.42-.55,3-.35,4.48s1.45,1.65,2.43,2.26c1.41.87,2.7.38,4.08,0,1.17-.31,1.43-1.28,2-2.07,1.1-1.47.74-3.08.82-4.32C139.58,189.46,137.17,189.42,134.7,189.67Z"/><path class="a" d="M202,162l.68,1.52a4.21,4.21,0,0,1-1.41.57c-2.28.07-4.57,0-7.11,0l.71,3.14h6.73v2.17c-1.47,0-2.95,0-4.42,0s-1.83.3-1.88,1.76c0,.6,0,1.2,0,1.94,2.37.1,4.75-1.59,6.89.36-.24,1.53-.4,1.74-1.55,1.76-1.77,0-3.53,0-5.3,0a7.23,7.23,0,0,0-1.5.38l-1.19-1.19c0-1.32,0-2.64,0-4s.23-2.59-.26-3.59.14-2.16-.72-3.19c-.61-.71.32-1.71,1.52-1.72C196.12,162,199,162,202,162Z"/><path class="a" d="M183.35,163.65a1.38,1.38,0,0,1,.74,1.89,1.52,1.52,0,0,1-1.53.76,15.28,15.28,0,0,0-4.74,1.18c0,.3-.07.59,0,.64.88.56.21,2.06,1.31,2.35a3.89,3.89,0,0,0,2.37-.57c1.38-.63,2.71-.26,4-.46.21,1.75.07,1.89-1.24,2.17-1.61.34-3.2.77-4.83,1.17l.66,3.07c2.32-.18,4.57-1.63,7.06-.95.08,1.49-.13,2-1.09,2-1.84-.08-3.33,1-5,1.3a3.58,3.58,0,0,0-1.18.34c-.81.48-1.3.38-1.54-.59-.52-2.08-1.06-4.15-1.59-6.23-.35-1.41-.38-2.89-2.12-3.63-1.06-.45-.69-1.91.53-2.29s2.7-.73,4.06-1.07Z"/><path class="a" d="M169.67,174.31c1,1.39,1,1.92-.29,2.56-1.76.85-3.58,1.56-5.51,2.39l2,5.49h-2.1c-1.46-2.82-3.07-5.67-4.4-8.65a3.33,3.33,0,0,0-1.69-1.62v-1.6a6.38,6.38,0,0,1,1.1-.54,30.67,30.67,0,0,0,5.78-2.64,4.85,4.85,0,0,1,3.6-.68,1.41,1.41,0,0,1-.92,2c-2.17.9-4.29,1.9-6.52,2.9l2.09,3.46Z"/><path class="a" d="M148.06,184.78c2.62-.84,4.48-3.05,7.33-2.52a1.44,1.44,0,0,1-.91,2.08c-1.63.72-3.21,1.58-4.8,2.37-.11,1.91,1.64,2.88,2.23,4.77l-1.77,1a4.39,4.39,0,0,1-1-1.14,52.45,52.45,0,0,0-4.6-7.62,3.61,3.61,0,0,1-.59-3.41,43.75,43.75,0,0,1,8.69-4.36c1.14,1.47,1.08,1.66-.46,2.58a18.07,18.07,0,0,1-2.93,1.24,15.47,15.47,0,0,0-2.8,1.82C146.25,182.87,147.8,183.46,148.06,184.78Z"/><path class="a" d="M123.65,198.07a26.09,26.09,0,0,0-2.84,2.72,3.94,3.94,0,0,0-.51,4.28,4.76,4.76,0,0,0,4,3.1,5.29,5.29,0,0,0,4.41-1.46,10.89,10.89,0,0,1,1.64-1.13c1.13,1.36,1.14,1.45.15,2.49a6.38,6.38,0,0,1-5.15,2.26,7.91,7.91,0,0,0-1.85,0,2.37,2.37,0,0,1-1.89-.57c-2.09-1.55-3.86-3.15-3.82-6.24a9.35,9.35,0,0,1,1.92-5.31,6.3,6.3,0,0,1,2.19-1.68C122.74,196,123.43,196.75,123.65,198.07Z"/></svg>