<svg xmlns="http://www.w3.org/2000/svg" viewBox="0 0 1880.43 367"><defs><style>.a{fill:#1a3763;}.b{fill:#ecb523;}</style></defs><title>logo</title><path class="a" d="M1538.4,162.3h-20.64v-20h64.38v20h-20.95v72.38H1538.4Zm17.25,68.07V162.3h-11.86v68.07Z"/><path class="a" d="M1642.35,139.2c29.11,0,49.74,21.71,49.74,49.28s-20.64,49.28-49.74,49.28c-29.26,0-49.74-21.71-49.74-49.28S1613.09,139.2,1642.35,139.2Zm0,93.94c22.18,0,39-14.79,43.12-35h-11.86c-3.7,13.4-15.09,22.95-31.26,22.95s-27.57-9.7-31.26-22.95h-11.86C1603.23,218.51,1620,233.14,1642.35,233.14Zm0-16.79c16.33,0,26.8-12.32,26.8-27.87s-10.47-27.87-26.8-27.87c-16.48,0-26.8,12.32-26.8,27.88S1625.87,216.36,1642.35,216.36Z"/><path class="a" d="M1713,142.28h22.48v57.91c0,12.32,5.85,16.63,13.71,16.63,8.62,0,14-4.31,14-16.63V142.28h22.64v61.29c0,21.87-16.32,34.19-36.65,34.19-21.1,0-36.19-12.94-36.19-34.19ZM1730,179.4v-32.8h-11.24v32.8Zm50.21,0v-32.8h-11.4v32.8Z"/><path class="a" d="M1805.9,142.28h38.66c19.87,0,32.8,12,32.8,29.42,0,16.17-8.16,25.26-21.87,28.65l24.95,34.34H1852.1l-23.56-34.5v34.5H1805.9Zm16.94,88.09V146.59h-11.24v83.78Zm23.87-48c5.08,0,8.47-5.24,8.47-10.63s-4-10.16-9.09-10.16h-17.56v20.79Z"/><path class="b" d="M50.05,138.2c17.56,0,29.72,6.62,39.58,16.94L74.08,169.92c-6.47-6.31-14.78-10.32-24-10.32-16.48,0-27.1,12.32-27.1,27.88s10.63,27.88,27.1,27.88c9.24,0,17.56-4,24-10.32l15.09,14.78c-9.24,9.7-22,16.94-39.12,16.94C20.79,236.76,0,215,0,187.48S20.79,138.2,50.05,138.2Z"/><path class="b" d="M106.72,141.28h38.66c19.87,0,32.8,12,32.8,29.42,0,16.17-8.16,25.26-21.87,28.64l24.95,34.34H152.92l-23.56-34.5v34.5H106.72Zm40.81,40c5.08,0,8.47-5.24,8.47-10.63s-4-10.17-9.09-10.17H129.36v20.79Z"/><path class="b" d="M235.47,138.2h4l45.28,95.48H260.42l-4.62-9.55H219.3l-4.47,9.55H190.5ZM248.09,208l-10.63-23.41h-.31L226.38,208Z"/><path class="b" d="M297.68,141.28h59.6v20h-37V181h34v19.71h-34v33H297.68Z"/><path class="b" d="M395.32,161.3H374.68v-20h64.38v20H418.11v72.38H395.32Z"/><rect class="b" x="1203.29" y="198.02" width="16" height="57.46" rx="8" ry="8" transform="translate(1907.47 1243.6) rotate(-135)"/><rect class="b" x="1203.29" y="198.02" width="16" height="57.46" rx="8" ry="8" transform="translate(194.44 922.93) rotate(-45)"/><rect class="b" x="1300.29" y="21.02" width="16" height="57.46" rx="8" ry="8" transform="translate(2198.21 1010.03) rotate(-135)"/><rect class="b" x="1300.29" y="21.02" width="16" height="57.46" rx="8" ry="8" transform="translate(348.01 939.67) rotate(-45)"/><rect class="b" x="1299.59" y="299.31" width="15.24" height="54.72" rx="7.62" ry="7.62" transform="translate(2000.56 1482) rotate(-135)"/><rect class="b" x="1299.59" y="299.31" width="15.24" height="54.72" rx="7.62" ry="7.62" transform="translate(151.88 1020.02) rotate(-45)"/><rect class="b" x="1409.29" y="112.02" width="16" height="57.46" rx="8" ry="8" transform="translate(2319.94 1242.45) rotate(-135)"/><rect class="b" x="1409.29" y="112.02" width="16" height="57.46" rx="8" ry="8" transform="translate(315.59 1043.4) rotate(-45)"/><path class="a" d="M1451.29,191.5h-347a8,8,0,0,1,0-16h347a8,8,0,0,1,0,16Z"/><path class="a" d="M1158.29,305.25a8,8,0,0,1-8-8v-199a8,8,0,0,1,16,0v199A8,8,0,0,1,1158.29,305.25Z"/><path class="a" d="M1264.29,367a8,8,0,0,1-8-8V8a8,8,0,0,1,16,0V359A8,8,0,0,1,1264.29,367Z"/><path class="a" d="M1370.29,228.25a8,8,0,0,1-8-8v-150a8,8,0,0,1,16,0v150A8,8,0,0,1,1370.29,228.25Z"/><path class="b" d="M546.6,138.2c17.56,0,29.72,6.62,39.58,16.94l-15.55,14.78c-6.47-6.31-14.78-10.32-24-10.32-16.48,0-27.1,12.32-27.1,27.88s10.63,27.88,27.1,27.88c9.24,0,17.56-4,24-10.32l15.09,14.79c-9.24,9.7-22,16.94-39.12,16.94-29.26,0-50.05-21.71-50.05-49.28S517.34,138.2,546.6,138.2Z"/><path class="b" d="M649.32,138.2c29.11,0,49.74,21.71,49.74,49.28s-20.64,49.28-49.74,49.28c-29.26,0-49.74-21.71-49.74-49.28S620.06,138.2,649.32,138.2Zm0,77.16c16.33,0,26.8-12.32,26.8-27.87s-10.47-27.87-26.8-27.87c-16.48,0-26.8,12.32-26.8,27.88S632.84,215.36,649.32,215.36Z"/><path class="b" d="M714.77,141.28h59.6v20h-37V181h34v19.71h-34v33H714.77Z"/><path class="b" d="M793,141.28h59.6v20h-37V181h34v19.71h-34v33H793Z"/><path class="b" d="M871.23,141.28h61.14v20h-38.5v16.63h35.58v19.71H893.87v16.63h40.2v19.41H871.23Z"/><path class="b" d="M954.23,141.28h61.14v20h-38.5v16.63h35.58v19.71H976.87v16.63h40.2v19.41H954.23Z"/><path class="a" d="M14,77.15H3.28V66.75H36.72v10.4H25.84v37.6H14Z"/><path class="a" d="M78.88,65.15c15.12,0,25.84,11.28,25.84,25.6S94,116.35,78.88,116.35,53,105.07,53,90.75,63.68,65.15,78.88,65.15Zm0,40.08c8.48,0,13.92-6.4,13.92-14.48S87.36,76.27,78.88,76.27,65,82.67,65,90.75,70.32,105.23,78.88,105.23Z"/><path class="a" d="M126.48,66.75h20.08c10.32,0,17,6.24,17,15.28,0,8.4-4.24,13.12-11.36,14.88l13,17.84H150.48L138.24,96.83v17.92H126.48Zm21.2,20.8c2.64,0,4.4-2.72,4.4-5.52s-2.08-5.28-4.72-5.28h-9.12v10.8Z"/><path class="a" d="M209.28,65.15c15.12,0,25.84,11.28,25.84,25.6s-10.72,25.6-25.84,25.6-25.84-11.28-25.84-25.6S194.08,65.15,209.28,65.15Zm0,40.08c8.48,0,13.92-6.4,13.92-14.48s-5.44-14.48-13.92-14.48-13.92,6.4-13.92,14.48S200.72,105.23,209.28,105.23Z"/><path class="a" d="M256.88,66.75h12.4l18.64,28.48V66.75H299.6v48H287.36L268.64,86.19v28.56H256.88Z"/><path class="a" d="M329.36,77.15H318.64V66.75h33.44v10.4H341.2v37.6H329.36Z"/><path class="a" d="M394.24,65.15c15.12,0,25.84,11.28,25.84,25.6s-10.72,25.6-25.84,25.6-25.84-11.28-25.84-25.6S379,65.15,394.24,65.15Zm0,40.08c8.48,0,13.92-6.4,13.92-14.48s-5.44-14.48-13.92-14.48-13.92,6.4-13.92,14.48S385.68,105.23,394.24,105.23Z"/></svg>