<svg xmlns="http://www.w3.org/2000/svg" xmlns:xlink="http://www.w3.org/1999/xlink" viewBox="0 0 228.32 228.32"><defs><style>.a,.c{fill:none;}.b{clip-path:url(#a);}.c{stroke:#a6aebf;stroke-miterlimit:10;}.d{fill:#a6aebf;}</style><clipPath id="a" transform="translate(-0.84 -0.84)"><rect class="a" width="230" height="230"/></clipPath></defs><title>logo-propeller</title><g class="b"><path class="c" d="M228.66,115A113.66,113.66,0,1,1,115,1.34,113.66,113.66,0,0,1,228.66,115Z" transform="translate(-0.84 -0.84)"/><path class="d" d="M154.21,87.69h-19l-7.49,27.76h18.78c14.84,0,21.78-5.17,21.78-16.19,0-8.17-4.08-11.57-14-11.57" transform="translate(-0.84 -0.84)"/><path class="d" d="M115,14.44A100.56,100.56,0,1,0,215.57,115,100.56,100.56,0,0,0,115,14.44m65.61,99.92c-6.26,9.26-16.87,13.07-36.34,13.07H124.55l-7.35,27.08L114,166.31v.18H77l3.27-12h22.44L110,127.43l3.27-12,7.35-27.76H44.76l3.26-12H161.16a39.87,39.87,0,0,1,11.57,1.5c7.48,2.45,12.51,10.61,12.51,20.68a28.91,28.91,0,0,1-4.63,16.46" transform="translate(-0.84 -0.84)"/></g></svg>