<svg xmlns="http://www.w3.org/2000/svg" viewBox="0 0 319.31 74"><defs><style>.a{fill:#a6aebf;}</style></defs><title>logo-sorry</title><path class="a" d="M115.32,37.07c-.65,6.85-.74,13.94-2.11,20.77-2.36,11.7-9.73,16.38-23.75,16.15-12.21-.2-20-5.44-21-16.92a223.53,223.53,0,0,1-.05-40C69.4,5.34,77.24.14,89.93,0,103.81-.13,111,4.68,113.33,16.6,114.61,23.23,114.69,30.1,115.32,37.07Zm-15,.55c-.54-6.47-.82-12.86-1.68-19.17-.58-4.31-2.77-7.63-7.9-7.58C86,10.92,83.29,14,83.17,18q-.56,19.07.06,38.16c.13,4.1,3,7,7.7,6.95s7-3.09,7.59-7.17C99.4,49.88,99.73,43.71,100.29,37.62Z"/><path class="a" d="M139.2,1.12c9.83,0,19.18-.34,28.49.11,6.89.34,11.5,4.61,13.12,11.24,1.93,7.89,2.09,15.73-4.61,21.91a43.22,43.22,0,0,1-4.86,3.29c8.61,2.48,10.3,8.77,10.33,16.24,0,6.12.5,12.23.82,19.14-3.38,0-6.53-.18-9.64,0-3.59.27-5.11-1.45-5.24-4.75-.19-4.68-.28-9.36-.43-14-.29-9.14-3.46-11.69-13.76-10.43V72.64H139.2ZM153.72,33.9c4.88-2.32,10.05-3.13,11.48-5.88,1.77-3.41,1.84-9.23,0-12.51-1.44-2.55-6.94-2.81-11.46-4.37Z"/><path class="a" d="M249.27,72.61c-14.16,1.66-14.41,1.43-14.41-13,0-1.49,0-3,0-4.47-.18-9.88-2.9-12.32-13.56-11.48V72.53H206.73V1.26c10.13,0,19.9-.45,29.59.16,6.61.41,10.83,5,12.22,11.39,1.72,7.92,2,15.77-5,21.82a49,49,0,0,1-4.65,3.15c8.31,2.25,10.34,8.14,10.33,15.31C249.26,59.45,249.27,65.81,249.27,72.61ZM221.4,12.71V31.79c9.88.67,13.15-2,13.18-10.2C234.61,13.75,231.7,11.72,221.4,12.71Z"/><path class="a" d="M.38,51H13.79c.27,1.75.08,3.65.87,5,1.5,2.49,3.17,5.77,5.52,6.61,2.13.75,6.46-.53,7.64-2.34,1.43-2.2,1.2-6,.49-8.88-.49-1.94-2.82-3.65-4.67-5-3.63-2.59-7.58-4.72-11.26-7.25C1.59,31.72-1.93,22.61,1.7,11.82,4.51,3.44,11.71-.24,24.8,0c13.53.26,20,7.58,18.28,21.1H29.69c-.18-1.25,0-2.7-.6-3.62-1.55-2.3-3.09-5.41-5.33-6.17-1.9-.65-6.09.89-6.89,2.59-1.16,2.46-1.41,7.09.14,8.74,3.67,3.92,8.46,6.91,13.11,9.76,11.71,7.18,15.81,14.62,14,26.08-1.26,7.78-5.6,13.11-13.3,14.43a55.38,55.38,0,0,1-17.71.4C3,71.69-1.37,63.53.38,51Z"/><path class="a" d="M267.85,1c4.68,0,8.92-.36,13,.19,1.48.2,3.28,2.35,3.89,4,3,8,5.56,16.07,8.91,25.93,2.72-7.46,4.92-13.51,7.12-19.56,4.37-12.07,4.52-12.15,18.49-9.83-4.79,11.68-9.08,23.46-14.41,34.74-4.16,8.81-5.35,17.78-4.78,27.25.16,2.74,0,5.49,0,8.8H284.94C290.4,46.24,274.86,25.1,267.85,1Z"/></svg>