<svg xmlns="http://www.w3.org/2000/svg" viewBox="0 0 452.28 350"><title>background</title><g id="Layer_2" data-name="Layer 2"><g id="Layer_1-2" data-name="Layer 1"><path d="M247.18,84.17l5.94-5.94a1.49,1.49,0,0,0,0-2.11l-3.29-3.29a1.49,1.49,0,0,0-2.11,0l-5.94,5.94-5.94-5.94a1.49,1.49,0,0,0-2.11,0l-3.29,3.29a1.49,1.49,0,0,0,0,2.11l5.94,5.94-5.94,5.94a1.49,1.49,0,0,0,0,2.11l3.29,3.29a1.49,1.49,0,0,0,2.11,0l5.94-5.94,5.94,5.94a1.49,1.49,0,0,0,2.11,0l3.29-3.29a1.49,1.49,0,0,0,0-2.11Z" style="fill:#ebb423"/><path d="M135.18,226.17l5.94-5.94a1.49,1.49,0,0,0,0-2.11l-3.29-3.29a1.49,1.49,0,0,0-2.11,0l-5.94,5.94-5.94-5.94a1.49,1.49,0,0,0-2.11,0l-3.29,3.29a1.49,1.49,0,0,0,0,2.11l5.94,5.94-5.94,5.94a1.49,1.49,0,0,0,0,2.11l3.29,3.29a1.49,1.49,0,0,0,2.11,0l5.94-5.94,5.94,5.94a1.49,1.49,0,0,0,2.11,0l3.29-3.29a1.49,1.49,0,0,0,0-2.11Z" style="fill:#ebb423"/><path d="M402.18,115.17l5.94-5.94a1.49,1.49,0,0,0,0-2.11l-3.29-3.29a1.49,1.49,0,0,0-2.11,0l-5.94,5.94-5.94-5.94a1.49,1.49,0,0,0-2.11,0l-3.29,3.29a1.49,1.49,0,0,0,0,2.11l5.94,5.94-5.94,5.94a1.49,1.49,0,0,0,0,2.11l3.29,3.29a1.49,1.49,0,0,0,2.11,0l5.94-5.94,5.94,5.94a1.49,1.49,0,0,0,2.11,0l3.29-3.29a1.49,1.49,0,0,0,0-2.11Z" style="fill:#ebb423"/><path d="M447.28,132.5H371V96a5,5,0,0,0-10,0v36.5H217V57h57.28a5,5,0,0,0,0-10H217V5a5,5,0,0,0-10,0V47H68a5,5,0,0,0,0,10H207v75.5H147.5a5,5,0,0,0,0,10H207V248H5a5,5,0,0,0,0,10H207v24a5,5,0,0,0,10,0V258h37a5,5,0,0,0,0-10H217V142.5H361V345a5,5,0,0,0,10,0V142.5h76.28a5,5,0,0,0,0-10Z" style="fill:#316cc2"/></g></g></svg>